STARTFONT 2.1
FONT -HKU-Fixed-Medium-R-Normal--16-160-72-72-C-160-BIG5.HKU-0
SIZE 16 72 72
FONTBOUNDINGBOX 16 16 0 -2
STARTPROPERTIES 19
FONTNAME_REGISTRY ""
FOUNDRY "HKU"
FAMILY_NAME "Fixed"
WEIGHT_NAME "Medium"
SLANT "R"
SETWIDTH_NAME "Normal"
ADD_STYLE_NAME ""
PIXEL_SIZE 16
POINT_SIZE 160
RESOLUTION_X 72
RESOLUTION_Y 72
SPACING "C"
AVERAGE_WIDTH 160
CHARSET_REGISTRY "BIG5.HKU"
CHARSET_ENCODING "0"
FONT_ASCENT 14
FONT_DESCENT 2
DEFAULT_CHAR 41280
COPYRIGHT "Society of HKU Postgrad.  By permission to use."
COMMENT Contributed by Soc. of Hong Kong University Postgrad on Chinese Affairs.
COMMENT Produced by TheDog.  Converted to bdf by W. Wilson Ho.
ENDPROPERTIES
CHARS 13524
STARTCHAR a140
ENCODING 41280
SWIDTH 96 0
DWIDTH 16 0
BBX 16 16 0 -2
BITMAP
0000
0000
0000
0000
0000
0000
0000
0000
0000
0000
0000
0000
0000
0000
0000
0000
ENDCHAR
STARTCHAR a141
ENCODING 41281
SWIDTH 96 0
DWIDTH 16 0
BBX 16 16 0 -2
BITMAP
0000
0000
0000
0000
0000
0000
0000
0c00
1e00
1e00
0c00
0400
0800
0000
0000
0000
ENDCHAR
STARTCHAR a142
ENCODING 41282
SWIDTH 96 0
DWIDTH 16 0
BBX 16 16 0 -2
BITMAP
0000
0000
0000
0000
0000
0000
0000
0000
0800
0400
0600
0700
0300
0000
0000
0000
ENDCHAR
STARTCHAR a143
ENCODING 41283
SWIDTH 96 0
DWIDTH 16 0
BBX 16 16 0 -2
BITMAP
0000
0000
0000
0000
0000
0000
0000
0000
0000
0700
0880
0880
0700
0000
0000
0000
ENDCHAR
STARTCHAR a144
ENCODING 41284
SWIDTH 96 0
DWIDTH 16 0
BBX 16 16 0 -2
BITMAP
0000
0000
0000
0000
0000
0000
0000
0000
0000
0600
0f00
0f00
0600
0000
0000
0000
ENDCHAR
STARTCHAR a145
ENCODING 41285
SWIDTH 96 0
DWIDTH 16 0
BBX 16 16 0 -2
BITMAP
0000
0000
0000
0000
0000
0000
0000
0000
0000
0700
0f80
0f80
0700
0000
0000
0000
ENDCHAR
STARTCHAR a146
ENCODING 41286
SWIDTH 96 0
DWIDTH 16 0
BBX 16 16 0 -2
BITMAP
0000
0000
0000
0600
0f00
0600
0000
0000
0600
0f00
0600
0200
0400
0000
0000
0000
ENDCHAR
STARTCHAR a147
ENCODING 41287
SWIDTH 96 0
DWIDTH 16 0
BBX 16 16 0 -2
BITMAP
0000
0000
0000
0000
0000
0600
0f00
0600
0000
0000
0600
0f00
0600
0000
0000
0000
ENDCHAR
STARTCHAR a148
ENCODING 41288
SWIDTH 96 0
DWIDTH 16 0
BBX 16 16 0 -2
BITMAP
0000
07c0
0c60
1030
1830
1830
0060
00c0
0180
0180
0000
0000
0180
0180
0000
0000
ENDCHAR
STARTCHAR a149
ENCODING 41289
SWIDTH 96 0
DWIDTH 16 0
BBX 16 16 0 -2
BITMAP
0000
0000
0180
03c0
03c0
03c0
0180
0180
0180
0000
0000
0180
0180
0000
0000
0000
ENDCHAR
STARTCHAR a14a
ENCODING 41290
SWIDTH 96 0
DWIDTH 16 0
BBX 16 16 0 -2
BITMAP
0000
0000
0000
0000
0080
01c0
0080
0000
0000
0080
01c0
0080
0000
0000
0000
0000
ENDCHAR
STARTCHAR a14b
ENCODING 41291
SWIDTH 96 0
DWIDTH 16 0
BBX 16 16 0 -2
BITMAP
0000
0000
0000
0000
0000
0000
18c6
3def
18c6
0000
0000
0000
0000
0000
0000
0000
ENDCHAR
STARTCHAR a14c
ENCODING 41292
SWIDTH 96 0
DWIDTH 16 0
BBX 16 16 0 -2
BITMAP
0000
0000
0000
0000
0000
0000
0c18
1e3c
0c18
0000
0000
0000
0000
0000
0000
0000
ENDCHAR
STARTCHAR a14d
ENCODING 41293
SWIDTH 96 0
DWIDTH 16 0
BBX 16 16 0 -2
BITMAP
0000
0000
0000
0000
0000
0000
0000
0000
0600
0f00
0600
0200
0400
0000
0000
0000
ENDCHAR
STARTCHAR a14e
ENCODING 41294
SWIDTH 96 0
DWIDTH 16 0
BBX 16 16 0 -2
BITMAP
0000
0000
0000
0000
0000
0000
0000
0000
0000
0800
0600
0700
0300
0000
0000
0000
ENDCHAR
STARTCHAR a14f
ENCODING 41295
SWIDTH 96 0
DWIDTH 16 0
BBX 16 16 0 -2
BITMAP
0000
0000
0000
0000
0000
0000
0000
0000
0000
0400
0e00
0400
0000
0000
0000
0000
ENDCHAR
STARTCHAR a150
ENCODING 41296
SWIDTH 96 0
DWIDTH 16 0
BBX 16 16 0 -2
BITMAP
0000
0000
0000
0000
0000
0000
0000
0000
0600
0f00
0f00
0600
0000
0000
0000
0000
ENDCHAR
STARTCHAR a151
ENCODING 41297
SWIDTH 96 0
DWIDTH 16 0
BBX 16 16 0 -2
BITMAP
0000
0000
0000
0600
0f00
0600
0000
0000
0600
0f00
0600
0200
0400
0000
0000
0000
ENDCHAR
STARTCHAR a152
ENCODING 41298
SWIDTH 96 0
DWIDTH 16 0
BBX 16 16 0 -2
BITMAP
0000
0000
0000
0000
0400
0e00
0400
0000
0000
0400
0e00
0400
0000
0000
0000
0000
ENDCHAR
STARTCHAR a153
ENCODING 41299
SWIDTH 96 0
DWIDTH 16 0
BBX 16 16 0 -2
BITMAP
0000
0000
0000
0700
0880
0080
0100
0200
0200
0000
0200
0200
0000
0000
0000
0000
ENDCHAR
STARTCHAR a154
ENCODING 41300
SWIDTH 96 0
DWIDTH 16 0
BBX 16 16 0 -2
BITMAP
0000
0000
0000
0300
0780
0780
0780
0300
0300
0000
0000
0300
0300
0000
0000
0000
ENDCHAR
STARTCHAR a155
ENCODING 41301
SWIDTH 96 0
DWIDTH 16 0
BBX 16 16 0 -2
BITMAP
0180
0180
0180
0180
0180
0180
0180
0180
0180
0180
0180
0180
0180
0180
0180
0000
ENDCHAR
STARTCHAR a156
ENCODING 41302
SWIDTH 96 0
DWIDTH 16 0
BBX 16 16 0 -2
BITMAP
0000
0000
0000
0000
0000
0000
1ffc
1ffc
0000
0000
0000
0000
0000
0000
0000
0000
ENDCHAR
STARTCHAR a157
ENCODING 41303
SWIDTH 96 0
DWIDTH 16 0
BBX 16 16 0 -2
BITMAP
0080
0080
0080
0080
0080
0080
0080
0080
0080
0080
0080
0080
0080
0080
0080
0000
ENDCHAR
STARTCHAR a158
ENCODING 41304
SWIDTH 96 0
DWIDTH 16 0
BBX 16 16 0 -2
BITMAP
0000
0000
0000
0000
0000
0000
0000
1ffc
0000
0000
0000
0000
0000
0000
0000
0000
ENDCHAR
STARTCHAR a159
ENCODING 41305
SWIDTH 96 0
DWIDTH 16 0
BBX 16 16 0 -2
BITMAP
6000
6000
6000
6000
6000
6000
6000
6000
6000
6000
6000
6000
6000
6000
6000
0000
ENDCHAR
STARTCHAR a15a
ENCODING 41306
SWIDTH 96 0
DWIDTH 16 0
BBX 16 16 0 -2
BITMAP
0000
0000
0000
0000
0000
0000
0000
0000
0000
0000
0000
0000
0000
ffff
ffff
0000
ENDCHAR
STARTCHAR a15b
ENCODING 41307
SWIDTH 96 0
DWIDTH 16 0
BBX 16 16 0 -2
BITMAP
4000
2000
1000
1000
2000
4000
2000
1000
1000
2000
4000
2000
1000
1000
2000
0000
ENDCHAR
STARTCHAR a15c
ENCODING 41308
SWIDTH 96 0
DWIDTH 16 0
BBX 16 16 0 -2
BITMAP
0000
0000
0000
0000
0000
0000
0000
0000
0000
0000
0000
0000
1084
294a
4631
0000
ENDCHAR
STARTCHAR a15d
ENCODING 41309
SWIDTH 96 0
DWIDTH 16 0
BBX 16 16 0 -2
BITMAP
0000
0004
0008
0010
0030
0060
0060
0060
0060
0060
0030
0010
0008
0004
0000
0000
ENDCHAR
STARTCHAR a15e
ENCODING 41310
SWIDTH 96 0
DWIDTH 16 0
BBX 16 16 0 -2
BITMAP
0000
1000
0800
0400
0600
0300
0300
0300
0300
0300
0600
0400
0800
1000
0000
0000
ENDCHAR
STARTCHAR a15f
ENCODING 41311
SWIDTH 96 0
DWIDTH 16 0
BBX 16 16 0 -2
BITMAP
0000
0000
0000
0000
0000
0000
0000
0000
07f0
0ff8
180c
2002
4001
0000
0000
0000
ENDCHAR
STARTCHAR a160
ENCODING 41312
SWIDTH 96 0
DWIDTH 16 0
BBX 16 16 0 -2
BITMAP
0000
0000
4001
2002
180c
0ff8
07f0
0000
0000
0000
0000
0000
0000
0000
0000
0000
ENDCHAR
STARTCHAR a161
ENCODING 41313
SWIDTH 96 0
DWIDTH 16 0
BBX 16 16 0 -2
BITMAP
0000
000c
0010
0020
0020
0020
0040
0080
0040
0020
0020
0020
0010
000c
0000
0000
ENDCHAR
STARTCHAR a162
ENCODING 41314
SWIDTH 96 0
DWIDTH 16 0
BBX 16 16 0 -2
BITMAP
0000
1800
0400
0200
0200
0200
0100
0080
0100
0200
0200
0200
0400
1800
0000
0000
ENDCHAR
STARTCHAR a163
ENCODING 41315
SWIDTH 96 0
DWIDTH 16 0
BBX 16 16 0 -2
BITMAP
0000
0000
0000
0000
0000
0000
0000
0080
0140
1e3c
2002
4001
4001
0000
0000
0000
ENDCHAR
STARTCHAR a164
ENCODING 41316
SWIDTH 96 0
DWIDTH 16 0
BBX 16 16 0 -2
BITMAP
0000
0000
4001
4001
2002
1e3c
0140
0080
0000
0000
0000
0000
0000
0000
0000
0000
ENDCHAR
STARTCHAR a165
ENCODING 41317
SWIDTH 96 0
DWIDTH 16 0
BBX 16 16 0 -2
BITMAP
0000
0008
0010
0020
0040
0040
0040
0040
0040
0040
0040
0020
0010
0008
0000
0000
ENDCHAR
STARTCHAR a166
ENCODING 41318
SWIDTH 96 0
DWIDTH 16 0
BBX 16 16 0 -2
BITMAP
0000
0800
0400
0200
0100
0100
0100
0100
0100
0100
0100
0200
0400
0800
0000
0000
ENDCHAR
STARTCHAR a167
ENCODING 41319
SWIDTH 96 0
DWIDTH 16 0
BBX 16 16 0 -2
BITMAP
0000
0000
0000
0000
0000
0000
0000
0000
07f0
0808
1004
2002
4001
0000
0000
0000
ENDCHAR
STARTCHAR a168
ENCODING 41320
SWIDTH 96 0
DWIDTH 16 0
BBX 16 16 0 -2
BITMAP
0000
0000
4001
2002
1004
0808
07f0
0000
0000
0000
0000
0000
0000
0000
0000
0000
ENDCHAR
STARTCHAR a169
ENCODING 41321
SWIDTH 96 0
DWIDTH 16 0
BBX 16 16 0 -2
BITMAP
0000
007c
0078
0070
0060
0060
0060
0060
0060
0060
0060
0070
0078
007c
0000
0000
ENDCHAR
STARTCHAR a16a
ENCODING 41322
SWIDTH 96 0
DWIDTH 16 0
BBX 16 16 0 -2
BITMAP
0000
1f00
0f00
0700
0300
0300
0300
0300
0300
0300
0300
0700
0f00
1f00
0000
0000
ENDCHAR
STARTCHAR a16b
ENCODING 41323
SWIDTH 96 0
DWIDTH 16 0
BBX 16 16 0 -2
BITMAP
0000
0000
0000
0000
0000
0000
0000
0000
7fff
7fff
7007
6003
4001
0000
0000
0000
ENDCHAR
STARTCHAR a16c
ENCODING 41324
SWIDTH 96 0
DWIDTH 16 0
BBX 16 16 0 -2
BITMAP
0000
0000
4001
6003
7007
7fff
7fff
0000
0000
0000
0000
0000
0000
0000
0000
0000
ENDCHAR
STARTCHAR a16d
ENCODING 41325
SWIDTH 96 0
DWIDTH 16 0
BBX 16 16 0 -2
BITMAP
0000
0042
0084
0108
0210
0420
0840
1080
0840
0420
0210
0108
0084
0042
0000
0000
ENDCHAR
STARTCHAR a16e
ENCODING 41326
SWIDTH 96 0
DWIDTH 16 0
BBX 16 16 0 -2
BITMAP
0000
2100
1080
0840
0420
0210
0108
0084
0108
0210
0420
0840
1080
2100
0000
0000
ENDCHAR
STARTCHAR a16f
ENCODING 41327
SWIDTH 96 0
DWIDTH 16 0
BBX 16 16 0 -2
BITMAP
0000
0080
0140
0220
0410
0808
1084
2142
0220
0410
0808
1004
2002
0000
0000
0000
ENDCHAR
STARTCHAR a170
ENCODING 41328
SWIDTH 96 0
DWIDTH 16 0
BBX 16 16 0 -2
BITMAP
0000
0000
2002
1004
0808
0410
0220
2142
1084
0808
0410
0220
0140
0080
0000
0000
ENDCHAR
STARTCHAR a171
ENCODING 41329
SWIDTH 96 0
DWIDTH 16 0
BBX 16 16 0 -2
BITMAP
0000
0000
0020
0040
0080
0100
0200
0400
0200
0100
0080
0040
0020
0000
0000
0000
ENDCHAR
STARTCHAR a172
ENCODING 41330
SWIDTH 96 0
DWIDTH 16 0
BBX 16 16 0 -2
BITMAP
0000
0000
0200
0100
0080
0040
0020
0010
0020
0040
0080
0100
0200
0000
0000
0000
ENDCHAR
STARTCHAR a173
ENCODING 41331
SWIDTH 96 0
DWIDTH 16 0
BBX 16 16 0 -2
BITMAP
0000
0100
0380
06c0
0c60
1830
0000
0000
0000
0000
0000
0000
0000
0000
0000
0000
ENDCHAR
STARTCHAR a174
ENCODING 41332
SWIDTH 96 0
DWIDTH 16 0
BBX 16 16 0 -2
BITMAP
0000
0000
0000
2002
1004
0808
0410
0220
0140
0080
0000
0000
0000
0000
0000
0000
ENDCHAR
STARTCHAR a175
ENCODING 41333
SWIDTH 96 0
DWIDTH 16 0
BBX 16 16 0 -2
BITMAP
0000
0000
00ff
0080
0080
0080
0080
0080
0080
0080
0000
0000
0000
0000
0000
0000
ENDCHAR
STARTCHAR a176
ENCODING 41334
SWIDTH 96 0
DWIDTH 16 0
BBX 16 16 0 -2
BITMAP
0000
0000
0000
0000
0000
0080
0080
0080
0080
0080
0080
0080
7f80
0000
0000
0000
ENDCHAR
STARTCHAR a177
ENCODING 41335
SWIDTH 96 0
DWIDTH 16 0
BBX 16 16 0 -2
BITMAP
0000
0000
0000
0000
0000
7f80
0080
0080
0080
0080
0080
0080
0080
0000
0000
0000
ENDCHAR
STARTCHAR a178
ENCODING 41336
SWIDTH 96 0
DWIDTH 16 0
BBX 16 16 0 -2
BITMAP
0000
0000
0080
0080
0080
0080
0080
0080
0080
00ff
0000
0000
0000
0000
0000
0000
ENDCHAR
STARTCHAR a179
ENCODING 41337
SWIDTH 96 0
DWIDTH 16 0
BBX 16 16 0 -2
BITMAP
0000
0000
01ff
0101
017f
0140
0140
0140
0140
0140
01c0
0000
0000
0000
0000
0000
ENDCHAR
STARTCHAR a17a
ENCODING 41338
SWIDTH 96 0
DWIDTH 16 0
BBX 16 16 0 -2
BITMAP
0000
0000
0000
0000
01c0
0140
0140
0140
0140
0140
7f40
4040
7fc0
0000
0000
0000
ENDCHAR
STARTCHAR a17b
ENCODING 41339
SWIDTH 96 0
DWIDTH 16 0
BBX 16 16 0 -2
BITMAP
0000
0000
0000
0000
7fc0
4040
7f40
0140
0140
0140
0140
0140
01c0
0000
0000
0000
ENDCHAR
STARTCHAR a17c
ENCODING 41340
SWIDTH 96 0
DWIDTH 16 0
BBX 16 16 0 -2
BITMAP
0000
0000
01c0
0140
0140
0140
0140
0140
017f
0101
01ff
0000
0000
0000
0000
0000
ENDCHAR
STARTCHAR a17d
ENCODING 41341
SWIDTH 96 0
DWIDTH 16 0
BBX 16 16 0 -2
BITMAP
0000
0000
0000
0004
0008
0018
0018
0018
0018
0018
0008
0004
0000
0000
0000
0000
ENDCHAR
STARTCHAR a17e
ENCODING 41342
SWIDTH 96 0
DWIDTH 16 0
BBX 16 16 0 -2
BITMAP
0000
0000
0000
2000
1000
1800
1800
1800
1800
1800
1000
2000
0000
0000
0000
0000
ENDCHAR
STARTCHAR a1a1
ENCODING 41377
SWIDTH 96 0
DWIDTH 16 0
BBX 16 16 0 -2
BITMAP
0000
0000
000c
0010
0010
0010
0010
0020
0010
0010
0010
0010
000c
0000
0000
0000
ENDCHAR
STARTCHAR a1a2
ENCODING 41378
SWIDTH 96 0
DWIDTH 16 0
BBX 16 16 0 -2
BITMAP
0000
0000
3000
0800
0800
0800
0800
0400
0800
0800
0800
0800
3000
0000
0000
0000
ENDCHAR
STARTCHAR a1a3
ENCODING 41379
SWIDTH 96 0
DWIDTH 16 0
BBX 16 16 0 -2
BITMAP
0000
0000
0010
0020
0020
0020
0020
0020
0020
0020
0020
0010
0000
0000
0000
0000
ENDCHAR
STARTCHAR a1a4
ENCODING 41380
SWIDTH 96 0
DWIDTH 16 0
BBX 16 16 0 -2
BITMAP
0000
0000
0800
0400
0400
0400
0400
0400
0400
0400
0400
0400
0800
0000
0000
0000
ENDCHAR
STARTCHAR a1a5
ENCODING 41381
SWIDTH 96 0
DWIDTH 16 0
BBX 16 16 0 -2
BITMAP
0008
0010
0038
003c
0018
0000
0000
0000
0000
0000
0000
0000
0000
0000
0000
0000
ENDCHAR
STARTCHAR a1a6
ENCODING 41382
SWIDTH 96 0
DWIDTH 16 0
BBX 16 16 0 -2
BITMAP
1800
3c00
1c00
0800
3000
0000
0000
0000
0000
0000
0000
0000
0000
0000
0000
0000
ENDCHAR
STARTCHAR a1a7
ENCODING 41383
SWIDTH 96 0
DWIDTH 16 0
BBX 16 16 0 -2
BITMAP
0044
0088
0198
01dc
0198
0000
0000
0000
0000
0000
0000
0000
0000
0000
0000
0000
ENDCHAR
STARTCHAR a1a8
ENCODING 41384
SWIDTH 96 0
DWIDTH 16 0
BBX 16 16 0 -2
BITMAP
7700
7700
3300
2200
4400
0000
0000
0000
0000
0000
0000
0000
0000
0000
0000
0000
ENDCHAR
STARTCHAR a1a9
ENCODING 41385
SWIDTH 96 0
DWIDTH 16 0
BBX 16 16 0 -2
BITMAP
7700
7700
3300
1100
0880
0000
0000
0000
0000
0000
0000
0000
0000
0000
0000
0000
ENDCHAR
STARTCHAR a1aa
ENCODING 41386
SWIDTH 96 0
DWIDTH 16 0
BBX 16 16 0 -2
BITMAP
00ee
00ee
00cc
0088
0110
0000
0000
0000
0000
0000
0000
0000
0000
0000
0000
0000
ENDCHAR
STARTCHAR a1ab
ENCODING 41387
SWIDTH 96 0
DWIDTH 16 0
BBX 16 16 0 -2
BITMAP
0700
0380
00c0
0020
0000
0000
0000
0000
0000
0000
0000
0000
0000
0000
0000
0000
ENDCHAR
STARTCHAR a1ac
ENCODING 41388
SWIDTH 96 0
DWIDTH 16 0
BBX 16 16 0 -2
BITMAP
00c0
01e0
01c0
0180
0300
0400
0000
0000
0000
0000
0000
0000
0000
0000
0000
0000
ENDCHAR
STARTCHAR a1ad
ENCODING 41389
SWIDTH 96 0
DWIDTH 16 0
BBX 16 16 0 -2
BITMAP
0000
0000
0420
0420
043e
07e0
7c20
0420
043e
07e0
7c20
0420
0420
0000
0000
0000
ENDCHAR
STARTCHAR a1ae
ENCODING 41390
SWIDTH 96 0
DWIDTH 16 0
BBX 16 16 0 -2
BITMAP
0700
0d80
18c0
18c0
0d80
0700
0e00
1b3c
3190
30d0
3070
3030
1878
0fce
0000
0000
ENDCHAR
STARTCHAR a1af
ENCODING 41391
SWIDTH 96 0
DWIDTH 16 0
BBX 16 16 0 -2
BITMAP
0000
2082
1084
0888
0490
02a0
01c0
3ffe
01c0
02a0
0490
0888
1084
2082
0000
0000
ENDCHAR
STARTCHAR a1b0
ENCODING 41392
SWIDTH 96 0
DWIDTH 16 0
BBX 16 16 0 -2
BITMAP
0000
0000
1084
09c8
0490
0220
1144
388e
1144
0220
0490
09c8
1084
0000
0000
0000
ENDCHAR
STARTCHAR a1b1
ENCODING 41393
SWIDTH 96 0
DWIDTH 16 0
BBX 16 16 0 -2
BITMAP
0000
0000
01c0
0230
0200
01c0
0220
0410
0220
01c0
0020
0620
01c0
0000
0000
0000
ENDCHAR
STARTCHAR a1b2
ENCODING 41394
SWIDTH 96 0
DWIDTH 16 0
BBX 16 16 0 -2
BITMAP
0000
0000
0000
0000
0000
0318
0630
0c60
0840
1080
0000
0000
0000
0000
0000
0000
ENDCHAR
STARTCHAR a1b3
ENCODING 41395
SWIDTH 96 0
DWIDTH 16 0
BBX 16 16 0 -2
BITMAP
0000
0000
03c0
0c30
1008
2004
2004
2004
2004
2004
1008
0c30
03c0
0000
0000
0000
ENDCHAR
STARTCHAR a1b4
ENCODING 41396
SWIDTH 96 0
DWIDTH 16 0
BBX 16 16 0 -2
BITMAP
0000
0000
03c0
0ff0
1ff8
3ffc
3ffc
3ffc
3ffc
3ffc
1ff8
0ff0
03c0
0000
0000
0000
ENDCHAR
STARTCHAR a1b5
ENCODING 41397
SWIDTH 96 0
DWIDTH 16 0
BBX 16 16 0 -2
BITMAP
0000
0000
0080
0140
0140
0220
0220
0410
0410
0808
0808
1004
1ffc
0000
0000
0000
ENDCHAR
STARTCHAR a1b6
ENCODING 41398
SWIDTH 96 0
DWIDTH 16 0
BBX 16 16 0 -2
BITMAP
0000
0000
0080
01c0
01c0
03e0
03e0
07f0
07f0
0ff8
0ff8
1ffc
1ffc
0000
0000
0000
ENDCHAR
STARTCHAR a1b7
ENCODING 41399
SWIDTH 96 0
DWIDTH 16 0
BBX 16 16 0 -2
BITMAP
0000
0000
03e0
0c18
1004
21c2
2222
2222
2222
21c2
1004
0c18
03e0
0000
0000
0000
ENDCHAR
STARTCHAR a1b8
ENCODING 41400
SWIDTH 96 0
DWIDTH 16 0
BBX 16 16 0 -2
BITMAP
0100
0280
0280
0440
0440
fc7e
4004
2008
1010
0820
0920
1290
1450
2828
3018
0000
ENDCHAR
STARTCHAR a1b9
ENCODING 41401
SWIDTH 96 0
DWIDTH 16 0
BBX 16 16 0 -2
BITMAP
0100
0380
0380
07c0
07c0
fffe
7ffc
3ff8
1ff0
0fe0
0fe0
1ef0
1c70
3838
3018
0000
ENDCHAR
STARTCHAR a1ba
ENCODING 41402
SWIDTH 96 0
DWIDTH 16 0
BBX 16 16 0 -2
BITMAP
0100
0380
06c0
0c60
1830
3018
600c
c006
600c
3018
1830
0c60
06c0
0380
0100
0000
ENDCHAR
STARTCHAR a1bb
ENCODING 41403
SWIDTH 96 0
DWIDTH 16 0
BBX 16 16 0 -2
BITMAP
0100
0380
07c0
0fe0
1ff0
3ff8
7ffc
fffe
7ffc
3ff8
1ff0
0fe0
07c0
0380
0100
0000
ENDCHAR
STARTCHAR a1bc
ENCODING 41404
SWIDTH 96 0
DWIDTH 16 0
BBX 16 16 0 -2
BITMAP
7fff
4001
4001
4001
4001
4001
4001
4001
4001
4001
4001
4001
4001
7fff
0000
0000
ENDCHAR
STARTCHAR a1bd
ENCODING 41405
SWIDTH 96 0
DWIDTH 16 0
BBX 16 16 0 -2
BITMAP
7fff
7fff
7fff
7fff
7fff
7fff
7fff
7fff
7fff
7fff
7fff
7fff
7fff
7fff
0000
0000
ENDCHAR
STARTCHAR a1be
ENCODING 41406
SWIDTH 96 0
DWIDTH 16 0
BBX 16 16 0 -2
BITMAP
0000
7fff
2002
2002
1004
1004
0808
0808
0410
0410
0220
0220
0140
0080
0000
0000
ENDCHAR
STARTCHAR a1bf
ENCODING 41407
SWIDTH 96 0
DWIDTH 16 0
BBX 16 16 0 -2
BITMAP
0000
7fff
3ffe
3ffe
1ffc
1ffc
0ff8
0ff8
07f0
07f0
03e0
03e0
01c0
0080
0000
0000
ENDCHAR
STARTCHAR a1c0
ENCODING 41408
SWIDTH 96 0
DWIDTH 16 0
BBX 16 16 0 -2
BITMAP
03c0
0c30
1008
2004
2ff4
4082
4082
44e2
4482
2484
2ff4
1008
0c30
03c0
0000
0000
ENDCHAR
STARTCHAR a1c1
ENCODING 41409
SWIDTH 96 0
DWIDTH 16 0
BBX 16 16 0 -2
BITMAP
0000
0000
0e00
1108
2010
2020
1240
0c80
013c
0242
0442
0842
103c
0000
0000
0000
ENDCHAR
STARTCHAR a1c2
ENCODING 41410
SWIDTH 96 0
DWIDTH 16 0
BBX 16 16 0 -2
BITMAP
0000
0000
0000
1ffc
0000
0000
0000
0000
0000
0000
0000
0000
0000
0000
0000
0000
ENDCHAR
STARTCHAR a1c3
ENCODING 41411
SWIDTH 96 0
DWIDTH 16 0
BBX 16 16 0 -2
BITMAP
0000
0000
1ffc
1ffc
1ffc
0000
0000
0000
0000
0000
0000
0000
0000
0000
0000
0000
ENDCHAR
STARTCHAR a1c4
ENCODING 41412
SWIDTH 96 0
DWIDTH 16 0
BBX 16 16 0 -2
BITMAP
0000
0000
0000
0000
0000
0000
0000
0000
0000
0000
0000
0000
1ffc
0000
0000
0000
ENDCHAR
STARTCHAR a1c5
ENCODING 41413
SWIDTH 96 0
DWIDTH 16 0
BBX 16 16 0 -2
BITMAP
0000
0000
0000
0000
0000
0000
0000
0000
0000
0000
1ffc
1ffc
1ffc
0000
0000
0000
ENDCHAR
STARTCHAR a1c6
ENCODING 41414
SWIDTH 96 0
DWIDTH 16 0
BBX 16 16 0 -2
BITMAP
0000
0000
0000
39ce
39ce
0000
0000
0000
0000
0000
0000
0000
0000
0000
0000
0000
ENDCHAR
STARTCHAR a1c7
ENCODING 41415
SWIDTH 96 0
DWIDTH 16 0
BBX 16 16 0 -2
BITMAP
0000
0000
0000
3ccf
3ccf
0000
0000
0000
0000
0000
0000
0000
0000
0000
0000
0000
ENDCHAR
STARTCHAR a1c8
ENCODING 41416
SWIDTH 96 0
DWIDTH 16 0
BBX 16 16 0 -2
BITMAP
0000
0000
0000
0000
0000
0000
0000
0000
0000
0000
39ce
39ce
0000
0000
0000
0000
ENDCHAR
STARTCHAR a1c9
ENCODING 41417
SWIDTH 96 0
DWIDTH 16 0
BBX 16 16 0 -2
BITMAP
0000
0000
0000
0000
0000
0000
0000
0000
0000
0000
3ccf
3ccf
0000
0000
0000
0000
ENDCHAR
STARTCHAR a1ca
ENCODING 41418
SWIDTH 96 0
DWIDTH 16 0
BBX 16 16 0 -2
BITMAP
0000
0000
0410
0a28
1144
2082
0000
0000
0000
0000
0000
0000
0000
0000
0000
0000
ENDCHAR
STARTCHAR a1cb
ENCODING 41419
SWIDTH 96 0
DWIDTH 16 0
BBX 16 16 0 -2
BITMAP
0000
0000
0410
0e38
1b6c
31c6
2082
0000
0000
0000
0000
0000
0000
0000
0000
0000
ENDCHAR
STARTCHAR a1cc
ENCODING 41420
SWIDTH 96 0
DWIDTH 16 0
BBX 16 16 0 -2
BITMAP
0000
0000
0480
0480
1fe0
0480
0480
0480
1fe0
0480
0480
0000
0000
0000
0000
0000
ENDCHAR
STARTCHAR a1cd
ENCODING 41421
SWIDTH 96 0
DWIDTH 16 0
BBX 16 16 0 -2
BITMAP
0000
0000
0000
0000
0000
0700
0880
0500
0200
0520
08a0
0840
07b8
0000
0000
0000
ENDCHAR
STARTCHAR a1ce
ENCODING 41422
SWIDTH 96 0
DWIDTH 16 0
BBX 16 16 0 -2
BITMAP
0000
0000
0080
0888
0490
02a0
01c0
01c0
02a0
0490
0888
0080
0000
0000
0000
0000
ENDCHAR
STARTCHAR a1cf
ENCODING 41423
SWIDTH 96 0
DWIDTH 16 0
BBX 16 16 0 -2
BITMAP
0000
0000
0000
0080
0080
0080
0080
1ffc
0080
0080
0080
0080
0000
0000
0000
0000
ENDCHAR
STARTCHAR a1d0
ENCODING 41424
SWIDTH 96 0
DWIDTH 16 0
BBX 16 16 0 -2
BITMAP
0000
0000
0000
0000
0000
0000
0000
1ffc
0000
0000
0000
0000
0000
0000
0000
0000
ENDCHAR
STARTCHAR a1d1
ENCODING 41425
SWIDTH 96 0
DWIDTH 16 0
BBX 16 16 0 -2
BITMAP
0000
0000
1004
0808
0410
0220
0140
0080
0140
0220
0410
0808
1004
0000
0000
0000
ENDCHAR
STARTCHAR a1d2
ENCODING 41426
SWIDTH 96 0
DWIDTH 16 0
BBX 16 16 0 -2
BITMAP
0000
0000
0000
0180
0180
0000
0000
1ffc
0000
0000
0180
0180
0000
0000
0000
0000
ENDCHAR
STARTCHAR a1d3
ENCODING 41427
SWIDTH 96 0
DWIDTH 16 0
BBX 16 16 0 -2
BITMAP
0000
0000
0000
0080
0080
0080
0080
1ffc
0080
0080
0080
0000
1ffc
0000
0000
0000
ENDCHAR
STARTCHAR a1d4
ENCODING 41428
SWIDTH 96 0
DWIDTH 16 0
BBX 16 16 0 -2
BITMAP
0000
0000
0000
01ff
0100
0100
0100
0100
0200
4200
2400
1400
0800
0000
0000
0000
ENDCHAR
STARTCHAR a1d5
ENCODING 41429
SWIDTH 96 0
DWIDTH 16 0
BBX 16 16 0 -2
BITMAP
0000
0000
0060
00c0
0180
0300
0600
0c00
0600
0300
0180
00c0
0060
0000
0000
0000
ENDCHAR
STARTCHAR a1d6
ENCODING 41430
SWIDTH 96 0
DWIDTH 16 0
BBX 16 16 0 -2
BITMAP
0000
0000
0300
0180
00c0
0060
0030
0018
0030
0060
00c0
0180
0300
0000
0000
0000
ENDCHAR
STARTCHAR a1d7
ENCODING 41431
SWIDTH 96 0
DWIDTH 16 0
BBX 16 16 0 -2
BITMAP
0000
0000
0000
0000
0000
1ffc
0000
0000
0000
1ffc
0000
0000
0000
0000
0000
0000
ENDCHAR
STARTCHAR a1d8
ENCODING 41432
SWIDTH 96 0
DWIDTH 16 0
BBX 16 16 0 -2
BITMAP
0000
0000
0080
0100
0200
0400
0200
0100
0080
0000
1ff8
0000
1ff8
0000
0000
0000
ENDCHAR
STARTCHAR a1d9
ENCODING 41433
SWIDTH 96 0
DWIDTH 16 0
BBX 16 16 0 -2
BITMAP
0000
0000
0100
0080
0040
0020
0040
0080
0100
0000
1ff8
0000
1ff8
0000
0000
0000
ENDCHAR
STARTCHAR a1da
ENCODING 41434
SWIDTH 96 0
DWIDTH 16 0
BBX 16 16 0 -2
BITMAP
0000
0000
0008
0010
0020
3ffe
0080
0100
3ffe
0400
0800
1000
0000
0000
0000
0000
ENDCHAR
STARTCHAR a1db
ENCODING 41435
SWIDTH 96 0
DWIDTH 16 0
BBX 16 16 0 -2
BITMAP
0000
0000
0000
0000
0000
1c1c
2362
4081
4081
2362
1c1c
0000
0000
0000
0000
0000
ENDCHAR
STARTCHAR a1dc
ENCODING 41436
SWIDTH 96 0
DWIDTH 16 0
BBX 16 16 0 -2
BITMAP
0000
0000
0000
0c00
0c00
0000
1ffc
0000
0000
1ffc
0000
0018
0018
0000
0000
0000
ENDCHAR
STARTCHAR a1dd
ENCODING 41437
SWIDTH 96 0
DWIDTH 16 0
BBX 16 16 0 -2
BITMAP
0000
0000
0000
0000
1ffc
0000
0000
1ffc
0000
0000
1ffc
0000
0000
0000
0000
0000
ENDCHAR
STARTCHAR a1de
ENCODING 41438
SWIDTH 96 0
DWIDTH 16 0
BBX 16 16 0 -2
BITMAP
0000
0000
0000
0080
0080
0080
07f0
0080
0080
0080
0080
0000
0000
0000
0000
0000
ENDCHAR
STARTCHAR a1df
ENCODING 41439
SWIDTH 96 0
DWIDTH 16 0
BBX 16 16 0 -2
BITMAP
0000
0000
0000
0000
0000
0000
0ff0
0000
0000
0000
0000
0000
0000
0000
0000
0000
ENDCHAR
STARTCHAR a1e0
ENCODING 41440
SWIDTH 96 0
DWIDTH 16 0
BBX 16 16 0 -2
BITMAP
0000
0000
0000
0180
0300
0600
0c00
1800
0c00
0600
0300
0180
0000
0000
0000
0000
ENDCHAR
STARTCHAR a1e1
ENCODING 41441
SWIDTH 96 0
DWIDTH 16 0
BBX 16 16 0 -2
BITMAP
0000
0000
0000
0180
00c0
0060
0030
0018
0030
0060
00c0
0180
0000
0000
0000
0000
ENDCHAR
STARTCHAR a1e2
ENCODING 41442
SWIDTH 96 0
DWIDTH 16 0
BBX 16 16 0 -2
BITMAP
0000
0000
0000
0000
0ff0
0000
0000
0000
0ff0
0000
0000
0000
0000
0000
0000
0000
ENDCHAR
STARTCHAR a1e3
ENCODING 41443
SWIDTH 96 0
DWIDTH 16 0
BBX 16 16 0 -2
BITMAP
0000
0000
0000
0c00
1f04
318c
20f8
0020
0000
0000
0000
0000
0000
0000
0000
0000
ENDCHAR
STARTCHAR a1e4
ENCODING 41444
SWIDTH 96 0
DWIDTH 16 0
BBX 16 16 0 -2
BITMAP
0000
0000
0000
03e0
0410
0410
0808
0808
1004
1004
1004
1004
1004
0000
0000
0000
ENDCHAR
STARTCHAR a1e5
ENCODING 41445
SWIDTH 96 0
DWIDTH 16 0
BBX 16 16 0 -2
BITMAP
0000
0000
1004
1004
1004
1004
1004
1004
0808
0808
0410
0410
03e0
0000
0000
0000
ENDCHAR
STARTCHAR a1e6
ENCODING 41446
SWIDTH 96 0
DWIDTH 16 0
BBX 16 16 0 -2
BITMAP
0000
0000
0180
0180
0180
0180
0180
0180
0180
0180
7ffe
7ffe
0000
0000
0000
0000
ENDCHAR
STARTCHAR a1e7
ENCODING 41447
SWIDTH 96 0
DWIDTH 16 0
BBX 16 16 0 -2
BITMAP
0000
0000
0008
0010
0020
0040
0080
0100
0200
0400
0800
1000
3ffe
0000
0000
0000
ENDCHAR
STARTCHAR a1e8
ENCODING 41448
SWIDTH 96 0
DWIDTH 16 0
BBX 16 16 0 -2
BITMAP
0000
0000
1000
1000
1000
1000
1000
1000
1000
1000
1000
1000
1ffc
0000
0000
0000
ENDCHAR
STARTCHAR a1e9
ENCODING 41449
SWIDTH 96 0
DWIDTH 16 0
BBX 16 16 0 -2
BITMAP
0000
0004
000c
0014
0024
0044
0084
0104
0204
0404
0804
1004
3ffc
0000
0000
0000
ENDCHAR
STARTCHAR a1ea
ENCODING 41450
SWIDTH 96 0
DWIDTH 16 0
BBX 16 16 0 -2
BITMAP
0000
0000
2000
6001
2002
238e
2451
2451
244e
2448
738e
0011
0011
000e
0000
0000
ENDCHAR
STARTCHAR a1eb
ENCODING 41451
SWIDTH 96 0
DWIDTH 16 0
BBX 16 16 0 -2
BITMAP
0000
0000
1800
0800
0800
0800
081c
09a2
0842
0842
0842
0842
1c42
0000
0000
0000
ENDCHAR
STARTCHAR a1ec
ENCODING 41452
SWIDTH 96 0
DWIDTH 16 0
BBX 16 16 0 -2
BITMAP
0000
0000
0060
0090
0100
0100
0100
0100
0100
0100
0100
1200
0c00
0000
0000
0000
ENDCHAR
STARTCHAR a1ed
ENCODING 41453
SWIDTH 96 0
DWIDTH 16 0
BBX 16 16 0 -2
BITMAP
0000
0000
0030
0048
0080
07f0
0888
1084
0888
07f0
0080
0900
0600
0000
0000
0000
ENDCHAR
STARTCHAR a1ee
ENCODING 41454
SWIDTH 96 0
DWIDTH 16 0
BBX 16 16 0 -2
BITMAP
0000
0000
0000
1818
3c3c
3c3c
1818
0000
0000
0180
03c0
03c0
0180
0000
0000
0000
ENDCHAR
STARTCHAR a1ef
ENCODING 41455
SWIDTH 96 0
DWIDTH 16 0
BBX 16 16 0 -2
BITMAP
0000
0000
0000
0180
03c0
03c0
0180
0000
0000
1818
3c3c
3c3c
1818
0000
0000
0000
ENDCHAR
STARTCHAR a1f0
ENCODING 41456
SWIDTH 96 0
DWIDTH 16 0
BBX 16 16 0 -2
BITMAP
0000
0000
03e0
0410
0808
0410
03e0
0080
0080
7fff
0080
0080
0080
0000
0000
0000
ENDCHAR
STARTCHAR a1f1
ENCODING 41457
SWIDTH 96 0
DWIDTH 16 0
BBX 16 16 0 -2
BITMAP
0000
0000
0080
01c0
02a0
0490
0888
0080
03e0
0410
0808
0410
03e0
0000
0000
0000
ENDCHAR
STARTCHAR a1f2
ENCODING 41458
SWIDTH 96 0
DWIDTH 16 0
BBX 16 16 0 -2
BITMAP
0000
0000
07f0
0888
1084
2082
2082
3ffe
2082
2082
1084
0888
07f0
0000
0000
0000
ENDCHAR
STARTCHAR a1f3
ENCODING 41459
SWIDTH 96 0
DWIDTH 16 0
BBX 16 16 0 -2
BITMAP
0000
0000
07f0
0808
1004
2002
21c2
23e2
21c2
2002
1004
0808
07f0
0000
0000
0000
ENDCHAR
STARTCHAR a1f4
ENCODING 41460
SWIDTH 96 0
DWIDTH 16 0
BBX 16 16 0 -2
BITMAP
0000
0000
0080
01c0
02a0
0490
0888
1084
2082
0080
0080
0080
0080
0000
0000
0000
ENDCHAR
STARTCHAR a1f5
ENCODING 41461
SWIDTH 96 0
DWIDTH 16 0
BBX 16 16 0 -2
BITMAP
0000
0000
0080
0080
0080
0080
2082
1084
0888
0490
02a0
01c0
0080
0000
0000
0000
ENDCHAR
STARTCHAR a1f6
ENCODING 41462
SWIDTH 96 0
DWIDTH 16 0
BBX 16 16 0 -2
BITMAP
0000
0000
0200
0400
0800
1000
2000
7fff
2000
1000
0800
0400
0200
0000
0000
0000
ENDCHAR
STARTCHAR a1f7
ENCODING 41463
SWIDTH 96 0
DWIDTH 16 0
BBX 16 16 0 -2
BITMAP
0000
0000
0020
0010
0008
0004
0002
7fff
0002
0004
0008
0010
0020
0000
0000
0000
ENDCHAR
STARTCHAR a1f8
ENCODING 41464
SWIDTH 96 0
DWIDTH 16 0
BBX 16 16 0 -2
BITMAP
0000
0000
7f80
6000
5000
4800
4400
4200
4100
4080
0040
0020
0010
0000
0000
0000
ENDCHAR
STARTCHAR a1f9
ENCODING 41465
SWIDTH 96 0
DWIDTH 16 0
BBX 16 16 0 -2
BITMAP
0000
0000
00ff
0003
0005
0009
0011
0021
0041
0081
0100
0200
0400
0000
0000
0000
ENDCHAR
STARTCHAR a1fa
ENCODING 41466
SWIDTH 96 0
DWIDTH 16 0
BBX 16 16 0 -2
BITMAP
0000
0000
0010
0020
0040
4080
4100
4200
4400
4800
5000
6000
7f80
0000
0000
0000
ENDCHAR
STARTCHAR a1fb
ENCODING 41467
SWIDTH 96 0
DWIDTH 16 0
BBX 16 16 0 -2
BITMAP
0000
0000
0400
0200
0100
0081
0041
0021
0011
0009
0005
0003
00ff
0000
0000
0000
ENDCHAR
STARTCHAR a1fc
ENCODING 41468
SWIDTH 96 0
DWIDTH 16 0
BBX 16 16 0 -2
BITMAP
0000
0000
0410
0410
0410
0410
0410
0410
0410
0410
0410
0410
0410
0000
0000
0000
ENDCHAR
STARTCHAR a1fd
ENCODING 41469
SWIDTH 96 0
DWIDTH 16 0
BBX 16 16 0 -2
BITMAP
0000
0000
0080
0080
0080
0080
0080
0080
0080
0080
0080
0080
0080
0000
0000
0000
ENDCHAR
STARTCHAR a1fe
ENCODING 41470
SWIDTH 96 0
DWIDTH 16 0
BBX 16 16 0 -2
BITMAP
0000
0000
0004
0008
0010
0020
0040
0080
0100
0200
0400
0800
1000
0000
0000
0000
ENDCHAR
STARTCHAR a240
ENCODING 41536
SWIDTH 96 0
DWIDTH 16 0
BBX 16 16 0 -2
BITMAP
0000
0000
1000
0800
0400
0200
0100
0080
0040
0020
0010
0008
0004
0000
0000
0000
ENDCHAR
STARTCHAR a241
ENCODING 41537
SWIDTH 96 0
DWIDTH 16 0
BBX 16 16 0 -2
BITMAP
0000
0000
0020
0020
0040
0040
0080
0080
0100
0100
0200
0200
0400
0400
0000
0000
ENDCHAR
STARTCHAR a242
ENCODING 41538
SWIDTH 96 0
DWIDTH 16 0
BBX 16 16 0 -2
BITMAP
0000
0000
0100
0100
0080
0080
0040
0040
0020
0020
0010
0010
0008
0008
0000
0000
ENDCHAR
STARTCHAR a243
ENCODING 41539
SWIDTH 96 0
DWIDTH 16 0
BBX 16 16 0 -2
BITMAP
0000
0000
0080
03e0
0498
0880
0480
03f0
0088
0084
0c88
03f0
0080
0000
0000
0000
ENDCHAR
STARTCHAR a244
ENCODING 41540
SWIDTH 96 0
DWIDTH 16 0
BBX 16 16 0 -2
BITMAP
0000
0000
380e
0410
0220
0140
3ffe
0080
0080
3ffe
0080
0080
0080
01c0
0000
0000
ENDCHAR
STARTCHAR a245
ENCODING 41541
SWIDTH 96 0
DWIDTH 16 0
BBX 16 16 0 -2
BITMAP
0000
0000
1ffc
0000
0000
1ffc
0080
0080
0080
0080
0080
0080
0080
0000
0000
0000
ENDCHAR
STARTCHAR a246
ENCODING 41542
SWIDTH 96 0
DWIDTH 16 0
BBX 16 16 0 -2
BITMAP
0002
01f4
0208
0416
0826
1040
1080
2100
2200
2400
1810
1820
27c0
4000
0000
0000
ENDCHAR
STARTCHAR a247
ENCODING 41543
SWIDTH 96 0
DWIDTH 16 0
BBX 16 16 0 -2
BITMAP
0000
0030
0048
008c
0080
1ff8
0100
0100
1d00
2300
4280
4442
383c
0000
0000
0000
ENDCHAR
STARTCHAR a248
ENCODING 41544
SWIDTH 96 0
DWIDTH 16 0
BBX 16 16 0 -2
BITMAP
0000
0000
1e00
2108
2110
2120
1e40
0080
013c
0242
0442
0842
103c
2000
0000
0000
ENDCHAR
STARTCHAR a249
ENCODING 41545
SWIDTH 96 0
DWIDTH 16 0
BBX 16 16 0 -2
BITMAP
0000
0000
0ff0
1008
2004
43c2
4422
4812
4832
4452
438a
2006
1010
0fe0
0000
0000
ENDCHAR
STARTCHAR a24a
ENCODING 41546
SWIDTH 96 0
DWIDTH 16 0
BBX 16 16 0 -2
BITMAP
0000
0000
3800
4478
4484
3906
0100
0100
0100
0100
0106
0084
0078
0000
0000
0000
ENDCHAR
STARTCHAR a24b
ENCODING 41547
SWIDTH 96 0
DWIDTH 16 0
BBX 16 16 0 -2
BITMAP
3800
45ff
4483
3881
0080
0084
00fc
008c
0084
0080
0080
0080
0080
03e0
0000
0000
ENDCHAR
STARTCHAR a24c
ENCODING 41548
SWIDTH 96 0
DWIDTH 16 0
BBX 16 16 0 -2
BITMAP
0100
0100
07c0
0960
0960
0900
0780
0140
0520
0920
0920
07c0
0100
0100
0000
0000
ENDCHAR
STARTCHAR a24d
ENCODING 41549
SWIDTH 96 0
DWIDTH 16 0
BBX 16 16 0 -2
BITMAP
0000
0000
0008
0610
0920
1140
1280
0d60
0290
0510
0920
10c0
0000
0000
0000
0000
ENDCHAR
STARTCHAR a24e
ENCODING 41550
SWIDTH 96 0
DWIDTH 16 0
BBX 16 16 0 -2
BITMAP
0000
0000
03e0
0410
0990
0a50
0a50
0a50
09d0
0864
0408
03f0
0000
0000
0000
0000
ENDCHAR
STARTCHAR a24f
ENCODING 41551
SWIDTH 96 0
DWIDTH 16 0
BBX 16 16 0 -2
BITMAP
0000
0000
0002
0006
0002
0012
0002
5b12
24b2
2492
2492
2492
24b7
0000
0000
0000
ENDCHAR
STARTCHAR a250
ENCODING 41552
SWIDTH 96 0
DWIDTH 16 0
BBX 16 16 0 -2
BITMAP
0000
0000
0000
0000
0000
0000
3676
4949
4949
4949
4949
4949
4949
0000
0000
0000
ENDCHAR
STARTCHAR a251
ENCODING 41553
SWIDTH 96 0
DWIDTH 16 0
BBX 16 16 0 -2
BITMAP
0000
0000
0000
0000
0000
0080
1c76
2349
4049
4049
4149
2249
1c49
0000
0000
0000
ENDCHAR
STARTCHAR a252
ENCODING 41554
SWIDTH 96 0
DWIDTH 16 0
BBX 16 16 0 -2
BITMAP
0000
4000
4000
4000
4000
4080
4e76
4849
5049
6049
5049
4849
6649
0000
0000
0000
ENDCHAR
STARTCHAR a253
ENCODING 41555
SWIDTH 96 0
DWIDTH 16 0
BBX 16 16 0 -2
BITMAP
0000
0000
7141
2263
2463
2455
2855
3049
2841
2441
2441
2241
7141
0000
0000
0000
ENDCHAR
STARTCHAR a254
ENCODING 41556
SWIDTH 96 0
DWIDTH 16 0
BBX 16 16 0 -2
BITMAP
0000
0000
0006
0009
0001
0006
0008
5dcf
2220
2220
2220
2220
2220
0000
0000
0000
ENDCHAR
STARTCHAR a255
ENCODING 41557
SWIDTH 96 0
DWIDTH 16 0
BBX 16 16 0 -2
BITMAP
0000
0000
0000
3603
493c
4942
4942
493c
4920
493e
0041
0041
003e
0000
0000
0000
ENDCHAR
STARTCHAR a256
ENCODING 41558
SWIDTH 96 0
DWIDTH 16 0
BBX 16 16 0 -2
BITMAP
0000
2000
6000
2000
2183
223c
2442
3842
243c
2220
213e
73c1
003e
0000
0000
0000
ENDCHAR
STARTCHAR a257
ENCODING 41559
SWIDTH 96 0
DWIDTH 16 0
BBX 16 16 0 -2
BITMAP
0000
0000
0000
0000
0000
0000
1c1c
2323
4343
4040
4141
2222
1c1c
0000
0000
0000
ENDCHAR
STARTCHAR a258
ENCODING 41560
SWIDTH 96 0
DWIDTH 16 0
BBX 16 16 0 -2
BITMAP
0000
0000
1c00
2200
2200
2200
1c00
0000
0000
0000
0000
0000
0000
0000
0000
0000
ENDCHAR
STARTCHAR a259
ENCODING 41561
SWIDTH 96 0
DWIDTH 16 0
BBX 16 16 0 -2
BITMAP
0800
0808
7f08
0808
0808
7f08
417f
4108
7f08
1208
1208
1209
2201
43ff
0000
0000
ENDCHAR
STARTCHAR a25a
ENCODING 41562
SWIDTH 96 0
DWIDTH 16 0
BBX 16 16 0 -2
BITMAP
0800
0802
7f3c
0808
0808
7f08
417f
4108
7f08
1208
1208
1209
2201
43ff
0000
0000
ENDCHAR
STARTCHAR a25b
ENCODING 41563
SWIDTH 96 0
DWIDTH 16 0
BBX 16 16 0 -2
BITMAP
0800
0802
7f3c
0810
087e
7f10
4110
417e
7f10
1211
121f
1200
2201
43ff
0000
0000
ENDCHAR
STARTCHAR a25c
ENCODING 41564
SWIDTH 96 0
DWIDTH 16 0
BBX 16 16 0 -2
BITMAP
0800
0818
7f24
0842
0881
7f00
417f
4109
7f11
1221
1243
1200
2201
43ff
0000
0000
ENDCHAR
STARTCHAR a25d
ENCODING 41565
SWIDTH 96 0
DWIDTH 16 0
BBX 16 16 0 -2
BITMAP
0800
087f
7f08
0810
087f
7f41
4141
417f
7f41
1241
127f
1200
2201
43ff
0000
0000
ENDCHAR
STARTCHAR a25e
ENCODING 41566
SWIDTH 96 0
DWIDTH 16 0
BBX 16 16 0 -2
BITMAP
1000
11ff
7d00
117f
1149
7d7f
4549
457f
7d08
293e
2908
2a7f
2801
4fff
0000
0000
ENDCHAR
STARTCHAR a25f
ENCODING 41567
SWIDTH 96 0
DWIDTH 16 0
BBX 16 16 0 -2
BITMAP
0800
7f3e
0922
1122
673e
01c0
0220
0410
0ff8
1004
2ffa
4949
0ff8
0948
0000
0000
ENDCHAR
STARTCHAR a260
ENCODING 41568
SWIDTH 96 0
DWIDTH 16 0
BBX 16 16 0 -2
BITMAP
7f82
103c
1008
1008
7f88
1088
18ff
1488
1288
1088
1488
1889
1081
00ff
0000
0000
ENDCHAR
STARTCHAR a261
ENCODING 41569
SWIDTH 96 0
DWIDTH 16 0
BBX 16 16 0 -2
BITMAP
1000
11ff
1100
5500
397f
1149
7d7f
1149
317f
5908
1508
113e
1208
107f
0000
0000
ENDCHAR
STARTCHAR a262
ENCODING 41570
SWIDTH 96 0
DWIDTH 16 0
BBX 16 16 0 -2
BITMAP
0000
0000
0000
0000
0000
0000
0000
0000
0000
0000
0000
0000
0000
0000
ffff
0000
ENDCHAR
STARTCHAR a263
ENCODING 41571
SWIDTH 96 0
DWIDTH 16 0
BBX 16 16 0 -2
BITMAP
0000
0000
0000
0000
0000
0000
0000
0000
0000
0000
0000
0000
ffff
ffff
ffff
0000
ENDCHAR
STARTCHAR a264
ENCODING 41572
SWIDTH 96 0
DWIDTH 16 0
BBX 16 16 0 -2
BITMAP
0000
0000
0000
0000
0000
0000
0000
0000
0000
0000
ffff
ffff
ffff
ffff
ffff
0000
ENDCHAR
STARTCHAR a265
ENCODING 41573
SWIDTH 96 0
DWIDTH 16 0
BBX 16 16 0 -2
BITMAP
0000
0000
0000
0000
0000
0000
0000
0000
ffff
ffff
ffff
ffff
ffff
ffff
ffff
0000
ENDCHAR
STARTCHAR a266
ENCODING 41574
SWIDTH 96 0
DWIDTH 16 0
BBX 16 16 0 -2
BITMAP
0000
0000
0000
0000
0000
0000
ffff
ffff
ffff
ffff
ffff
ffff
ffff
ffff
ffff
0000
ENDCHAR
STARTCHAR a267
ENCODING 41575
SWIDTH 96 0
DWIDTH 16 0
BBX 16 16 0 -2
BITMAP
0000
0000
0000
0000
ffff
ffff
ffff
ffff
ffff
ffff
ffff
ffff
ffff
ffff
ffff
0000
ENDCHAR
STARTCHAR a268
ENCODING 41576
SWIDTH 96 0
DWIDTH 16 0
BBX 16 16 0 -2
BITMAP
0000
0000
ffff
ffff
ffff
ffff
ffff
ffff
ffff
ffff
ffff
ffff
ffff
ffff
ffff
0000
ENDCHAR
STARTCHAR a269
ENCODING 41577
SWIDTH 96 0
DWIDTH 16 0
BBX 16 16 0 -2
BITMAP
ffff
ffff
ffff
ffff
ffff
ffff
ffff
ffff
ffff
ffff
ffff
ffff
ffff
ffff
ffff
0000
ENDCHAR
STARTCHAR a26a
ENCODING 41578
SWIDTH 96 0
DWIDTH 16 0
BBX 16 16 0 -2
BITMAP
c000
c000
c000
c000
c000
c000
c000
c000
c000
c000
c000
c000
c000
c000
c000
0000
ENDCHAR
STARTCHAR a26b
ENCODING 41579
SWIDTH 96 0
DWIDTH 16 0
BBX 16 16 0 -2
BITMAP
f000
f000
f000
f000
f000
f000
f000
f000
f000
f000
f000
f000
f000
f000
f000
0000
ENDCHAR
STARTCHAR a26c
ENCODING 41580
SWIDTH 96 0
DWIDTH 16 0
BBX 16 16 0 -2
BITMAP
fc00
fc00
fc00
fc00
fc00
fc00
fc00
fc00
fc00
fc00
fc00
fc00
fc00
fc00
fc00
0000
ENDCHAR
STARTCHAR a26d
ENCODING 41581
SWIDTH 96 0
DWIDTH 16 0
BBX 16 16 0 -2
BITMAP
ff00
ff00
ff00
ff00
ff00
ff00
ff00
ff00
ff00
ff00
ff00
ff00
ff00
ff00
ff00
0000
ENDCHAR
STARTCHAR a26e
ENCODING 41582
SWIDTH 96 0
DWIDTH 16 0
BBX 16 16 0 -2
BITMAP
ffc0
ffc0
ffc0
ffc0
ffc0
ffc0
ffc0
ffc0
ffc0
ffc0
ffc0
ffc0
ffc0
ffc0
ffc0
0000
ENDCHAR
STARTCHAR a26f
ENCODING 41583
SWIDTH 96 0
DWIDTH 16 0
BBX 16 16 0 -2
BITMAP
fff0
fff0
fff0
fff0
fff0
fff0
fff0
fff0
fff0
fff0
fff0
fff0
fff0
fff0
fff0
0000
ENDCHAR
STARTCHAR a270
ENCODING 41584
SWIDTH 96 0
DWIDTH 16 0
BBX 16 16 0 -2
BITMAP
fffc
fffc
fffc
fffc
fffc
fffc
fffc
fffc
fffc
fffc
fffc
fffc
fffc
fffc
fffc
0000
ENDCHAR
STARTCHAR a271
ENCODING 41585
SWIDTH 96 0
DWIDTH 16 0
BBX 16 16 0 -2
BITMAP
0080
0080
0080
0080
0080
0080
0080
ffff
0080
0080
0080
0080
0080
0080
0080
0000
ENDCHAR
STARTCHAR a272
ENCODING 41586
SWIDTH 96 0
DWIDTH 16 0
BBX 16 16 0 -2
BITMAP
0080
0080
0080
0080
0080
0080
0080
ffff
0000
0000
0000
0000
0000
0000
0000
0000
ENDCHAR
STARTCHAR a273
ENCODING 41587
SWIDTH 96 0
DWIDTH 16 0
BBX 16 16 0 -2
BITMAP
0000
0000
0000
0000
0000
0000
0000
ffff
0080
0080
0080
0080
0080
0080
0080
0000
ENDCHAR
STARTCHAR a274
ENCODING 41588
SWIDTH 96 0
DWIDTH 16 0
BBX 16 16 0 -2
BITMAP
0080
0080
0080
0080
0080
0080
0080
ff80
0080
0080
0080
0080
0080
0080
0080
0000
ENDCHAR
STARTCHAR a275
ENCODING 41589
SWIDTH 96 0
DWIDTH 16 0
BBX 16 16 0 -2
BITMAP
0080
0080
0080
0080
0080
0080
0080
00ff
0080
0080
0080
0080
0080
0080
0080
0000
ENDCHAR
STARTCHAR a276
ENCODING 41590
SWIDTH 96 0
DWIDTH 16 0
BBX 16 16 0 -2
BITMAP
ffff
ffff
0000
0000
0000
0000
0000
0000
0000
0000
0000
0000
0000
0000
0000
0000
ENDCHAR
STARTCHAR a277
ENCODING 41591
SWIDTH 96 0
DWIDTH 16 0
BBX 16 16 0 -2
BITMAP
0000
0000
0000
0000
0000
0000
0000
ffff
0000
0000
0000
0000
0000
0000
0000
0000
ENDCHAR
STARTCHAR a278
ENCODING 41592
SWIDTH 96 0
DWIDTH 16 0
BBX 16 16 0 -2
BITMAP
0080
0080
0080
0080
0080
0080
0080
0080
0080
0080
0080
0080
0080
0080
0080
0000
ENDCHAR
STARTCHAR a279
ENCODING 41593
SWIDTH 96 0
DWIDTH 16 0
BBX 16 16 0 -2
BITMAP
0003
0003
0003
0003
0003
0003
0003
0003
0003
0003
0003
0003
0003
0003
0003
0000
ENDCHAR
STARTCHAR a27a
ENCODING 41594
SWIDTH 96 0
DWIDTH 16 0
BBX 16 16 0 -2
BITMAP
0000
0000
0000
0000
0000
0000
0000
00ff
0080
0080
0080
0080
0080
0080
0080
0000
ENDCHAR
STARTCHAR a27b
ENCODING 41595
SWIDTH 96 0
DWIDTH 16 0
BBX 16 16 0 -2
BITMAP
0000
0000
0000
0000
0000
0000
0000
ff80
0080
0080
0080
0080
0080
0080
0080
0000
ENDCHAR
STARTCHAR a27c
ENCODING 41596
SWIDTH 96 0
DWIDTH 16 0
BBX 16 16 0 -2
BITMAP
0080
0080
0080
0080
0080
0080
0080
00ff
0000
0000
0000
0000
0000
0000
0000
0000
ENDCHAR
STARTCHAR a27d
ENCODING 41597
SWIDTH 96 0
DWIDTH 16 0
BBX 16 16 0 -2
BITMAP
0080
0080
0080
0080
0080
0080
0080
ff80
0000
0000
0000
0000
0000
0000
0000
0000
ENDCHAR
STARTCHAR a27e
ENCODING 41598
SWIDTH 96 0
DWIDTH 16 0
BBX 16 16 0 -2
BITMAP
0000
0000
0000
0000
0000
0000
0000
0007
0018
0020
0040
0040
0080
0080
0080
0000
ENDCHAR
STARTCHAR a2a1
ENCODING 41633
SWIDTH 96 0
DWIDTH 16 0
BBX 16 16 0 -2
BITMAP
0000
0000
0000
0000
0000
0000
0000
f000
0c00
0200
0100
0100
0080
0080
0080
0000
ENDCHAR
STARTCHAR a2a2
ENCODING 41634
SWIDTH 96 0
DWIDTH 16 0
BBX 16 16 0 -2
BITMAP
0080
0080
0080
0040
0040
0020
0018
0007
0000
0000
0000
0000
0000
0000
0000
0000
ENDCHAR
STARTCHAR a2a3
ENCODING 41635
SWIDTH 96 0
DWIDTH 16 0
BBX 16 16 0 -2
BITMAP
0080
0080
0080
0100
0100
0200
0c00
f000
0000
0000
0000
0000
0000
0000
0000
0000
ENDCHAR
STARTCHAR a2a4
ENCODING 41636
SWIDTH 96 0
DWIDTH 16 0
BBX 16 16 0 -2
BITMAP
0000
0000
0000
0000
0000
ffff
0000
0000
0000
0000
ffff
0000
0000
0000
0000
0000
ENDCHAR
STARTCHAR a2a5
ENCODING 41637
SWIDTH 96 0
DWIDTH 16 0
BBX 16 16 0 -2
BITMAP
0080
0080
0080
0080
0080
00ff
0080
0080
0080
0080
00ff
0080
0080
0080
0080
0000
ENDCHAR
STARTCHAR a2a6
ENCODING 41638
SWIDTH 96 0
DWIDTH 16 0
BBX 16 16 0 -2
BITMAP
0080
0080
0080
0080
0080
ffff
0080
0080
0080
0080
ffff
0080
0080
0080
0080
0000
ENDCHAR
STARTCHAR a2a7
ENCODING 41639
SWIDTH 96 0
DWIDTH 16 0
BBX 16 16 0 -2
BITMAP
0080
0080
0080
0080
0080
ff80
0080
0080
0080
0080
ff80
0080
0080
0080
0080
0000
ENDCHAR
STARTCHAR a2a8
ENCODING 41640
SWIDTH 96 0
DWIDTH 16 0
BBX 16 16 0 -2
BITMAP
0001
0003
0007
000f
001f
003f
007f
00ff
01ff
03ff
07ff
0fff
1fff
3fff
7fff
0000
ENDCHAR
STARTCHAR a2a9
ENCODING 41641
SWIDTH 96 0
DWIDTH 16 0
BBX 16 16 0 -2
BITMAP
8000
c000
e000
f000
f800
fc00
fe00
ff00
ff80
ffc0
ffe0
fff0
fff8
fffc
fffe
0000
ENDCHAR
STARTCHAR a2aa
ENCODING 41642
SWIDTH 96 0
DWIDTH 16 0
BBX 16 16 0 -2
BITMAP
ffff
7fff
3fff
1fff
0fff
07ff
03ff
01ff
00ff
007f
003f
001f
000f
0007
0003
0000
ENDCHAR
STARTCHAR a2ab
ENCODING 41643
SWIDTH 96 0
DWIDTH 16 0
BBX 16 16 0 -2
BITMAP
ffff
fffe
fffc
fff8
fff0
ffe0
ffc0
ff80
ff00
fe00
fc00
f800
f000
e000
c000
0000
ENDCHAR
STARTCHAR a2ac
ENCODING 41644
SWIDTH 96 0
DWIDTH 16 0
BBX 16 16 0 -2
BITMAP
0001
0002
0004
0008
0010
0020
0040
0080
0100
0200
0400
0800
1000
2000
4000
0000
ENDCHAR
STARTCHAR a2ad
ENCODING 41645
SWIDTH 96 0
DWIDTH 16 0
BBX 16 16 0 -2
BITMAP
8000
4000
2000
1000
0800
0400
0200
0100
0080
0040
0020
0010
0008
0004
0002
0000
ENDCHAR
STARTCHAR a2ae
ENCODING 41646
SWIDTH 96 0
DWIDTH 16 0
BBX 16 16 0 -2
BITMAP
8001
4002
2004
1008
0810
0420
0240
0180
0180
0240
0420
0810
1008
2004
4002
0000
ENDCHAR
STARTCHAR a2af
ENCODING 41647
SWIDTH 96 0
DWIDTH 16 0
BBX 16 16 0 -2
BITMAP
0000
07f0
0c18
180c
180c
180c
180c
180c
180c
180c
180c
180c
0c18
07f0
0000
0000
ENDCHAR
STARTCHAR a2b0
ENCODING 41648
SWIDTH 96 0
DWIDTH 16 0
BBX 16 16 0 -2
BITMAP
0000
0180
0380
0780
0180
0180
0180
0180
0180
0180
0180
0180
0180
0ff0
0000
0000
ENDCHAR
STARTCHAR a2b1
ENCODING 41649
SWIDTH 96 0
DWIDTH 16 0
BBX 16 16 0 -2
BITMAP
0000
07f0
0c18
180c
180c
181c
0038
00e0
0180
0700
0c00
1804
180c
1ffc
0000
0000
ENDCHAR
STARTCHAR a2b2
ENCODING 41650
SWIDTH 96 0
DWIDTH 16 0
BBX 16 16 0 -2
BITMAP
0000
07f0
0c18
180c
180c
000c
0038
01e0
0038
000c
180c
180c
0c18
07f0
0000
0000
ENDCHAR
STARTCHAR a2b3
ENCODING 41651
SWIDTH 96 0
DWIDTH 16 0
BBX 16 16 0 -2
BITMAP
0000
0030
0070
00f0
01b0
0330
0630
0c30
1830
3030
7ffe
0030
0030
00fc
0000
0000
ENDCHAR
STARTCHAR a2b4
ENCODING 41652
SWIDTH 96 0
DWIDTH 16 0
BBX 16 16 0 -2
BITMAP
0000
1ff8
1800
1800
1800
1bf0
1e18
1c0c
000c
000c
000c
180c
0c18
07f0
0000
0000
ENDCHAR
STARTCHAR a2b5
ENCODING 41653
SWIDTH 96 0
DWIDTH 16 0
BBX 16 16 0 -2
BITMAP
0000
07f0
0c18
1818
1800
1800
1bf0
1e18
180c
180c
180c
180c
0c18
07f0
0000
0000
ENDCHAR
STARTCHAR a2b6
ENCODING 41654
SWIDTH 96 0
DWIDTH 16 0
BBX 16 16 0 -2
BITMAP
0000
1ffc
100c
100c
0018
0030
0060
00c0
0180
0180
0180
0180
0180
0180
0000
0000
ENDCHAR
STARTCHAR a2b7
ENCODING 41655
SWIDTH 96 0
DWIDTH 16 0
BBX 16 16 0 -2
BITMAP
0000
07e0
0c30
1818
1818
0c30
07e0
1c38
300c
300c
300c
300c
1c38
07e0
0000
0000
ENDCHAR
STARTCHAR a2b8
ENCODING 41656
SWIDTH 96 0
DWIDTH 16 0
BBX 16 16 0 -2
BITMAP
0000
07e0
0c30
1818
180c
180c
181c
0c3c
07ec
000c
1818
1c18
0c30
07e0
0000
0000
ENDCHAR
STARTCHAR a2b9
ENCODING 41657
SWIDTH 96 0
DWIDTH 16 0
BBX 16 16 0 -2
BITMAP
0000
0000
03e0
0080
0080
0080
0080
0080
0080
0080
0080
0080
03e0
0000
0000
0000
ENDCHAR
STARTCHAR a2ba
ENCODING 41658
SWIDTH 96 0
DWIDTH 16 0
BBX 16 16 0 -2
BITMAP
0000
0000
0ff8
0220
0220
0220
0220
0220
0220
0220
0220
0220
0ff8
0000
0000
0000
ENDCHAR
STARTCHAR a2bb
ENCODING 41659
SWIDTH 96 0
DWIDTH 16 0
BBX 16 16 0 -2
BITMAP
0000
0000
1ffc
0490
0490
0490
0490
0490
0490
0490
0490
0490
1ffc
0000
0000
0000
ENDCHAR
STARTCHAR a2bc
ENCODING 41660
SWIDTH 96 0
DWIDTH 16 0
BBX 16 16 0 -2
BITMAP
0000
0000
7707
2202
2202
2104
2104
2088
2088
2050
2050
2020
7020
0000
0000
0000
ENDCHAR
STARTCHAR a2bd
ENCODING 41661
SWIDTH 96 0
DWIDTH 16 0
BBX 16 16 0 -2
BITMAP
0000
0000
380e
1004
1004
0808
0808
0410
0410
0220
0220
0140
0080
0080
0000
0000
ENDCHAR
STARTCHAR a2be
ENCODING 41662
SWIDTH 96 0
DWIDTH 16 0
BBX 16 16 0 -2
BITMAP
0000
0000
7077
2022
2022
1042
1042
0882
0882
0502
0502
0202
0207
0000
0000
0000
ENDCHAR
STARTCHAR a2bf
ENCODING 41663
SWIDTH 96 0
DWIDTH 16 0
BBX 16 16 0 -2
BITMAP
0000
0000
71df
208a
208a
110a
110a
0a0a
0a0a
0a0a
040a
040a
041f
0000
0000
0000
ENDCHAR
STARTCHAR a2c0
ENCODING 41664
SWIDTH 96 0
DWIDTH 16 0
BBX 16 16 0 -2
BITMAP
0000
0000
71ff
20aa
20aa
112a
112a
0a2a
0a2a
0a2a
042a
042a
047f
0000
0000
0000
ENDCHAR
STARTCHAR a2c1
ENCODING 41665
SWIDTH 96 0
DWIDTH 16 0
BBX 16 16 0 -2
BITMAP
0000
0000
770e
2204
2108
2090
2090
2060
2060
2090
2090
2108
2204
770e
0000
0000
ENDCHAR
STARTCHAR a2c2
ENCODING 41666
SWIDTH 96 0
DWIDTH 16 0
BBX 16 16 0 -2
BITMAP
0000
0000
7007
0808
0410
0220
0140
0080
0080
0140
0220
0410
0808
7007
0000
0000
ENDCHAR
STARTCHAR a2c3
ENCODING 41667
SWIDTH 96 0
DWIDTH 16 0
BBX 16 16 0 -2
BITMAP
0000
0000
0000
0080
0080
0080
0080
0080
0080
0080
0080
0080
0100
0000
0000
0000
ENDCHAR
STARTCHAR a2c4
ENCODING 41668
SWIDTH 96 0
DWIDTH 16 0
BBX 16 16 0 -2
BITMAP
0000
0000
0020
0420
0420
0420
0420
0420
0420
0420
0820
0020
0020
0000
0000
0000
ENDCHAR
STARTCHAR a2c5
ENCODING 41669
SWIDTH 96 0
DWIDTH 16 0
BBX 16 16 0 -2
BITMAP
0000
0000
0008
0008
0888
0888
0888
0888
0888
0888
0888
1088
0008
0008
0000
0000
ENDCHAR
STARTCHAR a2c6
ENCODING 41670
SWIDTH 96 0
DWIDTH 16 0
BBX 16 16 0 -2
BITMAP
0000
3006
180c
0c18
0630
0360
01c0
01c0
0360
0630
0c18
180c
3006
0000
0000
0000
ENDCHAR
STARTCHAR a2c7
ENCODING 41671
SWIDTH 96 0
DWIDTH 16 0
BBX 16 16 0 -2
BITMAP
0000
0000
0200
0400
0410
0220
0140
0080
0140
0220
0410
0808
0410
03e0
0000
0000
ENDCHAR
STARTCHAR a2c8
ENCODING 41672
SWIDTH 96 0
DWIDTH 16 0
BBX 16 16 0 -2
BITMAP
0000
0000
0080
0080
0080
0ff8
0000
0000
0000
0000
0000
0000
0000
0000
0000
0000
ENDCHAR
STARTCHAR a2c9
ENCODING 41673
SWIDTH 96 0
DWIDTH 16 0
BBX 16 16 0 -2
BITMAP
0000
0000
0080
0080
0080
0ff8
0000
0000
0ff8
0000
0000
0000
0000
0000
0000
0000
ENDCHAR
STARTCHAR a2ca
ENCODING 41674
SWIDTH 96 0
DWIDTH 16 0
BBX 16 16 0 -2
BITMAP
0000
0000
0080
0080
0080
0ff8
0000
0000
0ff8
0000
0000
0ff8
0000
0000
0000
0000
ENDCHAR
STARTCHAR a2cb
ENCODING 41675
SWIDTH 96 0
DWIDTH 16 0
BBX 16 16 0 -2
BITMAP
0000
0000
0400
0800
1ff8
0008
0410
0220
0140
0080
0140
0220
0410
0808
0000
0000
ENDCHAR
STARTCHAR a2cc
ENCODING 41676
SWIDTH 96 0
DWIDTH 16 0
BBX 16 16 0 -2
BITMAP
0000
0000
0080
0080
0080
0080
0ff8
0080
0080
0080
0080
0080
0100
0000
0000
0000
ENDCHAR
STARTCHAR a2cd
ENCODING 41677
SWIDTH 96 0
DWIDTH 16 0
BBX 16 16 0 -2
BITMAP
0000
0000
0020
0220
0220
0220
1ffc
0220
0220
0220
0220
0420
0020
0000
0000
0000
ENDCHAR
STARTCHAR a2ce
ENCODING 41678
SWIDTH 96 0
DWIDTH 16 0
BBX 16 16 0 -2
BITMAP
0000
0000
0010
0490
0490
0490
3ffe
0490
0490
0490
0490
0890
0010
0000
0000
0000
ENDCHAR
STARTCHAR a2cf
ENCODING 41679
SWIDTH 96 0
DWIDTH 16 0
BBX 16 16 0 -2
BITMAP
0000
0180
03c0
03c0
0660
0660
0c30
0c30
0ff0
1818
1818
300c
300c
781e
0000
0000
ENDCHAR
STARTCHAR a2d0
ENCODING 41680
SWIDTH 96 0
DWIDTH 16 0
BBX 16 16 0 -2
BITMAP
0000
1fe0
0c30
0c18
0c18
0c18
0c30
0fe0
0c30
0c18
0c0c
0c0c
0c18
1ff0
0000
0000
ENDCHAR
STARTCHAR a2d1
ENCODING 41681
SWIDTH 96 0
DWIDTH 16 0
BBX 16 16 0 -2
BITMAP
0000
07e4
0c34
181c
300c
3004
3000
3000
3000
3004
300c
1818
0c30
07e0
0000
0000
ENDCHAR
STARTCHAR a2d2
ENCODING 41682
SWIDTH 96 0
DWIDTH 16 0
BBX 16 16 0 -2
BITMAP
0000
3fe0
1830
1818
180c
180c
180c
180c
180c
180c
180c
1818
1830
3fe0
0000
0000
ENDCHAR
STARTCHAR a2d3
ENCODING 41683
SWIDTH 96 0
DWIDTH 16 0
BBX 16 16 0 -2
BITMAP
0000
1ff8
0c18
0c08
0c00
0c00
0c40
0fc0
0c40
0c00
0c00
0c08
0c18
1ff8
0000
0000
ENDCHAR
STARTCHAR a2d4
ENCODING 41684
SWIDTH 96 0
DWIDTH 16 0
BBX 16 16 0 -2
BITMAP
0000
1ff8
0c18
0c08
0c00
0c00
0c40
0fc0
0c40
0c00
0c00
0c00
0c00
1e00
0000
0000
ENDCHAR
STARTCHAR a2d5
ENCODING 41685
SWIDTH 96 0
DWIDTH 16 0
BBX 16 16 0 -2
BITMAP
0000
07e8
0c38
1818
3008
3008
3000
3000
303c
3018
3018
1838
0c78
07d8
0000
0000
ENDCHAR
STARTCHAR a2d6
ENCODING 41686
SWIDTH 96 0
DWIDTH 16 0
BBX 16 16 0 -2
BITMAP
0000
3c3c
1818
1818
1818
1818
1818
1ff8
1818
1818
1818
1818
1818
3c3c
0000
0000
ENDCHAR
STARTCHAR a2d7
ENCODING 41687
SWIDTH 96 0
DWIDTH 16 0
BBX 16 16 0 -2
BITMAP
0000
07e0
0180
0180
0180
0180
0180
0180
0180
0180
0180
0180
0180
07e0
0000
0000
ENDCHAR
STARTCHAR a2d8
ENCODING 41688
SWIDTH 96 0
DWIDTH 16 0
BBX 16 16 0 -2
BITMAP
0000
00f8
0030
0030
0030
0030
0030
0030
0030
1830
1830
1830
0c60
07c0
0000
0000
ENDCHAR
STARTCHAR a2d9
ENCODING 41689
SWIDTH 96 0
DWIDTH 16 0
BBX 16 16 0 -2
BITMAP
0000
3c7c
1830
1860
18c0
1980
1b00
1f00
1980
18c0
1860
1830
1818
3c3e
0000
0000
ENDCHAR
STARTCHAR a2da
ENCODING 41690
SWIDTH 96 0
DWIDTH 16 0
BBX 16 16 0 -2
BITMAP
0000
1e00
0c00
0c00
0c00
0c00
0c00
0c00
0c00
0c00
0c04
0c0c
0c1c
1ffc
0000
0000
ENDCHAR
STARTCHAR a2db
ENCODING 41691
SWIDTH 96 0
DWIDTH 16 0
BBX 16 16 0 -2
BITMAP
0000
780f
380e
3c1e
3c1e
3636
3636
3226
3366
3366
31c6
31c6
3086
781f
0000
0000
ENDCHAR
STARTCHAR a2dc
ENCODING 41692
SWIDTH 96 0
DWIDTH 16 0
BBX 16 16 0 -2
BITMAP
0000
701e
380c
3c0c
3e0c
370c
338c
31cc
30ec
307c
303c
301c
300c
781e
0000
0000
ENDCHAR
STARTCHAR a2dd
ENCODING 41693
SWIDTH 96 0
DWIDTH 16 0
BBX 16 16 0 -2
BITMAP
0000
0ff0
1c38
381c
300c
300c
300c
300c
300c
300c
300c
381c
1c38
0ff0
0000
0000
ENDCHAR
STARTCHAR a2de
ENCODING 41694
SWIDTH 96 0
DWIDTH 16 0
BBX 16 16 0 -2
BITMAP
0000
1fe0
0c38
0c1c
0c0c
0c0c
0c1c
0c38
0fe0
0c00
0c00
0c00
0c00
1e00
0000
0000
ENDCHAR
STARTCHAR a2df
ENCODING 41695
SWIDTH 96 0
DWIDTH 16 0
BBX 16 16 0 -2
BITMAP
0000
0fc0
3870
7038
6018
6018
6018
6018
6018
6018
6798
70f8
3873
0ffe
0000
0000
ENDCHAR
STARTCHAR a2e0
ENCODING 41696
SWIDTH 96 0
DWIDTH 16 0
BBX 16 16 0 -2
BITMAP
0000
3ff0
1818
180c
180c
180c
1818
1ff0
1980
18c0
1860
1830
1818
3c1e
0000
0000
ENDCHAR
STARTCHAR a2e1
ENCODING 41697
SWIDTH 96 0
DWIDTH 16 0
BBX 16 16 0 -2
BITMAP
0000
07e8
0c38
1818
1808
0c00
0700
01c0
0070
1018
180c
1c0c
1618
13f0
0000
0000
ENDCHAR
STARTCHAR a2e2
ENCODING 41698
SWIDTH 96 0
DWIDTH 16 0
BBX 16 16 0 -2
BITMAP
0000
3ffc
399c
318c
2184
0180
0180
0180
0180
0180
0180
0180
0180
03c0
0000
0000
ENDCHAR
STARTCHAR a2e3
ENCODING 41699
SWIDTH 96 0
DWIDTH 16 0
BBX 16 16 0 -2
BITMAP
0000
3c3c
1818
1818
1818
1818
1818
1818
1818
1818
1818
1818
0e70
07e0
0000
0000
ENDCHAR
STARTCHAR a2e4
ENCODING 41700
SWIDTH 96 0
DWIDTH 16 0
BBX 16 16 0 -2
BITMAP
0000
783c
3018
3018
3018
3018
3018
3018
3018
1830
0c60
06c0
0380
0100
0000
0000
ENDCHAR
STARTCHAR a2e5
ENCODING 41701
SWIDTH 96 0
DWIDTH 16 0
BBX 16 16 0 -2
BITMAP
0000
71c7
2082
2082
31c6
11c6
1144
1b6c
1b6c
0a28
0e38
0410
0410
0410
0000
0000
ENDCHAR
STARTCHAR a2e6
ENCODING 41702
SWIDTH 96 0
DWIDTH 16 0
BBX 16 16 0 -2
BITMAP
0000
7c1f
180c
0c18
0630
0220
0360
01c0
01c0
0360
0630
0c18
180c
7c1f
0000
0000
ENDCHAR
STARTCHAR a2e7
ENCODING 41703
SWIDTH 96 0
DWIDTH 16 0
BBX 16 16 0 -2
BITMAP
0000
781e
300c
1818
0c30
0660
03c0
0180
0180
0180
0180
0180
0180
03c0
0000
0000
ENDCHAR
STARTCHAR a2e8
ENCODING 41704
SWIDTH 96 0
DWIDTH 16 0
BBX 16 16 0 -2
BITMAP
0000
1ffc
180c
1018
0030
0060
00c0
0180
0300
0600
0c00
1804
300c
3ffc
0000
0000
ENDCHAR
STARTCHAR a2e9
ENCODING 41705
SWIDTH 96 0
DWIDTH 16 0
BBX 16 16 0 -2
BITMAP
0000
0000
0000
0000
0000
0fc0
1860
0060
07e0
0c60
1860
18e8
0fb8
0000
0000
0000
ENDCHAR
STARTCHAR a2ea
ENCODING 41706
SWIDTH 96 0
DWIDTH 16 0
BBX 16 16 0 -2
BITMAP
0000
1c00
0c00
0c00
0c00
0c00
0fe0
0e30
0c18
0c18
0c18
0e30
1fe0
0000
0000
0000
ENDCHAR
STARTCHAR a2eb
ENCODING 41707
SWIDTH 96 0
DWIDTH 16 0
BBX 16 16 0 -2
BITMAP
0000
0000
0000
0000
0000
07e0
0c30
1800
1800
1800
1800
0c30
07e0
0000
0000
0000
ENDCHAR
STARTCHAR a2ec
ENCODING 41708
SWIDTH 96 0
DWIDTH 16 0
BBX 16 16 0 -2
BITMAP
0000
0038
0018
0018
0018
0018
07d8
0c78
1818
1818
1818
0c78
07d8
0000
0000
0000
ENDCHAR
STARTCHAR a2ed
ENCODING 41709
SWIDTH 96 0
DWIDTH 16 0
BBX 16 16 0 -2
BITMAP
0000
0000
0000
0000
0000
07e0
0c30
1818
1ff8
1800
1800
0c18
07f0
0000
0000
0000
ENDCHAR
STARTCHAR a2ee
ENCODING 41710
SWIDTH 96 0
DWIDTH 16 0
BBX 16 16 0 -2
BITMAP
0000
01e0
0330
0330
0300
0300
1fe0
0300
0300
0300
0300
0300
0780
0000
0000
0000
ENDCHAR
STARTCHAR a2ef
ENCODING 41711
SWIDTH 96 0
DWIDTH 16 0
BBX 16 16 0 -2
BITMAP
0000
0000
0000
0000
07d8
0c70
0c60
0c60
07c0
07c0
0c60
1830
1830
0c60
07c0
0000
ENDCHAR
STARTCHAR a2f0
ENCODING 41712
SWIDTH 96 0
DWIDTH 16 0
BBX 16 16 0 -2
BITMAP
0000
1c00
0c00
0c00
0c00
0c00
0de0
0f30
0e18
0c18
0c18
0c18
1e3c
0000
0000
0000
ENDCHAR
STARTCHAR a2f1
ENCODING 41713
SWIDTH 96 0
DWIDTH 16 0
BBX 16 16 0 -2
BITMAP
0000
0000
0180
0180
0000
0000
0380
0180
0180
0180
0180
0180
03c0
0000
0000
0000
ENDCHAR
STARTCHAR a2f2
ENCODING 41714
SWIDTH 96 0
DWIDTH 16 0
BBX 16 16 0 -2
BITMAP
0000
0000
00c0
00c0
0000
0000
01c0
00c0
00c0
00c0
00c0
0cc0
0cc0
0cc0
0780
0000
ENDCHAR
STARTCHAR a2f3
ENCODING 41715
SWIDTH 96 0
DWIDTH 16 0
BBX 16 16 0 -2
BITMAP
0000
1c00
0c00
0c00
0c00
0cf8
0c60
0cc0
0d80
0fc0
0e60
0c30
1e7c
0000
0000
0000
ENDCHAR
STARTCHAR a2f4
ENCODING 41716
SWIDTH 96 0
DWIDTH 16 0
BBX 16 16 0 -2
BITMAP
0000
0380
0180
0180
0180
0180
0180
0180
0180
0180
0180
0180
03c0
0000
0000
0000
ENDCHAR
STARTCHAR a2f5
ENCODING 41717
SWIDTH 96 0
DWIDTH 16 0
BBX 16 16 0 -2
BITMAP
0000
0000
0000
0000
0000
6f78
39cc
318c
318c
318c
318c
318c
79ce
0000
0000
0000
ENDCHAR
STARTCHAR a2f6
ENCODING 41718
SWIDTH 96 0
DWIDTH 16 0
BBX 16 16 0 -2
BITMAP
0000
0000
0000
0000
0000
1be0
0e30
0c30
0c30
0c30
0c30
0c30
1e78
0000
0000
0000
ENDCHAR
STARTCHAR a2f7
ENCODING 41719
SWIDTH 96 0
DWIDTH 16 0
BBX 16 16 0 -2
BITMAP
0000
0000
0000
0000
0000
07e0
0c30
1818
1818
1818
1818
0c30
07e0
0000
0000
0000
ENDCHAR
STARTCHAR a2f8
ENCODING 41720
SWIDTH 96 0
DWIDTH 16 0
BBX 16 16 0 -2
BITMAP
0000
0000
0000
0000
0000
1be0
0e30
0c18
0c18
0c18
0e30
0fe0
0c00
0c00
1e00
0000
ENDCHAR
STARTCHAR a2f9
ENCODING 41721
SWIDTH 96 0
DWIDTH 16 0
BBX 16 16 0 -2
BITMAP
0000
0000
0000
0000
0000
07c0
0c70
1830
1830
1830
0c70
07f0
0030
0030
0078
0000
ENDCHAR
STARTCHAR a2fa
ENCODING 41722
SWIDTH 96 0
DWIDTH 16 0
BBX 16 16 0 -2
BITMAP
0000
0000
0000
0000
0000
0de0
0770
0630
0600
0600
0600
0600
0f00
0000
0000
0000
ENDCHAR
STARTCHAR a2fb
ENCODING 41723
SWIDTH 96 0
DWIDTH 16 0
BBX 16 16 0 -2
BITMAP
0000
0000
0000
0000
07e0
0c70
0c10
0700
0180
00e0
0830
0c30
07e0
0000
0000
0000
ENDCHAR
STARTCHAR a2fc
ENCODING 41724
SWIDTH 96 0
DWIDTH 16 0
BBX 16 16 0 -2
BITMAP
0000
0300
0300
0300
1fe0
0300
0300
0300
0300
0330
0370
03e0
01c0
0000
0000
0000
ENDCHAR
STARTCHAR a2fd
ENCODING 41725
SWIDTH 96 0
DWIDTH 16 0
BBX 16 16 0 -2
BITMAP
0000
0000
0000
0000
0000
1c70
0c30
0c30
0c30
0c30
0c30
0c70
07dc
0000
0000
0000
ENDCHAR
STARTCHAR a2fe
ENCODING 41726
SWIDTH 96 0
DWIDTH 16 0
BBX 16 16 0 -2
BITMAP
0000
0000
0000
0000
0000
1e3c
0c18
0630
0630
0360
0360
01c0
01c0
0080
0000
0000
ENDCHAR
STARTCHAR a340
ENCODING 41792
SWIDTH 96 0
DWIDTH 16 0
BBX 16 16 0 -2
BITMAP
0000
0000
0000
0000
0000
7bde
318c
318c
318c
3bdc
1ff8
0e70
0420
0000
0000
0000
ENDCHAR
STARTCHAR a341
ENCODING 41793
SWIDTH 96 0
DWIDTH 16 0
BBX 16 16 0 -2
BITMAP
0000
0000
0000
0000
0000
3e7c
0c30
0660
03c0
03c0
0660
0c30
3e7c
0000
0000
0000
ENDCHAR
STARTCHAR a342
ENCODING 41794
SWIDTH 96 0
DWIDTH 16 0
BBX 16 16 0 -2
BITMAP
0000
0000
0000
0000
0000
1e3c
0c18
0630
0330
01e0
00e0
00c0
1980
1b80
0f00
0000
ENDCHAR
STARTCHAR a343
ENCODING 41795
SWIDTH 96 0
DWIDTH 16 0
BBX 16 16 0 -2
BITMAP
0000
0000
0000
0000
0ff0
0c30
0860
00c0
0180
0300
0608
0c18
0ff8
0000
0000
0000
ENDCHAR
STARTCHAR a344
ENCODING 41796
SWIDTH 96 0
DWIDTH 16 0
BBX 16 16 0 -2
BITMAP
0080
01c0
01c0
0360
0360
0360
0630
0630
07f0
0c18
0c18
180c
180c
3c1e
0000
0000
ENDCHAR
STARTCHAR a345
ENCODING 41797
SWIDTH 96 0
DWIDTH 16 0
BBX 16 16 0 -2
BITMAP
1fe0
0c70
0c18
0c18
0c18
0c30
0fe0
0c30
0c18
0c0c
0c0c
0c0c
0c18
1ff0
0000
0000
ENDCHAR
STARTCHAR a346
ENCODING 41798
SWIDTH 96 0
DWIDTH 16 0
BBX 16 16 0 -2
BITMAP
1ffc
0c1c
0c0c
0c04
0c00
0c00
0c00
0c00
0c00
0c00
0c00
0c00
0c00
1e00
0000
0000
ENDCHAR
STARTCHAR a347
ENCODING 41799
SWIDTH 96 0
DWIDTH 16 0
BBX 16 16 0 -2
BITMAP
0180
0180
03c0
0240
0660
0420
0c30
0810
1818
1008
300c
2004
6006
7ffe
0000
0000
ENDCHAR
STARTCHAR a348
ENCODING 41800
SWIDTH 96 0
DWIDTH 16 0
BBX 16 16 0 -2
BITMAP
1ff8
0c18
0c08
0c00
0c40
0c40
0fc0
0c40
0c40
0c00
0c00
0c08
0c18
1ff8
0000
0000
ENDCHAR
STARTCHAR a349
ENCODING 41801
SWIDTH 96 0
DWIDTH 16 0
BBX 16 16 0 -2
BITMAP
1ffe
180e
100c
0018
0030
0060
00c0
0180
0300
0600
0c00
1804
300c
3ffc
0000
0000
ENDCHAR
STARTCHAR a34a
ENCODING 41802
SWIDTH 96 0
DWIDTH 16 0
BBX 16 16 0 -2
BITMAP
3c3c
1818
1818
1818
1818
1818
1ff8
1818
1818
1818
1818
1818
1818
3c3c
0000
0000
ENDCHAR
STARTCHAR a34b
ENCODING 41803
SWIDTH 96 0
DWIDTH 16 0
BBX 16 16 0 -2
BITMAP
0000
07c0
1c70
3018
3018
3458
37d8
37d8
3458
3018
3018
1c70
07c0
0000
0000
0000
ENDCHAR
STARTCHAR a34c
ENCODING 41804
SWIDTH 96 0
DWIDTH 16 0
BBX 16 16 0 -2
BITMAP
07e0
0180
0180
0180
0180
0180
0180
0180
0180
0180
0180
0180
0180
07e0
0000
0000
ENDCHAR
STARTCHAR a34d
ENCODING 41805
SWIDTH 96 0
DWIDTH 16 0
BBX 16 16 0 -2
BITMAP
3c3c
1818
1830
1860
18c0
1980
1b00
1f80
1cc0
1860
1830
1818
180c
3c1e
0000
0000
ENDCHAR
STARTCHAR a34e
ENCODING 41806
SWIDTH 96 0
DWIDTH 16 0
BBX 16 16 0 -2
BITMAP
0180
0180
03c0
0660
0660
0660
0c30
0c30
1818
1818
300c
300c
6006
700e
0000
0000
ENDCHAR
STARTCHAR a34f
ENCODING 41807
SWIDTH 96 0
DWIDTH 16 0
BBX 16 16 0 -2
BITMAP
700e
381c
381c
3c3c
342c
342c
366c
366c
324c
324c
33cc
318c
318c
781e
0000
0000
ENDCHAR
STARTCHAR a350
ENCODING 41808
SWIDTH 96 0
DWIDTH 16 0
BBX 16 16 0 -2
BITMAP
3c1e
1c0c
1e0c
1f0c
1b0c
198c
19cc
18cc
186c
187c
183c
181c
181c
3c0c
0000
0000
ENDCHAR
STARTCHAR a351
ENCODING 41809
SWIDTH 96 0
DWIDTH 16 0
BBX 16 16 0 -2
BITMAP
0ffc
1ff8
1008
0000
0000
0408
0ff0
1020
0000
0000
0000
1004
1ffc
3ff8
0000
0000
ENDCHAR
STARTCHAR a352
ENCODING 41810
SWIDTH 96 0
DWIDTH 16 0
BBX 16 16 0 -2
BITMAP
0000
07e0
1c38
300c
300c
300c
300c
300c
300c
300c
300c
300c
1c38
07e0
0000
0000
ENDCHAR
STARTCHAR a353
ENCODING 41811
SWIDTH 96 0
DWIDTH 16 0
BBX 16 16 0 -2
BITMAP
3ffc
1818
1818
1818
1818
1818
1818
1818
1818
1818
1818
1818
1818
3c3c
0000
0000
ENDCHAR
STARTCHAR a354
ENCODING 41812
SWIDTH 96 0
DWIDTH 16 0
BBX 16 16 0 -2
BITMAP
1fe0
0c38
0c1c
0c0c
0c0c
0c1c
0c38
0fe0
0c00
0c00
0c00
0c00
0c00
1e00
0000
0000
ENDCHAR
STARTCHAR a355
ENCODING 41813
SWIDTH 96 0
DWIDTH 16 0
BBX 16 16 0 -2
BITMAP
1ffc
1ffc
0c0c
0604
0300
0180
00c0
00c0
0180
0300
0604
0c0c
1ffc
1ffc
0000
0000
ENDCHAR
STARTCHAR a356
ENCODING 41814
SWIDTH 96 0
DWIDTH 16 0
BBX 16 16 0 -2
BITMAP
3ffc
399c
318c
2184
0180
0180
0180
0180
0180
0180
0180
0180
0180
03c0
0000
0000
ENDCHAR
STARTCHAR a357
ENCODING 41815
SWIDTH 96 0
DWIDTH 16 0
BBX 16 16 0 -2
BITMAP
0e70
1ff8
31cc
318c
318c
0180
0180
0180
0180
0180
0180
0180
0180
03c0
0000
0000
ENDCHAR
STARTCHAR a358
ENCODING 41816
SWIDTH 96 0
DWIDTH 16 0
BBX 16 16 0 -2
BITMAP
03c0
0180
07e0
1db8
318c
6186
6186
6186
6186
318c
1db8
07e0
0180
03c0
0000
0000
ENDCHAR
STARTCHAR a359
ENCODING 41817
SWIDTH 96 0
DWIDTH 16 0
BBX 16 16 0 -2
BITMAP
7c1e
300c
1818
0c30
0660
03c0
0180
0180
03c0
0660
0c30
1818
300c
7c3e
0000
0000
ENDCHAR
STARTCHAR a35a
ENCODING 41818
SWIDTH 96 0
DWIDTH 16 0
BBX 16 16 0 -2
BITMAP
63c6
f18f
9999
1998
1998
1998
1998
1998
0db0
0db0
07e0
0180
0180
03c0
0000
0000
ENDCHAR
STARTCHAR a35b
ENCODING 41819
SWIDTH 96 0
DWIDTH 16 0
BBX 16 16 0 -2
BITMAP
03c0
0660
0c30
1818
1818
1818
1818
1818
0c30
0660
0660
3666
3e7e
0000
0000
0000
ENDCHAR
STARTCHAR a35c
ENCODING 41820
SWIDTH 96 0
DWIDTH 16 0
BBX 16 16 0 -2
BITMAP
0000
0000
0000
0000
0000
03ce
0778
0c30
1830
1830
1830
1870
0cd8
078e
0000
0000
ENDCHAR
STARTCHAR a35d
ENCODING 41821
SWIDTH 96 0
DWIDTH 16 0
BBX 16 16 0 -2
BITMAP
00f0
0198
030c
070c
0618
0c30
0de0
0c60
1c30
1818
1818
3c30
33e0
3000
0000
0000
ENDCHAR
STARTCHAR a35e
ENCODING 41822
SWIDTH 96 0
DWIDTH 16 0
BBX 16 16 0 -2
BITMAP
0000
0000
0000
0000
0000
0630
0f70
19e0
10c0
00c0
01c0
0180
0380
0700
0000
0000
ENDCHAR
STARTCHAR a35f
ENCODING 41823
SWIDTH 96 0
DWIDTH 16 0
BBX 16 16 0 -2
BITMAP
01e0
0330
0318
0188
00f0
01e0
0730
0630
0c30
0c30
0c30
0c70
0ee0
07c0
0000
0000
ENDCHAR
STARTCHAR a360
ENCODING 41824
SWIDTH 96 0
DWIDTH 16 0
BBX 16 16 0 -2
BITMAP
0000
0000
0000
0000
0000
03e0
0630
0400
0780
0780
0c00
0c10
07f0
01c0
0000
0000
ENDCHAR
STARTCHAR a361
ENCODING 41825
SWIDTH 96 0
DWIDTH 16 0
BBX 16 16 0 -2
BITMAP
0300
0620
0c60
07c0
0180
0300
0600
0c00
0c00
0f00
07c0
00e0
0ce0
07c0
0000
0000
ENDCHAR
STARTCHAR a362
ENCODING 41826
SWIDTH 96 0
DWIDTH 16 0
BBX 16 16 0 -2
BITMAP
0000
0000
0000
0000
0000
1de0
3770
0630
0630
0c30
0c30
0c30
0c60
0060
0000
0000
ENDCHAR
STARTCHAR a363
ENCODING 41827
SWIDTH 96 0
DWIDTH 16 0
BBX 16 16 0 -2
BITMAP
0000
0000
03c0
0420
0810
0810
0810
0ff0
0810
0810
0810
0420
03c0
0000
0000
0000
ENDCHAR
STARTCHAR a364
ENCODING 41828
SWIDTH 96 0
DWIDTH 16 0
BBX 16 16 0 -2
BITMAP
0000
0000
0000
0000
0000
0180
0180
0300
0700
0600
0e20
0c60
0fc0
0700
0000
0000
ENDCHAR
STARTCHAR a365
ENCODING 41829
SWIDTH 96 0
DWIDTH 16 0
BBX 16 16 0 -2
BITMAP
0000
0000
0000
0000
0c00
1e30
3670
26c0
0d80
0f80
0ec0
0cc8
1cf8
3870
0000
0000
ENDCHAR
STARTCHAR a366
ENCODING 41830
SWIDTH 96 0
DWIDTH 16 0
BBX 16 16 0 -2
BITMAP
0000
0f00
0180
00c0
00c0
00c0
01c0
03c0
03c0
06c0
0660
0c30
0c3c
0c1c
0000
0000
ENDCHAR
STARTCHAR a367
ENCODING 41831
SWIDTH 96 0
DWIDTH 16 0
BBX 16 16 0 -2
BITMAP
0000
0000
0000
0000
0000
0630
0630
0630
0630
0c30
0c60
0c64
0efc
1bb8
0000
0000
ENDCHAR
STARTCHAR a368
ENCODING 41832
SWIDTH 96 0
DWIDTH 16 0
BBX 16 16 0 -2
BITMAP
0000
0000
0000
0000
0000
0c18
0618
0718
0318
0330
0660
0660
07c0
0700
0000
0000
ENDCHAR
STARTCHAR a369
ENCODING 41833
SWIDTH 96 0
DWIDTH 16 0
BBX 16 16 0 -2
BITMAP
01c0
0300
07f0
0600
0600
0300
03f0
0600
0c00
0700
03c0
00e0
0630
03e0
0000
0000
ENDCHAR
STARTCHAR a36a
ENCODING 41834
SWIDTH 96 0
DWIDTH 16 0
BBX 16 16 0 -2
BITMAP
0000
0000
0000
0000
0000
03e0
0630
0c18
1818
1818
1818
1830
0c60
07c0
0000
0000
ENDCHAR
STARTCHAR a36b
ENCODING 41835
SWIDTH 96 0
DWIDTH 16 0
BBX 16 16 0 -2
BITMAP
0000
0000
0000
0000
0018
0ff8
1ff0
0660
0660
0660
0660
0e68
1c78
1870
0000
0000
ENDCHAR
STARTCHAR a36c
ENCODING 41836
SWIDTH 96 0
DWIDTH 16 0
BBX 16 16 0 -2
BITMAP
0000
0000
0000
0000
0000
01e0
0730
0618
0c18
1c18
1c30
1fe0
1800
1800
0000
0000
ENDCHAR
STARTCHAR a36d
ENCODING 41837
SWIDTH 96 0
DWIDTH 16 0
BBX 16 16 0 -2
BITMAP
0000
0000
0000
0000
0004
03cc
0678
0c30
1830
1830
1830
1860
0cc0
0780
0000
0000
ENDCHAR
STARTCHAR a36e
ENCODING 41838
SWIDTH 96 0
DWIDTH 16 0
BBX 16 16 0 -2
BITMAP
0000
0000
0000
0000
0030
07e0
1fc0
0300
0300
0600
0600
0e40
0fc0
0700
0000
0000
ENDCHAR
STARTCHAR a36f
ENCODING 41839
SWIDTH 96 0
DWIDTH 16 0
BBX 16 16 0 -2
BITMAP
0000
0000
0000
0000
0000
0c70
0630
0630
0630
0630
0630
0630
0660
03c0
0000
0000
ENDCHAR
STARTCHAR a370
ENCODING 41840
SWIDTH 96 0
DWIDTH 16 0
BBX 16 16 0 -2
BITMAP
0060
0060
0060
03e0
07f0
0cd8
18d8
1998
0db0
0fe0
03c0
0300
0600
3c00
0000
0000
ENDCHAR
STARTCHAR a371
ENCODING 41841
SWIDTH 96 0
DWIDTH 16 0
BBX 16 16 0 -2
BITMAP
0000
0000
0000
0c18
1e38
1360
01c0
0180
0380
06c0
0cc4
38ec
3078
0000
0000
0000
ENDCHAR
STARTCHAR a372
ENCODING 41842
SWIDTH 96 0
DWIDTH 16 0
BBX 16 16 0 -2
BITMAP
0060
0060
0060
0060
00e0
06c8
0cd8
1cd8
1998
1db8
0db0
07e0
0300
0700
0000
0000
ENDCHAR
STARTCHAR a373
ENCODING 41843
SWIDTH 96 0
DWIDTH 16 0
BBX 16 16 0 -2
BITMAP
0000
0000
0000
0000
0000
0718
0c0c
180c
18cc
18cc
198c
198c
1dd8
0770
0000
0000
ENDCHAR
STARTCHAR a374
ENCODING 41844
SWIDTH 96 0
DWIDTH 16 0
BBX 16 16 0 -2
BITMAP
0000
0000
0400
0800
1000
3ffc
0004
0004
0008
0008
0010
0110
00e0
0000
0000
0000
ENDCHAR
STARTCHAR a375
ENCODING 41845
SWIDTH 96 0
DWIDTH 16 0
BBX 16 16 0 -2
BITMAP
0000
0400
0800
1000
3ff8
0008
0410
0220
0140
0080
0140
0220
0410
0808
0000
0000
ENDCHAR
STARTCHAR a376
ENCODING 41846
SWIDTH 96 0
DWIDTH 16 0
BBX 16 16 0 -2
BITMAP
0000
0000
0000
1ffc
1004
1004
1004
1004
1004
1004
1004
1004
0000
0000
0000
0000
ENDCHAR
STARTCHAR a377
ENCODING 41847
SWIDTH 96 0
DWIDTH 16 0
BBX 16 16 0 -2
BITMAP
0000
0000
0000
1ffc
0800
0800
0800
0800
0800
0800
0800
07fc
0000
0000
0000
0000
ENDCHAR
STARTCHAR a378
ENCODING 41848
SWIDTH 96 0
DWIDTH 16 0
BBX 16 16 0 -2
BITMAP
0000
0000
0400
0800
1000
3ffc
0104
0104
0104
0204
0404
0848
0030
0000
0000
0000
ENDCHAR
STARTCHAR a379
ENCODING 41849
SWIDTH 96 0
DWIDTH 16 0
BBX 16 16 0 -2
BITMAP
0000
0000
0040
0040
0040
1ffc
0080
0100
0200
0400
0810
1ff8
0004
0000
0000
0000
ENDCHAR
STARTCHAR a37a
ENCODING 41850
SWIDTH 96 0
DWIDTH 16 0
BBX 16 16 0 -2
BITMAP
0000
0000
1fe0
0040
0080
0100
03fc
0004
0004
0004
0108
0090
0060
0000
0000
0000
ENDCHAR
STARTCHAR a37b
ENCODING 41851
SWIDTH 96 0
DWIDTH 16 0
BBX 16 16 0 -2
BITMAP
0000
0000
0080
0480
0880
1080
3ffc
0104
0104
0204
0404
0848
0030
0000
0000
0000
ENDCHAR
STARTCHAR a37c
ENCODING 41852
SWIDTH 96 0
DWIDTH 16 0
BBX 16 16 0 -2
BITMAP
0000
0000
0410
0410
0820
0820
1040
1040
0820
0820
0410
0410
0208
0000
0000
0000
ENDCHAR
STARTCHAR a37d
ENCODING 41853
SWIDTH 96 0
DWIDTH 16 0
BBX 16 16 0 -2
BITMAP
0000
0000
3ffc
0200
0400
0800
1ffc
0004
0008
0008
0010
0120
00c0
0000
0000
0000
ENDCHAR
STARTCHAR a37e
ENCODING 41854
SWIDTH 96 0
DWIDTH 16 0
BBX 16 16 0 -2
BITMAP
0000
0000
1ffc
0800
0800
0800
0800
0800
0800
0800
1000
2000
4000
0000
0000
0000
ENDCHAR
STARTCHAR a3a1
ENCODING 41889
SWIDTH 96 0
DWIDTH 16 0
BBX 16 16 0 -2
BITMAP
0000
0000
0008
0008
1008
1008
1008
1078
1388
1c08
0008
0008
0008
0000
0000
0000
ENDCHAR
STARTCHAR a3a2
ENCODING 41890
SWIDTH 96 0
DWIDTH 16 0
BBX 16 16 0 -2
BITMAP
0000
0080
0100
0100
0200
0200
0400
0400
0200
0200
0100
0100
0080
0000
0000
0000
ENDCHAR
STARTCHAR a3a3
ENCODING 41891
SWIDTH 96 0
DWIDTH 16 0
BBX 16 16 0 -2
BITMAP
0000
0000
1ffc
0080
0080
0080
0080
0080
0080
0080
0080
0080
0080
0000
0000
0000
ENDCHAR
STARTCHAR a3a4
ENCODING 41892
SWIDTH 96 0
DWIDTH 16 0
BBX 16 16 0 -2
BITMAP
0000
0000
0080
0080
0888
0888
0888
0888
0ff8
0080
0080
0080
1ffc
0000
0000
0000
ENDCHAR
STARTCHAR a3a5
ENCODING 41893
SWIDTH 96 0
DWIDTH 16 0
BBX 16 16 0 -2
BITMAP
0000
0000
0060
0180
0600
1818
0060
0180
0680
1880
0080
0080
0080
0000
0000
0000
ENDCHAR
STARTCHAR a3a6
ENCODING 41894
SWIDTH 96 0
DWIDTH 16 0
BBX 16 16 0 -2
BITMAP
0000
0000
1ffc
0004
0004
0004
0ffc
0800
0800
0800
1000
2000
4000
0000
0000
0000
ENDCHAR
STARTCHAR a3a7
ENCODING 41895
SWIDTH 96 0
DWIDTH 16 0
BBX 16 16 0 -2
BITMAP
0000
0000
1ffc
1004
1004
1204
1104
1084
1044
1024
1004
1004
1ffc
0000
0000
0000
ENDCHAR
STARTCHAR a3a8
ENCODING 41896
SWIDTH 96 0
DWIDTH 16 0
BBX 16 16 0 -2
BITMAP
0000
0000
1ffc
0404
0404
0404
0448
0430
0400
0400
0400
0400
0400
0000
0000
0000
ENDCHAR
STARTCHAR a3a9
ENCODING 41897
SWIDTH 96 0
DWIDTH 16 0
BBX 16 16 0 -2
BITMAP
0000
0000
0100
0100
1ffc
0200
0400
0ff8
0010
0010
0020
0020
0040
0000
0000
0000
ENDCHAR
STARTCHAR a3aa
ENCODING 41898
SWIDTH 96 0
DWIDTH 16 0
BBX 16 16 0 -2
BITMAP
0000
0000
0200
0200
0400
0400
0800
0810
1008
101c
21e2
3e00
0000
0000
0000
0000
ENDCHAR
STARTCHAR a3ab
ENCODING 41899
SWIDTH 96 0
DWIDTH 16 0
BBX 16 16 0 -2
BITMAP
0000
0000
0808
0410
0220
0140
0080
0080
0080
0080
0080
0080
0080
0000
0000
0000
ENDCHAR
STARTCHAR a3ac
ENCODING 41900
SWIDTH 96 0
DWIDTH 16 0
BBX 16 16 0 -2
BITMAP
0000
0000
0000
1ffc
0040
0040
0740
08c0
1040
1000
1010
0820
07c0
0000
0000
0000
ENDCHAR
STARTCHAR a3ad
ENCODING 41901
SWIDTH 96 0
DWIDTH 16 0
BBX 16 16 0 -2
BITMAP
0000
0040
0040
1ffc
0040
0040
0740
08c0
1040
1000
1010
0820
07c0
0000
0000
0000
ENDCHAR
STARTCHAR a3ae
ENCODING 41902
SWIDTH 96 0
DWIDTH 16 0
BBX 16 16 0 -2
BITMAP
0000
0000
0420
0420
0420
3ffe
0420
0420
0420
0400
0200
01f8
0000
0000
0000
0000
ENDCHAR
STARTCHAR a3af
ENCODING 41903
SWIDTH 96 0
DWIDTH 16 0
BBX 16 16 0 -2
BITMAP
0000
0000
1ffc
0440
0440
0880
1080
1ff8
0108
0210
0210
0420
0420
0000
0000
0000
ENDCHAR
STARTCHAR a3b0
ENCODING 41904
SWIDTH 96 0
DWIDTH 16 0
BBX 16 16 0 -2
BITMAP
0000
0000
0080
0340
0c40
3020
0020
0010
0010
0008
0008
0004
0004
0000
0000
0000
ENDCHAR
STARTCHAR a3b1
ENCODING 41905
SWIDTH 96 0
DWIDTH 16 0
BBX 16 16 0 -2
BITMAP
0000
0400
0808
1010
0820
0440
0280
0100
0200
0400
0820
1010
3ff8
0004
0000
0000
ENDCHAR
STARTCHAR a3b2
ENCODING 41906
SWIDTH 96 0
DWIDTH 16 0
BBX 16 16 0 -2
BITMAP
0000
0000
0ff8
0808
0410
0220
0140
0080
0140
0220
0410
0808
1004
0000
0000
0000
ENDCHAR
STARTCHAR a3b3
ENCODING 41907
SWIDTH 96 0
DWIDTH 16 0
BBX 16 16 0 -2
BITMAP
0000
0000
1ff8
0208
0208
0410
0410
0ffc
0004
0008
0008
0010
0010
0000
0000
0000
ENDCHAR
STARTCHAR a3b4
ENCODING 41908
SWIDTH 96 0
DWIDTH 16 0
BBX 16 16 0 -2
BITMAP
0000
0000
0800
0800
0800
1000
1ffc
0004
0008
0008
0010
0010
0020
0000
0000
0000
ENDCHAR
STARTCHAR a3b5
ENCODING 41909
SWIDTH 96 0
DWIDTH 16 0
BBX 16 16 0 -2
BITMAP
0000
0000
0080
0080
0080
1ffc
0080
00a0
0120
0220
0420
0820
101e
0000
0000
0000
ENDCHAR
STARTCHAR a3b6
ENCODING 41910
SWIDTH 96 0
DWIDTH 16 0
BBX 16 16 0 -2
BITMAP
0000
0000
0000
0200
0200
0400
0400
0800
0800
1000
1000
3ffc
0000
0000
0000
0000
ENDCHAR
STARTCHAR a3b7
ENCODING 41911
SWIDTH 96 0
DWIDTH 16 0
BBX 16 16 0 -2
BITMAP
0000
0000
0220
0220
0220
0220
0420
0420
0820
0820
1020
1020
201e
0000
0000
0000
ENDCHAR
STARTCHAR a3b8
ENCODING 41912
SWIDTH 96 0
DWIDTH 16 0
BBX 16 16 0 -2
BITMAP
0000
0000
0000
0000
0000
0000
0000
1ffc
0000
0000
0000
0000
0000
0000
0000
0000
ENDCHAR
STARTCHAR a3b9
ENCODING 41913
SWIDTH 96 0
DWIDTH 16 0
BBX 16 16 0 -2
BITMAP
0000
0000
1004
0808
0410
0220
0140
0080
0140
0220
0410
0808
1004
0000
0000
0000
ENDCHAR
STARTCHAR a3ba
ENCODING 41914
SWIDTH 96 0
DWIDTH 16 0
BBX 16 16 0 -2
BITMAP
0000
0000
1004
1004
1004
1004
1004
1004
1004
1004
1004
0ff8
0000
0000
0000
0000
ENDCHAR
STARTCHAR a3bb
ENCODING 41915
SWIDTH 96 0
DWIDTH 16 0
BBX 16 16 0 -2
BITMAP
0000
0000
0000
0180
0180
0000
0000
0000
0000
0000
0000
0000
0000
0000
0000
0000
ENDCHAR
STARTCHAR a3bc
ENCODING 41916
SWIDTH 96 0
DWIDTH 16 0
BBX 16 16 0 -2
BITMAP
0000
0000
0000
0000
0000
0000
0000
0000
0000
0000
0000
0000
0000
0000
0000
0000
ENDCHAR
STARTCHAR a3bd
ENCODING 41917
SWIDTH 96 0
DWIDTH 16 0
BBX 16 16 0 -2
BITMAP
0000
0000
0010
0020
0040
00c0
0180
0300
0600
0e00
1c00
0000
0000
0000
0000
0000
ENDCHAR
STARTCHAR a3be
ENCODING 41918
SWIDTH 96 0
DWIDTH 16 0
BBX 16 16 0 -2
BITMAP
0000
0000
0000
0000
0004
0008
0010
0060
18c0
0d80
0700
0200
0000
0000
0000
0000
ENDCHAR
STARTCHAR a3bf
ENCODING 41919
SWIDTH 96 0
DWIDTH 16 0
BBX 16 16 0 -2
BITMAP
0000
0000
0000
0000
0000
0e00
0700
0380
00c0
0060
0010
0008
0000
0000
0000
0000
ENDCHAR
STARTCHAR a3c0
ENCODING 41920
SWIDTH 96 0
DWIDTH 16 0
BBX 16 16 0 -2
BITMAP
0410
1ffc
0410
07f0
0410
07f0
0410
3ffe
0808
17f4
2202
47f9
0c08
17f8
0000
0000
ENDCHAR
STARTCHAR a3c1
ENCODING 41921
SWIDTH 96 0
DWIDTH 16 0
BBX 16 16 0 -2
BITMAP
00c0
3927
7d26
cccc
0d18
0eb0
0ee0
1bc0
1980
3b80
3fc0
30c3
6063
6073
c03e
c01c
ENDCHAR
STARTCHAR a3c2
ENCODING 41922
SWIDTH 96 0
DWIDTH 16 0
BBX 16 16 0 -2
BITMAP
0000
0000
0000
78ee
8511
8511
8511
8511
8511
8511
8511
8511
7911
0000
0000
0000
ENDCHAR
STARTCHAR a3c3
ENCODING 41923
SWIDTH 96 0
DWIDTH 16 0
BBX 16 16 0 -2
BITMAP
0000
07e0
0c30
1188
2384
6186
4182
4182
4182
4182
6186
2184
13c8
0c30
07e0
0000
ENDCHAR
STARTCHAR a3c4
ENCODING 41924
SWIDTH 96 0
DWIDTH 16 0
BBX 16 16 0 -2
BITMAP
0000
07e0
0c30
11c8
2364
6636
4632
4062
40c2
4182
6306
2614
17f8
0c30
07e0
0000
ENDCHAR
STARTCHAR a3c5
ENCODING 41925
SWIDTH 96 0
DWIDTH 16 0
BBX 16 16 0 -2
BITMAP
0000
07e0
0c30
13c8
2664
6026
4062
43c2
4062
4022
6666
23c4
1008
0c30
07e0
0000
ENDCHAR
STARTCHAR a3c6
ENCODING 41926
SWIDTH 96 0
DWIDTH 16 0
BBX 16 16 0 -2
BITMAP
0000
07e0
0c30
10c8
21c4
23c4
46c2
4cc2
58c2
5ff2
20c6
20c4
11e8
0c30
07e0
0000
ENDCHAR
STARTCHAR a3c7
ENCODING 41927
SWIDTH 96 0
DWIDTH 16 0
BBX 16 16 0 -2
BITMAP
0000
07e0
0c30
17e8
2404
2404
4402
47e2
4032
4012
2416
2634
13e8
0c30
07e0
0000
ENDCHAR
STARTCHAR a3c8
ENCODING 41928
SWIDTH 96 0
DWIDTH 16 0
BBX 16 16 0 -2
BITMAP
0000
07e0
0c30
13c8
2664
2404
4402
45c2
4662
4422
2426
2664
13c8
0c30
07e0
0000
ENDCHAR
STARTCHAR a3c9
ENCODING 41929
SWIDTH 96 0
DWIDTH 16 0
BBX 16 16 0 -2
BITMAP
0000
07e0
0c30
1008
27f4
2434
4022
4062
4042
40c2
2086
2184
1188
0c30
07e0
0000
ENDCHAR
STARTCHAR a3ca
ENCODING 41930
SWIDTH 96 0
DWIDTH 16 0
BBX 16 16 0 -2
BITMAP
0000
07e0
0c30
13c8
2664
2424
4662
43c2
4662
4c32
2c36
2664
13c8
0c30
07e0
0000
ENDCHAR
STARTCHAR a3cb
ENCODING 41931
SWIDTH 96 0
DWIDTH 16 0
BBX 16 16 0 -2
BITMAP
0000
07e0
0c30
13c8
2664
2c34
4c32
4672
43f2
4032
2c36
2664
13c8
0c30
07e0
0000
ENDCHAR
STARTCHAR a3cc
ENCODING 41932
SWIDTH 96 0
DWIDTH 16 0
BBX 16 16 0 -2
BITMAP
0000
07e0
0c30
1008
24e4
6d16
4512
4512
4512
4512
6516
2ee4
1008
0c30
07e0
0000
ENDCHAR
STARTCHAR a3cd
ENCODING 41933
SWIDTH 96 0
DWIDTH 16 0
BBX 16 16 0 -2
BITMAP
0000
0000
0810
1188
2384
6186
4182
4182
4182
4182
6186
2184
13c8
0810
0000
0000
ENDCHAR
STARTCHAR a3ce
ENCODING 41934
SWIDTH 96 0
DWIDTH 16 0
BBX 16 16 0 -2
BITMAP
0000
0000
0810
11c8
2364
6636
4632
4062
40c2
4182
6306
2614
17f8
0810
0000
0000
ENDCHAR
STARTCHAR a3cf
ENCODING 41935
SWIDTH 96 0
DWIDTH 16 0
BBX 16 16 0 -2
BITMAP
0000
0000
0810
13c8
2664
6026
4062
43c2
4062
4022
6666
23c4
1008
0810
0000
0000
ENDCHAR
STARTCHAR a3d0
ENCODING 41936
SWIDTH 96 0
DWIDTH 16 0
BBX 16 16 0 -2
BITMAP
0000
0000
0810
10c8
21c4
23c4
46c2
4cc2
58c2
5ff2
20c6
20c4
11e8
0810
0000
0000
ENDCHAR
STARTCHAR a3d1
ENCODING 41937
SWIDTH 96 0
DWIDTH 16 0
BBX 16 16 0 -2
BITMAP
0000
0000
0810
17e8
2404
2404
4402
47e2
4032
4012
2416
2634
13e8
0810
0000
0000
ENDCHAR
STARTCHAR a3d2
ENCODING 41938
SWIDTH 96 0
DWIDTH 16 0
BBX 16 16 0 -2
BITMAP
0000
0000
0810
13c8
2664
2404
4402
45c2
4662
4422
2426
2664
13c8
0810
0000
0000
ENDCHAR
STARTCHAR a3d3
ENCODING 41939
SWIDTH 96 0
DWIDTH 16 0
BBX 16 16 0 -2
BITMAP
0000
0000
0810
1008
27f4
2434
4022
4062
4042
40c2
2086
2184
1188
0810
0000
0000
ENDCHAR
STARTCHAR a3d4
ENCODING 41940
SWIDTH 96 0
DWIDTH 16 0
BBX 16 16 0 -2
BITMAP
0000
0000
0810
13c8
2664
2424
4662
43c2
4662
4c32
2c36
2664
13c8
0810
0000
0000
ENDCHAR
STARTCHAR a3d5
ENCODING 41941
SWIDTH 96 0
DWIDTH 16 0
BBX 16 16 0 -2
BITMAP
0000
0000
0810
13c8
2664
2c34
4c32
4672
43f2
4032
2c36
2664
13c8
0810
0000
0000
ENDCHAR
STARTCHAR a3d6
ENCODING 41942
SWIDTH 96 0
DWIDTH 16 0
BBX 16 16 0 -2
BITMAP
0000
0000
0810
1008
24e4
6d16
4512
4512
4512
4512
6516
2ee4
1008
0810
0000
0000
ENDCHAR
STARTCHAR a3d7
ENCODING 41943
SWIDTH 96 0
DWIDTH 16 0
BBX 16 16 0 -2
BITMAP
0000
0000
0180
0180
0000
0380
0180
0180
0180
0180
0180
0180
03c0
0000
0000
0000
ENDCHAR
STARTCHAR a3d8
ENCODING 41944
SWIDTH 96 0
DWIDTH 16 0
BBX 16 16 0 -2
BITMAP
0000
0000
0630
0630
0000
0e70
0630
0630
0630
0630
0630
0630
0f78
0000
0000
0000
ENDCHAR
STARTCHAR a3d9
ENCODING 41945
SWIDTH 96 0
DWIDTH 16 0
BBX 16 16 0 -2
BITMAP
0000
0000
318c
318c
0000
739c
318c
318c
318c
318c
318c
318c
7bde
0000
0000
0000
ENDCHAR
STARTCHAR a3da
ENCODING 41946
SWIDTH 96 0
DWIDTH 16 0
BBX 16 16 0 -2
BITMAP
0000
0000
1800
1800
0000
3b8e
1904
1888
1888
1850
1850
1820
3c20
0000
0000
0000
ENDCHAR
STARTCHAR a3db
ENCODING 41947
SWIDTH 96 0
DWIDTH 16 0
BBX 16 16 0 -2
BITMAP
0000
0000
0000
0000
0000
3c70
1820
0c40
0c40
0680
0680
0300
0300
0000
0000
0000
ENDCHAR
STARTCHAR a3dc
ENCODING 41948
SWIDTH 96 0
DWIDTH 16 0
BBX 16 16 0 -2
BITMAP
0000
0000
0006
0006
0000
78ee
3046
1886
1886
0d06
0d06
0606
060f
0000
0000
0000
ENDCHAR
STARTCHAR a3dd
ENCODING 41949
SWIDTH 96 0
DWIDTH 16 0
BBX 16 16 0 -2
BITMAP
0000
0000
0000
0044
0000
eecc
4444
4444
4444
2844
2844
1044
10ee
0000
0000
0000
ENDCHAR
STARTCHAR a3de
ENCODING 41950
SWIDTH 96 0
DWIDTH 16 0
BBX 16 16 0 -2
BITMAP
0000
0000
0000
0092
0000
efb6
4492
4492
4492
2892
2892
1092
11b7
0000
0000
0000
ENDCHAR
STARTCHAR a3df
ENCODING 41951
SWIDTH 96 0
DWIDTH 16 0
BBX 16 16 0 -2
BITMAP
0000
0000
3000
3000
0000
73de
318c
30d8
3070
3070
30d8
318c
7bde
0000
0000
0000
ENDCHAR
STARTCHAR a3e0
ENCODING 41952
SWIDTH 96 0
DWIDTH 16 0
BBX 16 16 0 -2
BITMAP
0000
0000
0000
0000
0000
3e7c
0c30
0660
03c0
03c0
0660
0c30
3e7c
0000
0000
0000
ENDCHAR
STARTCHAR a3e1
ENCODING 41953
SWIDTH 96 0
DWIDTH 16 0
BBX 16 16 0 -2
BITMAP
0000
0080
0080
0080
0080
0080
0080
0080
0080
0080
0080
0080
0080
0080
0080
0000
ENDCHAR
STARTCHAR a3e2
ENCODING 41954
SWIDTH 96 0
DWIDTH 16 0
BBX 16 16 0 -2
BITMAP
0000
0020
0020
0020
0020
0020
0020
0020
0020
0020
0020
0040
0080
0100
0600
0000
ENDCHAR
STARTCHAR a3e3
ENCODING 41955
SWIDTH 96 0
DWIDTH 16 0
BBX 16 16 0 -2
BITMAP
0000
0020
0020
0020
0020
0020
0020
0020
0020
0020
0020
0020
0020
0020
07c0
0000
ENDCHAR
STARTCHAR a3e4
ENCODING 41956
SWIDTH 96 0
DWIDTH 16 0
BBX 16 16 0 -2
BITMAP
0000
0000
0000
0200
0180
0080
7ffe
0000
0000
0000
0000
0000
0000
0000
0000
0000
ENDCHAR
STARTCHAR a3e5
ENCODING 41957
SWIDTH 96 0
DWIDTH 16 0
BBX 16 16 0 -2
BITMAP
0000
0220
0220
0220
0220
0220
0220
0220
0220
0220
0420
0420
0822
1022
201c
0000
ENDCHAR
STARTCHAR a3e6
ENCODING 41958
SWIDTH 96 0
DWIDTH 16 0
BBX 16 16 0 -2
BITMAP
0000
7ffc
4004
4004
4004
4004
4004
4004
4004
4004
4004
4004
4004
4004
4038
0000
ENDCHAR
STARTCHAR a3e7
ENCODING 41959
SWIDTH 96 0
DWIDTH 16 0
BBX 16 16 0 -2
BITMAP
0000
0000
7ffe
4002
4002
400c
0000
0000
0000
0000
0000
0000
0000
0000
0000
0000
ENDCHAR
STARTCHAR a3e8
ENCODING 41960
SWIDTH 96 0
DWIDTH 16 0
BBX 16 16 0 -2
BITMAP
0000
0000
0400
0300
0180
0180
0000
0040
0080
0180
0300
0e00
0600
0600
0600
0000
ENDCHAR
STARTCHAR a3e9
ENCODING 41961
SWIDTH 96 0
DWIDTH 16 0
BBX 16 16 0 -2
BITMAP
0800
0c00
0800
1ffc
1004
2004
2004
4004
0004
0004
0004
0008
0010
0020
01c0
0000
ENDCHAR
STARTCHAR a3ea
ENCODING 41962
SWIDTH 96 0
DWIDTH 16 0
BBX 16 16 0 -2
BITMAP
2000
2030
2030
2060
20c0
20c0
2180
2300
2600
3800
2008
2008
2008
2008
1ffc
0000
ENDCHAR
STARTCHAR a3eb
ENCODING 41963
SWIDTH 96 0
DWIDTH 16 0
BBX 16 16 0 -2
BITMAP
0000
0000
7ffe
2000
2000
2000
2000
2000
2000
2000
2000
2000
2000
1ffe
0000
0000
ENDCHAR
STARTCHAR a3ec
ENCODING 41964
SWIDTH 96 0
DWIDTH 16 0
BBX 16 16 0 -2
BITMAP
0004
07fc
0204
0204
0204
0204
0204
0208
0228
0210
0200
0200
0200
0200
0200
0000
ENDCHAR
STARTCHAR a3ed
ENCODING 41965
SWIDTH 96 0
DWIDTH 16 0
BBX 16 16 0 -2
BITMAP
0000
0000
0100
0180
0200
0400
0810
1008
200c
3ffe
0002
0000
0000
0000
0000
0000
ENDCHAR
STARTCHAR a3ee
ENCODING 41966
SWIDTH 96 0
DWIDTH 16 0
BBX 16 16 0 -2
BITMAP
0000
0000
2004
3ffc
2004
2004
2004
2004
2004
2004
2004
2004
3ffc
2004
0000
0000
ENDCHAR
STARTCHAR a3ef
ENCODING 41967
SWIDTH 96 0
DWIDTH 16 0
BBX 16 16 0 -2
BITMAP
0000
0000
0008
1ff8
1008
1008
0810
0420
0240
0180
0180
0240
0420
0818
700e
0000
ENDCHAR
STARTCHAR a3f0
ENCODING 41968
SWIDTH 96 0
DWIDTH 16 0
BBX 16 16 0 -2
BITMAP
0000
0000
0300
0180
0080
7ffe
4002
4002
4004
2018
0000
0000
0000
0000
0000
0000
ENDCHAR
STARTCHAR a3f1
ENCODING 41969
SWIDTH 96 0
DWIDTH 16 0
BBX 16 16 0 -2
BITMAP
0000
0000
0888
0888
1110
1110
2220
2220
1110
1110
0888
0888
0444
0000
0000
0000
ENDCHAR
STARTCHAR a3f2
ENCODING 41970
SWIDTH 96 0
DWIDTH 16 0
BBX 16 16 0 -2
BITMAP
0100
0180
0200
0400
0820
1830
0840
0480
0300
0200
0420
0810
1078
1f88
0000
0000
ENDCHAR
STARTCHAR a3f3
ENCODING 41971
SWIDTH 96 0
DWIDTH 16 0
BBX 16 16 0 -2
BITMAP
0000
0100
00c0
0040
0ffc
0800
0800
0800
0800
0800
0800
0800
1000
1000
2000
0000
ENDCHAR
STARTCHAR a3f4
ENCODING 41972
SWIDTH 96 0
DWIDTH 16 0
BBX 16 16 0 -2
BITMAP
0000
3f00
0300
0200
0400
1f00
0100
3100
1300
0a00
0600
0600
0900
30c0
007e
0000
ENDCHAR
STARTCHAR a3f5
ENCODING 41973
SWIDTH 96 0
DWIDTH 16 0
BBX 16 16 0 -2
BITMAP
0000
0000
0ff8
0008
0008
0008
0ff8
0008
0008
0008
7ffe
0000
0000
0000
0000
0000
ENDCHAR
STARTCHAR a3f6
ENCODING 41974
SWIDTH 96 0
DWIDTH 16 0
BBX 16 16 0 -2
BITMAP
0000
00c0
0180
0300
0660
18c0
0180
0318
0630
1860
00c0
0180
0700
3c00
0000
0000
ENDCHAR
STARTCHAR a3f7
ENCODING 41975
SWIDTH 96 0
DWIDTH 16 0
BBX 16 16 0 -2
BITMAP
0200
0200
03f0
0200
0200
1ff0
1020
0820
0840
0480
0300
0280
0440
1830
701c
0000
ENDCHAR
STARTCHAR a3f8
ENCODING 41976
SWIDTH 96 0
DWIDTH 16 0
BBX 16 16 0 -2
BITMAP
0000
0000
3ff8
0200
0200
0200
7ffc
0280
0280
0480
0880
1082
2082
407e
0000
0000
ENDCHAR
STARTCHAR a3f9
ENCODING 41977
SWIDTH 96 0
DWIDTH 16 0
BBX 16 16 0 -2
BITMAP
0040
0840
0840
0840
0840
0fc0
0040
0040
1fc0
0840
0840
0840
0840
1040
2040
0000
ENDCHAR
STARTCHAR a3fa
ENCODING 41978
SWIDTH 96 0
DWIDTH 16 0
BBX 16 16 0 -2
BITMAP
0040
0040
0fff
0800
4800
2800
2800
0800
1800
2800
6800
1000
1000
2000
0000
0000
ENDCHAR
STARTCHAR a3fb
ENCODING 41979
SWIDTH 96 0
DWIDTH 16 0
BBX 16 16 0 -2
BITMAP
0000
1e60
02c0
2298
1460
0820
1018
6006
0000
0000
0000
0000
0000
0000
0000
0000
ENDCHAR
STARTCHAR a3fc
ENCODING 41980
SWIDTH 96 0
DWIDTH 16 0
BBX 16 16 0 -2
BITMAP
0000
0000
0820
0820
2aa8
2aa8
2aa8
2aa8
3ef8
0820
0820
1020
1020
2020
0000
0000
ENDCHAR
STARTCHAR a3fd
ENCODING 41981
SWIDTH 96 0
DWIDTH 16 0
BBX 16 16 0 -2
BITMAP
00e0
0300
1c18
00e0
0304
1c1c
00e0
0380
1c80
0080
08fc
0880
1480
2280
41ff
0000
ENDCHAR
STARTCHAR a3fe
ENCODING 41982
SWIDTH 96 0
DWIDTH 16 0
BBX 16 16 0 -2
BITMAP
0000
0000
0100
0ff0
0110
3ffc
0110
0ff0
0100
1918
0d60
0140
0520
1930
1218
0000
ENDCHAR
STARTCHAR a440
ENCODING 42048
SWIDTH 96 0
DWIDTH 16 0
BBX 16 16 0 -2
BITMAP
0000
0000
0000
0000
0000
0000
0002
7fff
0000
0000
0000
0000
0000
0000
0000
0000
ENDCHAR
STARTCHAR a441
ENCODING 42049
SWIDTH 96 0
DWIDTH 16 0
BBX 16 16 0 -2
BITMAP
0000
3ff8
0010
0020
0040
0080
0100
0200
0400
0800
1000
2002
2002
1ffe
0000
0000
ENDCHAR
STARTCHAR a442
ENCODING 42050
SWIDTH 96 0
DWIDTH 16 0
BBX 16 16 0 -2
BITMAP
0002
7fff
0080
0080
0080
0080
0080
0080
0080
0080
0080
0080
0280
0100
0000
0000
ENDCHAR
STARTCHAR a443
ENCODING 42051
SWIDTH 96 0
DWIDTH 16 0
BBX 16 16 0 -2
BITMAP
0200
0200
0200
0200
0202
7fff
0200
0200
0200
0200
0200
0202
0202
01fe
0000
0000
ENDCHAR
STARTCHAR a444
ENCODING 42052
SWIDTH 96 0
DWIDTH 16 0
BBX 16 16 0 -2
BITMAP
0010
3ff8
0410
0420
0442
047f
0402
0402
0802
0802
1002
2044
4028
0010
0000
0000
ENDCHAR
STARTCHAR a445
ENCODING 42053
SWIDTH 96 0
DWIDTH 16 0
BBX 16 16 0 -2
BITMAP
0400
0400
0420
7ff0
0420
0420
0420
0420
0420
0420
0820
0821
1021
601f
0000
0000
ENDCHAR
STARTCHAR a446
ENCODING 42054
SWIDTH 96 0
DWIDTH 16 0
BBX 16 16 0 -2
BITMAP
0002
7fff
0008
0010
0020
00c0
0040
0040
0040
0040
0040
0240
0140
0080
0000
0000
ENDCHAR
STARTCHAR a447
ENCODING 42055
SWIDTH 96 0
DWIDTH 16 0
BBX 16 16 0 -2
BITMAP
0000
0000
0008
1ffc
0000
0000
0000
0000
0000
0000
0000
0002
7fff
0000
0000
0000
ENDCHAR
STARTCHAR a448
ENCODING 42056
SWIDTH 96 0
DWIDTH 16 0
BBX 16 16 0 -2
BITMAP
0080
0080
0080
0080
0080
0080
0140
0140
0220
0220
0410
0808
1007
2002
0000
0000
ENDCHAR
STARTCHAR a449
ENCODING 42057
SWIDTH 96 0
DWIDTH 16 0
BBX 16 16 0 -2
BITMAP
0820
0820
0820
0820
0820
0820
0820
0820
0820
0821
0821
1021
2021
403f
0000
0000
ENDCHAR
STARTCHAR a44a
ENCODING 42058
SWIDTH 96 0
DWIDTH 16 0
BBX 16 16 0 -2
BITMAP
0200
0100
0080
0080
0140
0140
0220
0220
0410
0410
0808
1008
2007
4002
0000
0000
ENDCHAR
STARTCHAR a44b
ENCODING 42059
SWIDTH 96 0
DWIDTH 16 0
BBX 16 16 0 -2
BITMAP
0020
0230
0220
0220
0220
0220
0220
0410
0410
0410
0808
0804
1007
2002
0000
0000
ENDCHAR
STARTCHAR a44c
ENCODING 42060
SWIDTH 96 0
DWIDTH 16 0
BBX 16 16 0 -2
BITMAP
0410
07f8
0410
0410
0410
0410
0410
0410
0410
0410
0411
0811
100f
6000
0000
0000
ENDCHAR
STARTCHAR a44d
ENCODING 42061
SWIDTH 96 0
DWIDTH 16 0
BBX 16 16 0 -2
BITMAP
0002
7fff
0102
0102
0102
0102
0102
0102
0202
0402
0402
0822
1014
2008
0000
0000
ENDCHAR
STARTCHAR a44e
ENCODING 42062
SWIDTH 96 0
DWIDTH 16 0
BBX 16 16 0 -2
BITMAP
0002
7fff
0002
0012
0022
0042
0082
0102
0202
0402
0802
3022
0014
0008
0000
0000
ENDCHAR
STARTCHAR a44f
ENCODING 42063
SWIDTH 96 0
DWIDTH 16 0
BBX 16 16 0 -2
BITMAP
0100
0100
0102
7fff
0102
0102
0102
0102
0202
0202
0402
0822
1014
6008
0000
0000
ENDCHAR
STARTCHAR a450
ENCODING 42064
SWIDTH 96 0
DWIDTH 16 0
BBX 16 16 0 -2
BITMAP
2000
2000
2020
2020
2040
2080
2100
2200
2400
3800
2002
2002
2002
1ffe
0000
0000
ENDCHAR
STARTCHAR a451
ENCODING 42065
SWIDTH 96 0
DWIDTH 16 0
BBX 16 16 0 -2
BITMAP
0080
0080
0080
0080
0082
7fff
0080
0080
0080
0080
0080
0080
0080
0080
0000
0000
ENDCHAR
STARTCHAR a452
ENCODING 42066
SWIDTH 96 0
DWIDTH 16 0
BBX 16 16 0 -2
BITMAP
0100
0100
0100
0100
0140
0130
0118
0108
0100
0100
0100
0100
0100
0100
0000
0000
ENDCHAR
STARTCHAR a453
ENCODING 42067
SWIDTH 96 0
DWIDTH 16 0
BBX 16 16 0 -2
BITMAP
0008
3ffc
0808
0810
0410
0420
0220
0140
0080
0140
0220
0418
1807
6002
0000
0000
ENDCHAR
STARTCHAR a454
ENCODING 42068
SWIDTH 96 0
DWIDTH 16 0
BBX 16 16 0 -2
BITMAP
0000
0004
3ffe
0000
0000
0000
0008
1ffc
0000
0000
0000
0002
7fff
0000
0000
0000
ENDCHAR
STARTCHAR a455
ENCODING 42069
SWIDTH 96 0
DWIDTH 16 0
BBX 16 16 0 -2
BITMAP
0002
7fff
0100
0100
0140
0120
0118
0108
0100
0100
0100
0100
0100
0100
0000
0000
ENDCHAR
STARTCHAR a456
ENCODING 42070
SWIDTH 96 0
DWIDTH 16 0
BBX 16 16 0 -2
BITMAP
0020
0020
0022
7fff
0020
0420
0420
0220
0140
0080
0140
0230
0c0f
7002
0000
0000
ENDCHAR
STARTCHAR a457
ENCODING 42071
SWIDTH 96 0
DWIDTH 16 0
BBX 16 16 0 -2
BITMAP
0080
0080
0080
0080
0088
00fc
0080
0080
0080
0080
0080
0080
0082
7fff
0000
0000
ENDCHAR
STARTCHAR a458
ENCODING 42072
SWIDTH 96 0
DWIDTH 16 0
BBX 16 16 0 -2
BITMAP
1008
0818
0620
0240
0080
0080
0080
0080
0080
0080
0080
0080
0080
0080
0000
0000
ENDCHAR
STARTCHAR a459
ENCODING 42073
SWIDTH 96 0
DWIDTH 16 0
BBX 16 16 0 -2
BITMAP
0100
0100
0110
3ff8
0110
0110
0110
0290
0250
0251
0411
0411
180f
6000
0000
0000
ENDCHAR
STARTCHAR a45a
ENCODING 42074
SWIDTH 96 0
DWIDTH 16 0
BBX 16 16 0 -2
BITMAP
0010
07f8
0410
0410
0510
0490
04d0
0450
0410
0411
0811
0811
100f
2000
0000
0000
ENDCHAR
STARTCHAR a45b
ENCODING 42075
SWIDTH 96 0
DWIDTH 16 0
BBX 16 16 0 -2
BITMAP
0200
0210
03f8
0410
0810
1020
0020
0040
00a0
0110
0210
0408
1807
6002
0000
0000
ENDCHAR
STARTCHAR a45c
ENCODING 42076
SWIDTH 96 0
DWIDTH 16 0
BBX 16 16 0 -2
BITMAP
0080
0100
0200
0400
0810
1020
6040
0080
0100
0200
0408
0804
7ffe
0001
0000
0000
ENDCHAR
STARTCHAR a45d
ENCODING 42077
SWIDTH 96 0
DWIDTH 16 0
BBX 16 16 0 -2
BITMAP
0080
0088
089c
08e8
0b88
1c88
6888
0888
0890
0880
0881
0801
0801
07ff
0000
0000
ENDCHAR
STARTCHAR a45e
ENCODING 42078
SWIDTH 96 0
DWIDTH 16 0
BBX 16 16 0 -2
BITMAP
0400
0804
0ffe
1000
2010
4ff8
0020
0040
0080
0100
0201
0401
0801
07ff
0000
0000
ENDCHAR
STARTCHAR a45f
ENCODING 42079
SWIDTH 96 0
DWIDTH 16 0
BBX 16 16 0 -2
BITMAP
0008
1ffc
0080
0080
0082
7fff
0080
0080
0080
0080
0080
0080
0280
0100
0000
0000
ENDCHAR
STARTCHAR a460
ENCODING 42080
SWIDTH 96 0
DWIDTH 16 0
BBX 16 16 0 -2
BITMAP
0100
0080
0080
0002
7fff
0800
0800
0800
0800
0800
0800
0800
0804
07fe
0000
0000
ENDCHAR
STARTCHAR a461
ENCODING 42081
SWIDTH 96 0
DWIDTH 16 0
BBX 16 16 0 -2
BITMAP
0002
7fff
0220
0220
0220
0220
0220
0220
0220
0420
0421
0821
101f
2000
0000
0000
ENDCHAR
STARTCHAR a462
ENCODING 42082
SWIDTH 96 0
DWIDTH 16 0
BBX 16 16 0 -2
BITMAP
0002
3fff
0082
0082
0082
0082
0c82
0682
0102
0102
0202
0422
0814
3008
0000
0000
ENDCHAR
STARTCHAR a463
ENCODING 42083
SWIDTH 96 0
DWIDTH 16 0
BBX 16 16 0 -2
BITMAP
0800
0802
1fff
1002
2002
4002
0202
0102
0182
0082
0002
0022
0014
0008
0000
0000
ENDCHAR
STARTCHAR a464
ENCODING 42084
SWIDTH 96 0
DWIDTH 16 0
BBX 16 16 0 -2
BITMAP
0010
0078
1f80
0080
0080
0082
7fff
0080
0080
0080
0080
0080
0080
0080
0000
0000
ENDCHAR
STARTCHAR a465
ENCODING 42085
SWIDTH 96 0
DWIDTH 16 0
BBX 16 16 0 -2
BITMAP
0004
1ffe
0004
0904
0888
0488
0210
0120
00c0
0140
0220
0418
1807
6002
0000
0000
ENDCHAR
STARTCHAR a466
ENCODING 42086
SWIDTH 96 0
DWIDTH 16 0
BBX 16 16 0 -2
BITMAP
0000
0000
0002
3fff
2002
2002
2002
2002
2002
2002
2002
2002
3ffe
2002
0000
0000
ENDCHAR
STARTCHAR a467
ENCODING 42087
SWIDTH 96 0
DWIDTH 16 0
BBX 16 16 0 -2
BITMAP
0080
0080
0080
0080
0084
3ffe
0080
0080
0080
0080
0080
0080
0082
7fff
0000
0000
ENDCHAR
STARTCHAR a468
ENCODING 42088
SWIDTH 96 0
DWIDTH 16 0
BBX 16 16 0 -2
BITMAP
0080
0080
0080
0080
0082
7fff
0080
0080
0080
0080
0080
0080
0088
1ffc
0000
0000
ENDCHAR
STARTCHAR a469
ENCODING 42089
SWIDTH 96 0
DWIDTH 16 0
BBX 16 16 0 -2
BITMAP
0100
0104
03fe
0204
0404
0808
1208
2190
00a0
00c0
0100
0200
0c00
3000
0000
0000
ENDCHAR
STARTCHAR a46a
ENCODING 42090
SWIDTH 96 0
DWIDTH 16 0
BBX 16 16 0 -2
BITMAP
0080
0080
0080
0082
7fff
0080
0080
0140
0120
0220
0210
0408
0807
3002
0000
0000
ENDCHAR
STARTCHAR a46b
ENCODING 42091
SWIDTH 96 0
DWIDTH 16 0
BBX 16 16 0 -2
BITMAP
0080
0080
0100
0102
7fff
0210
0410
0810
0620
0140
00c0
0330
0c0c
3004
0000
0000
ENDCHAR
STARTCHAR a46c
ENCODING 42092
SWIDTH 96 0
DWIDTH 16 0
BBX 16 16 0 -2
BITMAP
0008
1ffc
0010
0020
00c0
0082
7fff
0080
0080
0080
0080
0080
0280
0100
0000
0000
ENDCHAR
STARTCHAR a46d
ENCODING 42093
SWIDTH 96 0
DWIDTH 16 0
BBX 16 16 0 -2
BITMAP
1ff8
0010
0020
00c0
0086
0098
00e0
0380
0c80
3080
2080
0080
0280
0100
0000
0000
ENDCHAR
STARTCHAR a46e
ENCODING 42094
SWIDTH 96 0
DWIDTH 16 0
BBX 16 16 0 -2
BITMAP
1ff8
0010
0020
08c0
0480
0280
0180
0080
00c0
00a0
0098
0086
0280
0100
0000
0000
ENDCHAR
STARTCHAR a46f
ENCODING 42095
SWIDTH 96 0
DWIDTH 16 0
BBX 16 16 0 -2
BITMAP
0020
0020
0020
0022
7fff
0020
0420
0220
0220
0020
0020
0020
00a0
0040
0000
0000
ENDCHAR
STARTCHAR a470
ENCODING 42096
SWIDTH 96 0
DWIDTH 16 0
BBX 16 16 0 -2
BITMAP
0080
0080
0080
0080
0080
0490
0c88
1084
2082
4081
0080
0080
0280
0100
0000
0000
ENDCHAR
STARTCHAR a471
ENCODING 42097
SWIDTH 96 0
DWIDTH 16 0
BBX 16 16 0 -2
BITMAP
0100
0100
0100
7fff
0140
0140
0140
0240
0240
0241
0441
0841
1041
603f
0000
0000
ENDCHAR
STARTCHAR a472
ENCODING 42098
SWIDTH 96 0
DWIDTH 16 0
BBX 16 16 0 -2
BITMAP
0004
1ffe
1004
1004
1004
1ffc
1004
1000
1000
1000
1000
2000
2000
4000
0000
0000
ENDCHAR
STARTCHAR a473
ENCODING 42099
SWIDTH 96 0
DWIDTH 16 0
BBX 16 16 0 -2
BITMAP
0080
0080
0080
0080
0080
2082
2082
2082
2082
2082
2082
2082
3ffe
2002
0000
0000
ENDCHAR
STARTCHAR a474
ENCODING 42100
SWIDTH 96 0
DWIDTH 16 0
BBX 16 16 0 -2
BITMAP
0002
0802
0842
0842
0842
0842
0842
0842
0842
0842
0842
1002
2002
0002
0000
0000
ENDCHAR
STARTCHAR a475
ENCODING 42101
SWIDTH 96 0
DWIDTH 16 0
BBX 16 16 0 -2
BITMAP
0000
0004
3ffe
0080
0080
0080
0080
0080
0080
0080
0080
0080
0082
7fff
0000
0000
ENDCHAR
STARTCHAR a476
ENCODING 42102
SWIDTH 96 0
DWIDTH 16 0
BBX 16 16 0 -2
BITMAP
0004
7ffe
0004
0004
0004
0004
3ffc
2004
2000
2000
2001
2001
2001
1fff
0000
0000
ENDCHAR
STARTCHAR a477
ENCODING 42103
SWIDTH 96 0
DWIDTH 16 0
BBX 16 16 0 -2
BITMAP
0004
7ffe
0004
0004
2004
2004
3ffc
2004
2000
2000
2001
2001
2001
1fff
0000
0000
ENDCHAR
STARTCHAR a478
ENCODING 42104
SWIDTH 96 0
DWIDTH 16 0
BBX 16 16 0 -2
BITMAP
0008
7ffc
2008
2008
2008
2008
3ff8
2008
2000
2000
2001
2001
2001
1fff
0000
0000
ENDCHAR
STARTCHAR a479
ENCODING 42105
SWIDTH 96 0
DWIDTH 16 0
BBX 16 16 0 -2
BITMAP
0080
0080
0084
1ffe
1084
1084
1084
1084
1084
1094
1088
0080
0080
0080
0000
0000
ENDCHAR
STARTCHAR a47a
ENCODING 42106
SWIDTH 96 0
DWIDTH 16 0
BBX 16 16 0 -2
BITMAP
0008
1ffc
0080
0080
0080
0082
7fff
0080
0080
0080
0080
0080
0080
0080
0000
0000
ENDCHAR
STARTCHAR a47b
ENCODING 42107
SWIDTH 96 0
DWIDTH 16 0
BBX 16 16 0 -2
BITMAP
0410
0410
0410
0410
0410
7fff
0410
0410
0410
0410
0810
1010
2010
4010
0000
0000
ENDCHAR
STARTCHAR a47c
ENCODING 42108
SWIDTH 96 0
DWIDTH 16 0
BBX 16 16 0 -2
BITMAP
0100
0120
0110
01ff
7f00
0100
0080
0080
0040
0040
0022
0012
000e
0004
0000
0000
ENDCHAR
STARTCHAR a47d
ENCODING 42109
SWIDTH 96 0
DWIDTH 16 0
BBX 16 16 0 -2
BITMAP
0008
3ffc
0008
0008
1ff8
1008
1000
2004
3ffe
0004
0004
0048
0028
0010
0000
0000
ENDCHAR
STARTCHAR a47e
ENCODING 42110
SWIDTH 96 0
DWIDTH 16 0
BBX 16 16 0 -2
BITMAP
0040
0040
0042
7fff
0040
00c0
00c0
0140
0240
0440
0840
3040
0140
0080
0000
0000
ENDCHAR
STARTCHAR a4a1
ENCODING 42145
SWIDTH 96 0
DWIDTH 16 0
BBX 16 16 0 -2
BITMAP
0008
1ffc
0108
0108
0108
0108
0108
3fff
0208
0208
0208
0208
020a
7fff
0000
0000
ENDCHAR
STARTCHAR a4a2
ENCODING 42146
SWIDTH 96 0
DWIDTH 16 0
BBX 16 16 0 -2
BITMAP
0002
7fff
0080
1088
10fc
1080
1082
1fff
0002
0002
0002
0022
0014
0008
0000
0000
ENDCHAR
STARTCHAR a4a3
ENCODING 42147
SWIDTH 96 0
DWIDTH 16 0
BBX 16 16 0 -2
BITMAP
0002
7fff
0040
0080
0080
01a0
0290
048c
0886
1082
2080
0080
0080
0080
0000
0000
ENDCHAR
STARTCHAR a4a4
ENCODING 42148
SWIDTH 96 0
DWIDTH 16 0
BBX 16 16 0 -2
BITMAP
0080
0080
0082
3fff
2082
2082
2082
3ffe
2082
0080
0080
0080
0080
0080
0000
0000
ENDCHAR
STARTCHAR a4a5
ENCODING 42149
SWIDTH 96 0
DWIDTH 16 0
BBX 16 16 0 -2
BITMAP
0080
00b8
03c0
1c80
0080
0088
1ffc
0080
0082
7fff
0080
0080
0080
0080
0000
0000
ENDCHAR
STARTCHAR a4a6
ENCODING 42150
SWIDTH 96 0
DWIDTH 16 0
BBX 16 16 0 -2
BITMAP
0008
0ffc
0808
0908
0888
0888
0808
7fff
0808
0808
0808
0808
1028
2010
0000
0000
ENDCHAR
STARTCHAR a4a7
ENCODING 42151
SWIDTH 96 0
DWIDTH 16 0
BBX 16 16 0 -2
BITMAP
0100
0080
0008
3ffc
0010
0020
0040
0080
0100
0600
1800
2400
03ff
0000
0000
0000
ENDCHAR
STARTCHAR a4a8
ENCODING 42152
SWIDTH 96 0
DWIDTH 16 0
BBX 16 16 0 -2
BITMAP
0008
1ffc
0208
0208
7fff
0208
0208
1ff8
0208
0200
0400
0800
1000
2000
0000
0000
ENDCHAR
STARTCHAR a4a9
ENCODING 42153
SWIDTH 96 0
DWIDTH 16 0
BBX 16 16 0 -2
BITMAP
0010
1ff8
0020
0140
00c2
7fff
0082
0084
0080
0080
0080
0080
0280
0100
0000
0000
ENDCHAR
STARTCHAR a4aa
ENCODING 42154
SWIDTH 96 0
DWIDTH 16 0
BBX 16 16 0 -2
BITMAP
0010
0ff8
0000
0000
0002
7fff
0100
0200
0210
0408
0804
3ffe
1001
0001
0000
0000
ENDCHAR
STARTCHAR a4ab
ENCODING 42155
SWIDTH 96 0
DWIDTH 16 0
BBX 16 16 0 -2
BITMAP
0410
0410
0410
3ffe
0410
0410
0412
7fff
0410
0410
0810
0810
1010
2010
0000
0000
ENDCHAR
STARTCHAR a4ac
ENCODING 42156
SWIDTH 96 0
DWIDTH 16 0
BBX 16 16 0 -2
BITMAP
0004
3ffe
0400
0400
0410
07f8
0410
0410
0810
1ff0
0820
0040
0042
7fff
0000
0000
ENDCHAR
STARTCHAR a4ad
ENCODING 42157
SWIDTH 96 0
DWIDTH 16 0
BBX 16 16 0 -2
BITMAP
0004
3ffe
0100
0100
0100
0108
1ffc
0208
0208
0208
0408
0408
0408
7fff
0000
0000
ENDCHAR
STARTCHAR a4ae
ENCODING 42158
SWIDTH 96 0
DWIDTH 16 0
BBX 16 16 0 -2
BITMAP
0100
0082
7fff
0000
0010
07f8
0410
0410
0410
0410
0811
0811
1011
200f
0000
0000
ENDCHAR
STARTCHAR a4af
ENCODING 42159
SWIDTH 96 0
DWIDTH 16 0
BBX 16 16 0 -2
BITMAP
0400
0404
0bfe
0800
1800
2800
4800
0800
0800
0802
0fff
0800
0800
0800
0000
0000
ENDCHAR
STARTCHAR a4b0
ENCODING 42160
SWIDTH 96 0
DWIDTH 16 0
BBX 16 16 0 -2
BITMAP
0420
0420
0820
0820
1822
2fff
4820
0820
0820
0820
0820
0820
0820
0820
0000
0000
ENDCHAR
STARTCHAR a4b1
ENCODING 42161
SWIDTH 96 0
DWIDTH 16 0
BBX 16 16 0 -2
BITMAP
0400
0402
05ff
0810
0810
1810
2810
4810
0810
0810
0810
0890
0850
0820
0000
0000
ENDCHAR
STARTCHAR a4b2
ENCODING 42162
SWIDTH 96 0
DWIDTH 16 0
BBX 16 16 0 -2
BITMAP
0220
0220
0420
0420
0828
1826
2823
4821
0820
0820
0820
0820
0820
0820
0000
0000
ENDCHAR
STARTCHAR a4b3
ENCODING 42163
SWIDTH 96 0
DWIDTH 16 0
BBX 16 16 0 -2
BITMAP
0480
0480
0888
0bfc
1888
2888
4888
0888
0888
0908
0909
0a09
0c07
0800
0000
0000
ENDCHAR
STARTCHAR a4b4
ENCODING 42164
SWIDTH 96 0
DWIDTH 16 0
BBX 16 16 0 -2
BITMAP
0800
0804
13fe
1084
3088
5092
109f
1082
1082
1102
1102
1222
1214
1408
0000
0000
ENDCHAR
STARTCHAR a4b5
ENCODING 42165
SWIDTH 96 0
DWIDTH 16 0
BBX 16 16 0 -2
BITMAP
0080
0140
0220
0410
0808
13e7
6002
0000
0ff8
0008
0010
0020
0040
0080
0000
0000
ENDCHAR
STARTCHAR a4b6
ENCODING 42166
SWIDTH 96 0
DWIDTH 16 0
BBX 16 16 0 -2
BITMAP
0080
0140
0220
0410
0808
1227
6222
0220
0220
0420
0420
0420
0820
1020
0000
0000
ENDCHAR
STARTCHAR a4b7
ENCODING 42167
SWIDTH 96 0
DWIDTH 16 0
BBX 16 16 0 -2
BITMAP
0004
1ffe
1000
1040
1040
1040
1040
10a0
1110
1110
2208
2404
4807
1002
0000
0000
ENDCHAR
STARTCHAR a4b8
ENCODING 42168
SWIDTH 96 0
DWIDTH 16 0
BBX 16 16 0 -2
BITMAP
0008
1ffc
0000
0002
7fff
0220
0220
0220
0220
0420
0421
0821
1021
601f
0000
0000
ENDCHAR
STARTCHAR a4b9
ENCODING 42169
SWIDTH 96 0
DWIDTH 16 0
BBX 16 16 0 -2
BITMAP
0100
0220
0410
0808
3ffc
1244
0244
0240
0440
0440
0841
0841
1041
603f
0000
0000
ENDCHAR
STARTCHAR a4ba
ENCODING 42170
SWIDTH 96 0
DWIDTH 16 0
BBX 16 16 0 -2
BITMAP
0100
0080
0082
7fff
2082
2082
2082
2142
2222
241a
280a
2002
200a
2004
0000
0000
ENDCHAR
STARTCHAR a4bb
ENCODING 42171
SWIDTH 96 0
DWIDTH 16 0
BBX 16 16 0 -2
BITMAP
0200
0100
0180
0082
7fff
0000
0000
0220
0610
0408
080c
0806
1006
2002
0000
0000
ENDCHAR
STARTCHAR a4bc
ENCODING 42172
SWIDTH 96 0
DWIDTH 16 0
BBX 16 16 0 -2
BITMAP
0220
0410
0410
0808
1008
2ff7
4402
0410
0ff8
0010
0010
0110
00a0
0040
0000
0000
ENDCHAR
STARTCHAR a4bd
ENCODING 42173
SWIDTH 96 0
DWIDTH 16 0
BBX 16 16 0 -2
BITMAP
0060
0240
0220
0420
0410
0808
1087
6082
0100
0200
0420
0810
1ff8
0808
0000
0000
ENDCHAR
STARTCHAR a4be
ENCODING 42174
SWIDTH 96 0
DWIDTH 16 0
BBX 16 16 0 -2
BITMAP
0002
3fff
2002
4004
0020
03f0
0220
0220
0220
0220
0420
0421
1821
601f
0000
0000
ENDCHAR
STARTCHAR a4bf
ENCODING 42175
SWIDTH 96 0
DWIDTH 16 0
BBX 16 16 0 -2
BITMAP
4001
4809
4411
4221
4141
4081
4141
4221
4411
480d
5005
4001
7fff
4001
0000
0000
ENDCHAR
STARTCHAR a4c0
ENCODING 42176
SWIDTH 96 0
DWIDTH 16 0
BBX 16 16 0 -2
BITMAP
0040
0240
0220
0410
0808
1004
2ff7
4212
0210
0210
0410
0410
08a0
1040
0000
0000
ENDCHAR
STARTCHAR a4c1
ENCODING 42177
SWIDTH 96 0
DWIDTH 16 0
BBX 16 16 0 -2
BITMAP
1000
1002
10ff
1022
1f22
7022
1022
1022
1122
1622
3842
0082
0114
0608
0000
0000
ENDCHAR
STARTCHAR a4c2
ENCODING 42178
SWIDTH 96 0
DWIDTH 16 0
BBX 16 16 0 -2
BITMAP
0002
2082
1082
0892
0912
0512
0212
0512
0492
0882
0842
1042
600a
0004
0000
0000
ENDCHAR
STARTCHAR a4c3
ENCODING 42179
SWIDTH 96 0
DWIDTH 16 0
BBX 16 16 0 -2
BITMAP
0400
0402
07ff
0802
1022
27f2
4002
0022
07f2
0002
0002
0022
0014
0008
0000
0000
ENDCHAR
STARTCHAR a4c4
ENCODING 42180
SWIDTH 96 0
DWIDTH 16 0
BBX 16 16 0 -2
BITMAP
0400
0402
07ff
0802
1102
2202
4202
0442
0822
1fe2
0822
0002
0014
0008
0000
0000
ENDCHAR
STARTCHAR a4c5
ENCODING 42181
SWIDTH 96 0
DWIDTH 16 0
BBX 16 16 0 -2
BITMAP
0800
0800
0802
0fff
1222
2222
4222
0422
0442
0842
1082
2102
0214
0408
0000
0000
ENDCHAR
STARTCHAR a4c6
ENCODING 42182
SWIDTH 96 0
DWIDTH 16 0
BBX 16 16 0 -2
BITMAP
0440
0440
0840
0840
1840
2846
4878
0840
0840
0840
0841
0841
083f
0800
0000
0000
ENDCHAR
STARTCHAR a4c7
ENCODING 42183
SWIDTH 96 0
DWIDTH 16 0
BBX 16 16 0 -2
BITMAP
0004
7ffe
2220
2220
2220
2220
2220
2220
2220
241e
2800
2002
7fff
2000
0000
0000
ENDCHAR
STARTCHAR a4c8
ENCODING 42184
SWIDTH 96 0
DWIDTH 16 0
BBX 16 16 0 -2
BITMAP
0400
0408
07fc
0880
1080
2080
0082
7fff
0080
0080
0080
0080
0080
0080
0000
0000
ENDCHAR
STARTCHAR a4c9
ENCODING 42185
SWIDTH 96 0
DWIDTH 16 0
BBX 16 16 0 -2
BITMAP
0090
03d0
3e10
0210
0210
0212
7fff
0210
0210
0410
0410
0810
1010
0010
0000
0000
ENDCHAR
STARTCHAR a4ca
ENCODING 42186
SWIDTH 96 0
DWIDTH 16 0
BBX 16 16 0 -2
BITMAP
0808
0888
0888
0888
0888
088a
7fff
0888
0888
0888
0888
1088
1008
2008
0000
0000
ENDCHAR
STARTCHAR a4cb
ENCODING 42187
SWIDTH 96 0
DWIDTH 16 0
BBX 16 16 0 -2
BITMAP
0300
0180
0082
7fff
0080
0080
00a0
0090
0088
0088
0080
0080
0080
0080
0000
0000
ENDCHAR
STARTCHAR a4cc
ENCODING 42188
SWIDTH 96 0
DWIDTH 16 0
BBX 16 16 0 -2
BITMAP
0002
1fff
1000
1008
13fc
1208
1208
1208
1248
1230
1201
1201
2201
41ff
0000
0000
ENDCHAR
STARTCHAR a4cd
ENCODING 42189
SWIDTH 96 0
DWIDTH 16 0
BBX 16 16 0 -2
BITMAP
0200
0202
7fff
0200
07f8
0408
0a10
0910
10a0
2040
40a0
0318
0c07
3002
0000
0000
ENDCHAR
STARTCHAR a4ce
ENCODING 42190
SWIDTH 96 0
DWIDTH 16 0
BBX 16 16 0 -2
BITMAP
0010
3ff8
0410
0420
0420
047c
0a04
0908
0888
1050
1060
2098
4307
0c02
0000
0000
ENDCHAR
STARTCHAR a4cf
ENCODING 42191
SWIDTH 96 0
DWIDTH 16 0
BBX 16 16 0 -2
BITMAP
0008
003c
1fc0
1000
1ffc
1204
1108
1110
10a0
1040
20a0
2118
4207
0c02
0000
0000
ENDCHAR
STARTCHAR a4d0
ENCODING 42192
SWIDTH 96 0
DWIDTH 16 0
BBX 16 16 0 -2
BITMAP
0008
003c
1fc0
0080
0080
0080
0082
7fff
0080
0080
0080
0080
0088
1ffc
0000
0000
ENDCHAR
STARTCHAR a4d1
ENCODING 42193
SWIDTH 96 0
DWIDTH 16 0
BBX 16 16 0 -2
BITMAP
0004
3ffe
0080
0080
0082
7fff
0080
0140
0220
0220
0410
0808
1007
6002
0000
0000
ENDCHAR
STARTCHAR a4d2
ENCODING 42194
SWIDTH 96 0
DWIDTH 16 0
BBX 16 16 0 -2
BITMAP
0080
0084
3ffe
0080
0082
7fff
0080
0140
0140
0220
0220
0418
0807
3002
0000
0000
ENDCHAR
STARTCHAR a4d3
ENCODING 42195
SWIDTH 96 0
DWIDTH 16 0
BBX 16 16 0 -2
BITMAP
0080
0080
0080
0082
7fff
0080
0080
0140
0140
0220
0320
0498
1887
6002
0000
0000
ENDCHAR
STARTCHAR a4d4
ENCODING 42196
SWIDTH 96 0
DWIDTH 16 0
BBX 16 16 0 -2
BITMAP
0008
00fc
1f80
0080
0080
0082
7fff
0080
0140
0220
0210
0408
1807
6002
0000
0000
ENDCHAR
STARTCHAR a4d5
ENCODING 42197
SWIDTH 96 0
DWIDTH 16 0
BBX 16 16 0 -2
BITMAP
0120
3fa0
0120
0220
0420
0420
05e0
0e20
7420
0421
0421
0421
1421
081f
0000
0000
ENDCHAR
STARTCHAR a4d6
ENCODING 42198
SWIDTH 96 0
DWIDTH 16 0
BBX 16 16 0 -2
BITMAP
0080
0080
0490
0488
0886
1080
2088
0088
0090
0020
0040
0080
0100
3e00
0000
0000
ENDCHAR
STARTCHAR a4d7
ENCODING 42199
SWIDTH 96 0
DWIDTH 16 0
BBX 16 16 0 -2
BITMAP
0080
0090
0088
0082
7fff
0140
0140
0240
0240
0440
0441
0841
1041
203f
0000
0000
ENDCHAR
STARTCHAR a4d8
ENCODING 42200
SWIDTH 96 0
DWIDTH 16 0
BBX 16 16 0 -2
BITMAP
0008
0ffc
0808
0808
0ff8
0a08
0a00
0900
0880
0840
1020
1018
2007
4002
0000
0000
ENDCHAR
STARTCHAR a4d9
ENCODING 42201
SWIDTH 96 0
DWIDTH 16 0
BBX 16 16 0 -2
BITMAP
0080
0080
0082
7fff
0080
1084
1084
1084
1ffc
1084
0080
0081
0081
007f
0000
0000
ENDCHAR
STARTCHAR a4da
ENCODING 42202
SWIDTH 96 0
DWIDTH 16 0
BBX 16 16 0 -2
BITMAP
0004
3ffe
2084
2084
2084
2084
3ffc
2004
2000
2000
2000
2001
2001
1fff
0000
0000
ENDCHAR
STARTCHAR a4db
ENCODING 42203
SWIDTH 96 0
DWIDTH 16 0
BBX 16 16 0 -2
BITMAP
0402
08ff
0802
1102
1102
2202
7e02
0402
0802
1202
2102
7fa2
2094
0088
0000
0000
ENDCHAR
STARTCHAR a4dc
ENCODING 42204
SWIDTH 96 0
DWIDTH 16 0
BBX 16 16 0 -2
BITMAP
0000
0410
0410
0412
7fff
0410
0410
0410
0410
0410
0410
0410
07f0
0410
0000
0000
ENDCHAR
STARTCHAR a4dd
ENCODING 42205
SWIDTH 96 0
DWIDTH 16 0
BBX 16 16 0 -2
BITMAP
3ffc
0108
0108
3ff8
2108
2102
3ffe
2102
0102
0102
0124
0118
0100
0100
0000
0000
ENDCHAR
STARTCHAR a4de
ENCODING 42206
SWIDTH 96 0
DWIDTH 16 0
BBX 16 16 0 -2
BITMAP
0084
3fc4
0084
0084
1f84
1004
1004
2084
7fc4
0084
0084
0884
0504
0204
0000
0000
ENDCHAR
STARTCHAR a4df
ENCODING 42207
SWIDTH 96 0
DWIDTH 16 0
BBX 16 16 0 -2
BITMAP
0080
0040
0060
0440
0400
1404
1402
1401
2401
4401
0408
0408
03f8
0000
0000
0000
ENDCHAR
STARTCHAR a4e0
ENCODING 42208
SWIDTH 96 0
DWIDTH 16 0
BBX 16 16 0 -2
BITMAP
0240
0220
0202
027f
7f80
0210
0218
0120
0140
0080
0140
0622
381a
0006
0000
0000
ENDCHAR
STARTCHAR a4e1
ENCODING 42209
SWIDTH 96 0
DWIDTH 16 0
BBX 16 16 0 -2
BITMAP
0018
00e0
1f02
1fff
1002
1002
1002
1ffe
1002
1000
1000
2000
2000
4000
0000
0000
ENDCHAR
STARTCHAR a4e2
ENCODING 42210
SWIDTH 96 0
DWIDTH 16 0
BBX 16 16 0 -2
BITMAP
0008
007c
3f80
0080
0088
1ffc
0080
0082
7fff
0080
0080
0080
0280
0100
0000
0000
ENDCHAR
STARTCHAR a4e3
ENCODING 42211
SWIDTH 96 0
DWIDTH 16 0
BBX 16 16 0 -2
BITMAP
0420
0420
0420
7fa0
0420
0520
0620
1c20
6420
0420
0421
0421
141f
0800
0000
0000
ENDCHAR
STARTCHAR a4e4
ENCODING 42212
SWIDTH 96 0
DWIDTH 16 0
BBX 16 16 0 -2
BITMAP
0080
0082
7fff
0080
0ff8
0410
0410
0220
0140
0080
0140
0630
180f
6002
0000
0000
ENDCHAR
STARTCHAR a4e5
ENCODING 42213
SWIDTH 96 0
DWIDTH 16 0
BBX 16 16 0 -2
BITMAP
0100
0082
7fff
0808
0410
0210
0220
0140
0080
0140
0230
0408
1807
6002
0000
0000
ENDCHAR
STARTCHAR a4e6
ENCODING 42214
SWIDTH 96 0
DWIDTH 16 0
BBX 16 16 0 -2
BITMAP
0420
0320
0120
0820
0620
0220
0022
003f
7fe0
0020
0020
0020
0020
0020
0000
0000
ENDCHAR
STARTCHAR a4e7
ENCODING 42215
SWIDTH 96 0
DWIDTH 16 0
BBX 16 16 0 -2
BITMAP
0008
001c
0fe0
0800
0802
0fff
0820
0820
0820
0820
1020
1020
2020
0020
0000
0000
ENDCHAR
STARTCHAR a4e8
ENCODING 42216
SWIDTH 96 0
DWIDTH 16 0
BBX 16 16 0 -2
BITMAP
0200
0180
0080
0002
7fff
0200
0208
03fc
0208
0208
0408
0808
1050
2020
0000
0000
ENDCHAR
STARTCHAR a4e9
ENCODING 42217
SWIDTH 96 0
DWIDTH 16 0
BBX 16 16 0 -2
BITMAP
0008
1ffc
1008
1008
1008
1008
1ff8
1008
1008
1008
1008
1008
1ff8
1008
0000
0000
ENDCHAR
STARTCHAR a4ea
ENCODING 42218
SWIDTH 96 0
DWIDTH 16 0
BBX 16 16 0 -2
BITMAP
0000
0002
7fff
4002
4002
4002
4002
7ffe
4002
4002
4002
4002
7ffe
4002
0000
0000
ENDCHAR
STARTCHAR a4eb
ENCODING 42219
SWIDTH 96 0
DWIDTH 16 0
BBX 16 16 0 -2
BITMAP
0008
1ffc
0808
0808
0ff8
0808
0808
0ff8
0808
0808
0808
0808
1028
2010
0000
0000
ENDCHAR
STARTCHAR a4ec
ENCODING 42220
SWIDTH 96 0
DWIDTH 16 0
BBX 16 16 0 -2
BITMAP
0080
0080
0082
7fff
0080
01c0
01a0
0290
0488
0884
1087
6082
0080
0080
0000
0000
ENDCHAR
STARTCHAR a4ed
ENCODING 42221
SWIDTH 96 0
DWIDTH 16 0
BBX 16 16 0 -2
BITMAP
0400
0404
0ffe
0804
1088
2090
4080
0140
0140
0220
0410
0808
1007
6002
0000
0000
ENDCHAR
STARTCHAR a4ee
ENCODING 42222
SWIDTH 96 0
DWIDTH 16 0
BBX 16 16 0 -2
BITMAP
0080
0080
0080
0880
0880
0888
08fc
0880
0880
0880
0880
0880
0882
7fff
0000
0000
ENDCHAR
STARTCHAR a4ef
ENCODING 42223
SWIDTH 96 0
DWIDTH 16 0
BBX 16 16 0 -2
BITMAP
0002
7fff
0100
0104
03fe
0604
0508
08c8
1050
2020
0040
0180
0600
1800
0000
0000
ENDCHAR
STARTCHAR a4f0
ENCODING 42224
SWIDTH 96 0
DWIDTH 16 0
BBX 16 16 0 -2
BITMAP
0008
0ffc
0888
0888
0888
0888
7fff
0888
1108
1108
1ffe
0408
0828
1010
0000
0000
ENDCHAR
STARTCHAR a4f1
ENCODING 42225
SWIDTH 96 0
DWIDTH 16 0
BBX 16 16 0 -2
BITMAP
0040
2040
2040
2040
2044
224c
3f50
2060
2040
2040
2041
2341
2c41
703f
0000
0000
ENDCHAR
STARTCHAR a4f2
ENCODING 42226
SWIDTH 96 0
DWIDTH 16 0
BBX 16 16 0 -2
BITMAP
003c
1fc0
0100
0110
01f8
1f00
0104
01fe
7f00
0100
0100
0101
0101
00ff
0000
0000
ENDCHAR
STARTCHAR a4f3
ENCODING 42227
SWIDTH 96 0
DWIDTH 16 0
BBX 16 16 0 -2
BITMAP
0010
1078
1f80
1080
1080
1084
1ffe
1040
1020
1120
1211
1409
1805
3003
0000
0000
ENDCHAR
STARTCHAR a4f4
ENCODING 42228
SWIDTH 96 0
DWIDTH 16 0
BBX 16 16 0 -2
BITMAP
0080
0080
0084
008c
3e90
02e0
02c0
04b0
0888
1087
2082
4080
0280
0100
0000
0000
ENDCHAR
STARTCHAR a4f5
ENCODING 42229
SWIDTH 96 0
DWIDTH 16 0
BBX 16 16 0 -2
BITMAP
0080
0080
0080
0884
088c
0890
10a0
2140
0140
0220
0410
0808
1007
2002
0000
0000
ENDCHAR
STARTCHAR a4f6
ENCODING 42230
SWIDTH 96 0
DWIDTH 16 0
BBX 16 16 0 -2
BITMAP
0008
003c
0fc0
0890
0890
0890
0890
0890
0888
1088
1084
2087
4082
0080
0000
0000
ENDCHAR
STARTCHAR a4f7
ENCODING 42231
SWIDTH 96 0
DWIDTH 16 0
BBX 16 16 0 -2
BITMAP
0410
0808
1006
2012
0410
0220
0220
0140
0080
0140
0220
0418
1807
6002
0000
0000
ENDCHAR
STARTCHAR a4f8
ENCODING 42232
SWIDTH 96 0
DWIDTH 16 0
BBX 16 16 0 -2
BITMAP
0818
0620
0140
0080
0160
0618
3814
0420
0220
0140
0140
0630
180f
6002
0000
0000
ENDCHAR
STARTCHAR a4f9
ENCODING 42233
SWIDTH 96 0
DWIDTH 16 0
BBX 16 16 0 -2
BITMAP
0040
1040
1040
1040
1fc0
1000
1000
1fe0
1020
1020
1020
1020
2020
4020
0000
0000
ENDCHAR
STARTCHAR a4fa
ENCODING 42234
SWIDTH 96 0
DWIDTH 16 0
BBX 16 16 0 -2
BITMAP
0004
3ffe
1020
1020
1020
1022
3fff
0120
0220
0420
1820
6020
00a0
0040
0000
0000
ENDCHAR
STARTCHAR a4fb
ENCODING 42235
SWIDTH 96 0
DWIDTH 16 0
BBX 16 16 0 -2
BITMAP
0080
0880
0888
0ffc
1080
2080
0082
7fff
0080
0080
0080
0080
0080
0080
0000
0000
ENDCHAR
STARTCHAR a4fc
ENCODING 42236
SWIDTH 96 0
DWIDTH 16 0
BBX 16 16 0 -2
BITMAP
00a0
0098
0088
0082
7fff
0080
0080
0140
0140
0220
0210
0408
0807
3002
0000
0000
ENDCHAR
STARTCHAR a4fd
ENCODING 42237
SWIDTH 96 0
DWIDTH 16 0
BBX 16 16 0 -2
BITMAP
0004
3ffe
0080
0080
0080
0080
0088
1ffc
0080
0080
0080
0080
0082
7fff
0000
0000
ENDCHAR
STARTCHAR a4fe
ENCODING 42238
SWIDTH 96 0
DWIDTH 16 0
BBX 16 16 0 -2
BITMAP
0002
7fff
0080
0080
0082
3fff
2082
20c2
2122
2212
2412
2002
200a
2004
0000
0000
ENDCHAR
STARTCHAR a540
ENCODING 42304
SWIDTH 96 0
DWIDTH 16 0
BBX 16 16 0 -2
BITMAP
0088
1088
1088
1088
7fff
1088
1088
1088
1088
10f8
1088
1000
1000
0ffe
0000
0000
ENDCHAR
STARTCHAR a541
ENCODING 42305
SWIDTH 96 0
DWIDTH 16 0
BBX 16 16 0 -2
BITMAP
0004
3ffe
0040
0080
0180
02b0
0488
0884
1082
2082
0080
0080
0082
7fff
0000
0000
ENDCHAR
STARTCHAR a542
ENCODING 42306
SWIDTH 96 0
DWIDTH 16 0
BBX 16 16 0 -2
BITMAP
0010
0ff8
0810
0810
0810
0ff0
0810
0810
0ff0
0810
0810
0810
0812
7fff
0000
0000
ENDCHAR
STARTCHAR a543
ENCODING 42307
SWIDTH 96 0
DWIDTH 16 0
BBX 16 16 0 -2
BITMAP
0010
0038
00c0
0f00
0800
0808
0ffc
0820
0820
0820
0820
0820
0822
7fff
0000
0000
ENDCHAR
STARTCHAR a544
ENCODING 42308
SWIDTH 96 0
DWIDTH 16 0
BBX 16 16 0 -2
BITMAP
0100
0080
0084
3ffe
0080
0080
0080
0088
1ffc
0080
0080
0080
0082
7fff
0000
0000
ENDCHAR
STARTCHAR a545
ENCODING 42309
SWIDTH 96 0
DWIDTH 16 0
BBX 16 16 0 -2
BITMAP
0400
0402
07ff
0900
1108
21fc
4100
0100
0104
01fe
0100
0100
0100
0100
0000
0000
ENDCHAR
STARTCHAR a546
ENCODING 42310
SWIDTH 96 0
DWIDTH 16 0
BBX 16 16 0 -2
BITMAP
003c
3fc0
0080
0080
0080
1ffc
0008
0030
00c0
0300
0400
1800
2400
03ff
0000
0000
ENDCHAR
STARTCHAR a547
ENCODING 42311
SWIDTH 96 0
DWIDTH 16 0
BBX 16 16 0 -2
BITMAP
003c
1fc0
0080
0888
0698
02a0
0082
7fff
0080
0080
0080
0080
0280
0100
0000
0000
ENDCHAR
STARTCHAR a548
ENCODING 42312
SWIDTH 96 0
DWIDTH 16 0
BBX 16 16 0 -2
BITMAP
0008
1008
1208
1108
1188
1088
1008
1108
1208
1410
1818
3024
60c6
4303
0000
0000
ENDCHAR
STARTCHAR a549
ENCODING 42313
SWIDTH 96 0
DWIDTH 16 0
BBX 16 16 0 -2
BITMAP
0408
0408
0808
0808
1bff
2808
4808
0888
0848
0848
0808
0808
0828
0810
0000
0000
ENDCHAR
STARTCHAR a54a
ENCODING 42314
SWIDTH 96 0
DWIDTH 16 0
BBX 16 16 0 -2
BITMAP
05fe
0404
0808
0810
1820
2822
4fff
0820
0820
0820
0820
0820
08a0
0840
0000
0000
ENDCHAR
STARTCHAR a54b
ENCODING 42315
SWIDTH 96 0
DWIDTH 16 0
BBX 16 16 0 -2
BITMAP
0420
0420
0820
0822
1fff
2820
4820
0820
0820
0820
0824
0bfe
0800
0800
0000
0000
ENDCHAR
STARTCHAR a54c
ENCODING 42316
SWIDTH 96 0
DWIDTH 16 0
BBX 16 16 0 -2
BITMAP
0420
0420
0820
0924
193e
29e4
4f24
0924
0928
0920
0921
0901
08ff
0800
0000
0000
ENDCHAR
STARTCHAR a54d
ENCODING 42317
SWIDTH 96 0
DWIDTH 16 0
BBX 16 16 0 -2
BITMAP
0410
0410
0812
0bff
1810
2890
4890
0850
0850
0820
0830
0848
0887
0b02
0000
0000
ENDCHAR
STARTCHAR a54e
ENCODING 42318
SWIDTH 96 0
DWIDTH 16 0
BBX 16 16 0 -2
BITMAP
0440
0450
0448
0848
0842
187f
2fc0
4820
0820
0810
0809
0809
0805
0803
0000
0000
ENDCHAR
STARTCHAR a54f
ENCODING 42319
SWIDTH 96 0
DWIDTH 16 0
BBX 16 16 0 -2
BITMAP
0080
0140
0220
0410
0808
13e7
6002
0ff8
0008
0010
0220
0140
0080
0040
0000
0000
ENDCHAR
STARTCHAR a550
ENCODING 42320
SWIDTH 96 0
DWIDTH 16 0
BBX 16 16 0 -2
BITMAP
0820
0820
1020
1222
3222
5222
1222
1222
1222
1222
1222
13fe
1202
1000
0000
0000
ENDCHAR
STARTCHAR a551
ENCODING 42321
SWIDTH 96 0
DWIDTH 16 0
BBX 16 16 0 -2
BITMAP
0400
0402
07ff
0822
1822
2922
48a2
08a2
0842
0842
0882
0902
0a14
0c08
0000
0000
ENDCHAR
STARTCHAR a552
ENCODING 42322
SWIDTH 96 0
DWIDTH 16 0
BBX 16 16 0 -2
BITMAP
0080
0082
7fff
0100
0220
0410
1ff8
0224
0220
0220
0421
0421
0821
301f
0000
0000
ENDCHAR
STARTCHAR a553
ENCODING 42323
SWIDTH 96 0
DWIDTH 16 0
BBX 16 16 0 -2
BITMAP
0004
1ffe
1004
1004
1004
1ffc
1224
0220
0220
0420
0421
0821
1021
201f
0000
0000
ENDCHAR
STARTCHAR a554
ENCODING 42324
SWIDTH 96 0
DWIDTH 16 0
BBX 16 16 0 -2
BITMAP
0080
0084
1ffe
1084
1084
1ffc
1084
1084
7fff
1004
1004
1004
1014
1008
0000
0000
ENDCHAR
STARTCHAR a555
ENCODING 42325
SWIDTH 96 0
DWIDTH 16 0
BBX 16 16 0 -2
BITMAP
0004
0ffe
0924
0924
0924
0924
7fff
0924
0924
0924
0924
0924
1354
2088
0000
0000
ENDCHAR
STARTCHAR a556
ENCODING 42326
SWIDTH 96 0
DWIDTH 16 0
BBX 16 16 0 -2
BITMAP
0200
03f8
0410
0a20
1140
0080
0160
0618
1807
6302
00c0
0300
00c0
0020
0000
0000
ENDCHAR
STARTCHAR a557
ENCODING 42327
SWIDTH 96 0
DWIDTH 16 0
BBX 16 16 0 -2
BITMAP
0000
0002
3e3f
2222
2222
2222
2222
2222
23e2
2002
2002
2002
3ffe
2002
0000
0000
ENDCHAR
STARTCHAR a558
ENCODING 42328
SWIDTH 96 0
DWIDTH 16 0
BBX 16 16 0 -2
BITMAP
0080
0080
1084
1084
1084
1ffc
1084
0080
2082
2082
2082
2082
3ffe
2002
0000
0000
ENDCHAR
STARTCHAR a559
ENCODING 42329
SWIDTH 96 0
DWIDTH 16 0
BBX 16 16 0 -2
BITMAP
0010
07f8
0410
0410
0410
0412
7c1f
2002
2002
2002
2002
2002
3ffe
2002
0000
0000
ENDCHAR
STARTCHAR a55a
ENCODING 42330
SWIDTH 96 0
DWIDTH 16 0
BBX 16 16 0 -2
BITMAP
0082
1fc2
0202
0212
0212
0252
7ff2
0212
0212
0212
0202
0202
020a
0204
0000
0000
ENDCHAR
STARTCHAR a55b
ENCODING 42331
SWIDTH 96 0
DWIDTH 16 0
BBX 16 16 0 -2
BITMAP
0800
0800
0802
093f
7fa2
0922
0922
0922
0922
0922
0922
1122
253e
4222
0000
0000
ENDCHAR
STARTCHAR a55c
ENCODING 42332
SWIDTH 96 0
DWIDTH 16 0
BBX 16 16 0 -2
BITMAP
0040
0440
7e40
0842
0bff
0842
0842
0842
0e82
7882
2082
0122
0214
0408
0000
0000
ENDCHAR
STARTCHAR a55d
ENCODING 42333
SWIDTH 96 0
DWIDTH 16 0
BBX 16 16 0 -2
BITMAP
0400
0404
0ffe
0804
1004
2fc4
4844
0844
0fc4
0804
0819
0801
0801
07ff
0000
0000
ENDCHAR
STARTCHAR a55e
ENCODING 42334
SWIDTH 96 0
DWIDTH 16 0
BBX 16 16 0 -2
BITMAP
0400
0402
0fff
0922
1122
2522
4322
02a2
0462
089a
110a
2202
0414
0008
0000
0000
ENDCHAR
STARTCHAR a55f
ENCODING 42335
SWIDTH 96 0
DWIDTH 16 0
BBX 16 16 0 -2
BITMAP
0220
0220
0220
0222
3e2c
0230
0220
0220
0220
0220
0221
0221
0e21
701f
0000
0000
ENDCHAR
STARTCHAR a560
ENCODING 42336
SWIDTH 96 0
DWIDTH 16 0
BBX 16 16 0 -2
BITMAP
0004
7ffe
2040
2040
2044
2ffe
2444
2444
2444
2454
2448
2040
2042
3fff
0000
0000
ENDCHAR
STARTCHAR a561
ENCODING 42337
SWIDTH 96 0
DWIDTH 16 0
BBX 16 16 0 -2
BITMAP
0408
041c
05e0
0820
1820
2822
4fff
0820
0820
0820
0820
0820
0820
0820
0000
0000
ENDCHAR
STARTCHAR a562
ENCODING 42338
SWIDTH 96 0
DWIDTH 16 0
BBX 16 16 0 -2
BITMAP
0080
188c
0490
02a0
1ffc
0080
0080
0082
7fff
0080
0080
0080
0080
0080
0000
0000
ENDCHAR
STARTCHAR a563
ENCODING 42339
SWIDTH 96 0
DWIDTH 16 0
BBX 16 16 0 -2
BITMAP
0080
0084
3ffe
0080
0490
0490
0412
7fff
0410
0410
0410
0810
1010
0010
0000
0000
ENDCHAR
STARTCHAR a564
ENCODING 42340
SWIDTH 96 0
DWIDTH 16 0
BBX 16 16 0 -2
BITMAP
0100
0110
01f8
0100
0102
7fff
0100
0100
0140
0130
0118
0108
0100
0100
0000
0000
ENDCHAR
STARTCHAR a565
ENCODING 42341
SWIDTH 96 0
DWIDTH 16 0
BBX 16 16 0 -2
BITMAP
0100
0104
01fe
0100
0100
0100
0104
3ffe
2004
2004
2004
2004
3ffc
2004
0000
0000
ENDCHAR
STARTCHAR a566
ENCODING 42342
SWIDTH 96 0
DWIDTH 16 0
BBX 16 16 0 -2
BITMAP
0200
0702
383f
2122
2122
2122
2122
2732
392a
0124
0220
0c20
3020
0020
0000
0000
ENDCHAR
STARTCHAR a567
ENCODING 42343
SWIDTH 96 0
DWIDTH 16 0
BBX 16 16 0 -2
BITMAP
00fc
1f00
1002
1fff
1000
1008
13fc
1208
1248
1228
2210
2201
4201
01ff
0000
0000
ENDCHAR
STARTCHAR a568
ENCODING 42344
SWIDTH 96 0
DWIDTH 16 0
BBX 16 16 0 -2
BITMAP
0080
0084
3ffe
0080
0080
0082
7fff
0100
0100
0210
0408
0804
3ffe
0002
0000
0000
ENDCHAR
STARTCHAR a569
ENCODING 42345
SWIDTH 96 0
DWIDTH 16 0
BBX 16 16 0 -2
BITMAP
0002
7fff
0004
0004
0fc4
0844
0844
0844
0fc4
0844
0004
0004
0028
0010
0000
0000
ENDCHAR
STARTCHAR a56a
ENCODING 42346
SWIDTH 96 0
DWIDTH 16 0
BBX 16 16 0 -2
BITMAP
0080
0080
0082
7fff
0080
0080
0088
0ffc
0808
0808
0808
0808
0ff8
0808
0000
0000
ENDCHAR
STARTCHAR a56b
ENCODING 42347
SWIDTH 96 0
DWIDTH 16 0
BBX 16 16 0 -2
BITMAP
0100
0102
7fff
0200
0200
0400
0404
0ffe
1404
2404
4404
0404
07fc
0404
0000
0000
ENDCHAR
STARTCHAR a56c
ENCODING 42348
SWIDTH 96 0
DWIDTH 16 0
BBX 16 16 0 -2
BITMAP
0004
1ffe
0204
0204
0404
0444
0828
1010
27fc
0404
0404
0404
07fc
0404
0000
0000
ENDCHAR
STARTCHAR a56d
ENCODING 42349
SWIDTH 96 0
DWIDTH 16 0
BBX 16 16 0 -2
BITMAP
0002
7dff
4410
4410
4410
4410
4410
4410
4410
7c10
4410
0010
0090
0060
0000
0000
ENDCHAR
STARTCHAR a56e
ENCODING 42350
SWIDTH 96 0
DWIDTH 16 0
BBX 16 16 0 -2
BITMAP
0002
04ff
7e42
4442
4442
4442
4442
4442
7c62
4454
0048
0040
0040
0040
0000
0000
ENDCHAR
STARTCHAR a56f
ENCODING 42351
SWIDTH 96 0
DWIDTH 16 0
BBX 16 16 0 -2
BITMAP
0002
04ff
7e22
4422
4422
4422
4422
4422
7c42
4482
0102
0222
0414
0008
0000
0000
ENDCHAR
STARTCHAR a570
ENCODING 42352
SWIDTH 96 0
DWIDTH 16 0
BBX 16 16 0 -2
BITMAP
0002
7cff
4402
4402
440a
4412
4422
4442
7d82
4502
0002
0022
0014
0008
0000
0000
ENDCHAR
STARTCHAR a571
ENCODING 42353
SWIDTH 96 0
DWIDTH 16 0
BBX 16 16 0 -2
BITMAP
7fff
0001
0021
3ff1
0001
0041
1fe1
1041
1041
1041
1fc1
1051
000a
0004
0000
0000
ENDCHAR
STARTCHAR a572
ENCODING 42354
SWIDTH 96 0
DWIDTH 16 0
BBX 16 16 0 -2
BITMAP
0004
3ffe
2000
2010
23f8
2210
2210
2210
2210
23f0
2210
2000
2002
3fff
0000
0000
ENDCHAR
STARTCHAR a573
ENCODING 42355
SWIDTH 96 0
DWIDTH 16 0
BBX 16 16 0 -2
BITMAP
0002
0002
7e42
4242
4242
4242
4242
4242
424e
7e72
42c2
0002
0002
0002
0000
0000
ENDCHAR
STARTCHAR a574
ENCODING 42356
SWIDTH 96 0
DWIDTH 16 0
BBX 16 16 0 -2
BITMAP
0008
0ffc
0808
0808
0ff8
0900
0102
3fff
0102
0202
0202
0422
0814
3008
0000
0000
ENDCHAR
STARTCHAR a575
ENCODING 42357
SWIDTH 96 0
DWIDTH 16 0
BBX 16 16 0 -2
BITMAP
0004
1ffe
1004
1004
1004
1004
1ffc
1004
0000
0220
0610
080c
1006
2002
0000
0000
ENDCHAR
STARTCHAR a576
ENCODING 42358
SWIDTH 96 0
DWIDTH 16 0
BBX 16 16 0 -2
BITMAP
0080
0084
1ffe
1084
1084
1ffc
1084
0480
0280
0100
02c0
0430
180f
6002
0000
0000
ENDCHAR
STARTCHAR a577
ENCODING 42359
SWIDTH 96 0
DWIDTH 16 0
BBX 16 16 0 -2
BITMAP
0080
0480
7e80
4482
4486
4488
4490
44a0
44c0
4580
7c80
4481
0081
007f
0000
0000
ENDCHAR
STARTCHAR a578
ENCODING 42360
SWIDTH 96 0
DWIDTH 16 0
BBX 16 16 0 -2
BITMAP
0100
0200
0410
0808
1004
7ffe
0001
0000
1ffc
1004
1004
1004
1ffc
1004
0000
0000
ENDCHAR
STARTCHAR a579
ENCODING 42361
SWIDTH 96 0
DWIDTH 16 0
BBX 16 16 0 -2
BITMAP
0800
0802
0fff
1002
2022
4ff2
0422
0422
0422
07e2
0422
0002
0014
0008
0000
0000
ENDCHAR
STARTCHAR a57a
ENCODING 42362
SWIDTH 96 0
DWIDTH 16 0
BBX 16 16 0 -2
BITMAP
0010
0090
0498
7e90
4490
4490
4490
4490
4490
7d08
450c
0207
0402
0800
0000
0000
ENDCHAR
STARTCHAR a57b
ENCODING 42363
SWIDTH 96 0
DWIDTH 16 0
BBX 16 16 0 -2
BITMAP
0020
0420
7e20
4422
45ff
4422
4422
4422
7c42
4482
0082
0102
0214
0408
0000
0000
ENDCHAR
STARTCHAR a57c
ENCODING 42364
SWIDTH 96 0
DWIDTH 16 0
BBX 16 16 0 -2
BITMAP
0000
0002
7fff
2222
2222
2222
2222
2222
241e
2802
2002
3ffe
2002
0000
0000
0000
ENDCHAR
STARTCHAR a57d
ENCODING 42365
SWIDTH 96 0
DWIDTH 16 0
BBX 16 16 0 -2
BITMAP
0002
3fff
2002
2082
2082
2082
2082
20c2
2122
2212
240a
2002
3ffe
2002
0000
0000
ENDCHAR
STARTCHAR a57e
ENCODING 42366
SWIDTH 96 0
DWIDTH 16 0
BBX 16 16 0 -2
BITMAP
0420
0420
0820
0fa0
10b0
10a8
3124
4923
0521
0220
0420
0820
1020
0020
0000
0000
ENDCHAR
STARTCHAR a5a1
ENCODING 42401
SWIDTH 96 0
DWIDTH 16 0
BBX 16 16 0 -2
BITMAP
0080
0088
0ffc
0888
0888
0888
0888
7fff
0080
0140
0220
0418
1807
6002
0000
0000
ENDCHAR
STARTCHAR a5a2
ENCODING 42402
SWIDTH 96 0
DWIDTH 16 0
BBX 16 16 0 -2
BITMAP
0080
0880
0888
0ffc
1080
2080
0082
7fff
0080
0140
0220
0418
0807
3002
0000
0000
ENDCHAR
STARTCHAR a5a3
ENCODING 42403
SWIDTH 96 0
DWIDTH 16 0
BBX 16 16 0 -2
BITMAP
0800
08fe
0802
7f42
1144
1144
2124
1228
0a28
0410
0a28
1144
2087
0302
0000
0000
ENDCHAR
STARTCHAR a5a4
ENCODING 42404
SWIDTH 96 0
DWIDTH 16 0
BBX 16 16 0 -2
BITMAP
0804
0bfe
0844
7e44
1248
1248
125e
2482
1482
0882
1502
2502
4214
0408
0000
0000
ENDCHAR
STARTCHAR a5a5
ENCODING 42405
SWIDTH 96 0
DWIDTH 16 0
BBX 16 16 0 -2
BITMAP
1ff8
0410
0412
043f
0802
0be2
102a
2044
0080
7fff
0080
0080
0280
0100
0000
0000
ENDCHAR
STARTCHAR a5a6
ENCODING 42406
SWIDTH 96 0
DWIDTH 16 0
BBX 16 16 0 -2
BITMAP
0100
0082
3fff
2002
4004
0400
0400
0430
04c0
0700
0404
0404
0404
03fc
0000
0000
ENDCHAR
STARTCHAR a5a7
ENCODING 42407
SWIDTH 96 0
DWIDTH 16 0
BBX 16 16 0 -2
BITMAP
0004
1ffe
1004
1004
1ffc
1200
1200
1208
13fc
1200
1201
2201
2201
41ff
0000
0000
ENDCHAR
STARTCHAR a5a8
ENCODING 42408
SWIDTH 96 0
DWIDTH 16 0
BBX 16 16 0 -2
BITMAP
0008
3ffc
2000
2000
2008
3ffc
2008
2008
2008
3ff8
2008
2000
2004
3ffe
0000
0000
ENDCHAR
STARTCHAR a5a9
ENCODING 42409
SWIDTH 96 0
DWIDTH 16 0
BBX 16 16 0 -2
BITMAP
0002
01ff
7e20
0820
0840
0882
08ff
0802
0e02
7802
2002
0022
0014
0008
0000
0000
ENDCHAR
STARTCHAR a5aa
ENCODING 42410
SWIDTH 96 0
DWIDTH 16 0
BBX 16 16 0 -2
BITMAP
0100
0100
0104
7ffe
0200
0200
0408
07fc
0840
1040
2040
4040
0042
3fff
0000
0000
ENDCHAR
STARTCHAR a5ab
ENCODING 42411
SWIDTH 96 0
DWIDTH 16 0
BBX 16 16 0 -2
BITMAP
0100
0080
0002
7fff
0080
0084
1ffe
1084
1084
1084
1094
1088
0080
0080
0000
0000
ENDCHAR
STARTCHAR a5ac
ENCODING 42412
SWIDTH 96 0
DWIDTH 16 0
BBX 16 16 0 -2
BITMAP
0100
0104
7ffe
0200
0480
0884
1ffe
2884
4884
0884
0894
0888
0080
0080
0000
0000
ENDCHAR
STARTCHAR a5ad
ENCODING 42413
SWIDTH 96 0
DWIDTH 16 0
BBX 16 16 0 -2
BITMAP
0004
3ffe
0080
0888
0488
0490
0082
7fff
0080
0080
0080
0080
0080
0080
0000
0000
ENDCHAR
STARTCHAR a5ae
ENCODING 42414
SWIDTH 96 0
DWIDTH 16 0
BBX 16 16 0 -2
BITMAP
0020
0820
0820
1022
12ff
2222
7c22
0822
1022
2442
7e42
2282
0114
0208
0000
0000
ENDCHAR
STARTCHAR a5af
ENCODING 42415
SWIDTH 96 0
DWIDTH 16 0
BBX 16 16 0 -2
BITMAP
0180
0220
0410
1ff8
0008
0220
0222
7fff
0220
0220
0420
0420
0820
1020
0000
0000
ENDCHAR
STARTCHAR a5b0
ENCODING 42416
SWIDTH 96 0
DWIDTH 16 0
BBX 16 16 0 -2
BITMAP
0210
7f18
0210
2210
3e10
2210
2010
3e20
0240
0248
0284
05fe
2481
1801
0000
0000
ENDCHAR
STARTCHAR a5b1
ENCODING 42417
SWIDTH 96 0
DWIDTH 16 0
BBX 16 16 0 -2
BITMAP
0220
0224
3ffe
0224
0224
1ffc
1220
1222
1fff
1222
042a
1824
6020
0020
0000
0000
ENDCHAR
STARTCHAR a5b2
ENCODING 42418
SWIDTH 96 0
DWIDTH 16 0
BBX 16 16 0 -2
BITMAP
0100
0090
0098
0410
2424
2423
2441
4480
0504
0604
0c04
1404
23fc
0000
0000
0000
ENDCHAR
STARTCHAR a5b3
ENCODING 42419
SWIDTH 96 0
DWIDTH 16 0
BBX 16 16 0 -2
BITMAP
0040
0048
0044
1fff
1040
1042
1024
1024
1018
1010
2030
2049
4185
0003
0000
0000
ENDCHAR
STARTCHAR a5b4
ENCODING 42420
SWIDTH 96 0
DWIDTH 16 0
BBX 16 16 0 -2
BITMAP
0800
0802
09ff
7e10
0810
0a10
0c10
1810
6810
0810
0810
0810
2850
1020
0000
0000
ENDCHAR
STARTCHAR a5b5
ENCODING 42421
SWIDTH 96 0
DWIDTH 16 0
BBX 16 16 0 -2
BITMAP
0800
0800
09fe
7e44
0844
0a48
0c5f
1841
6881
0881
0901
0911
2a0a
1004
0000
0000
ENDCHAR
STARTCHAR a5b6
ENCODING 42422
SWIDTH 96 0
DWIDTH 16 0
BBX 16 16 0 -2
BITMAP
0800
0810
0898
7e90
0890
0a90
0c90
1890
6890
0908
090c
0a07
2c02
1000
0000
0000
ENDCHAR
STARTCHAR a5b7
ENCODING 42423
SWIDTH 96 0
DWIDTH 16 0
BBX 16 16 0 -2
BITMAP
0820
0820
0820
7f20
0830
0a2c
0c26
1822
6820
0820
0820
0820
2820
1020
0000
0000
ENDCHAR
STARTCHAR a5b8
ENCODING 42424
SWIDTH 96 0
DWIDTH 16 0
BBX 16 16 0 -2
BITMAP
003c
1fc0
1000
1004
1ffe
1040
1040
11c0
1070
1058
2048
2040
4040
0040
0000
0000
ENDCHAR
STARTCHAR a5b9
ENCODING 42425
SWIDTH 96 0
DWIDTH 16 0
BBX 16 16 0 -2
BITMAP
0008
0ffc
0808
0808
0808
0ff8
0808
0808
0808
0ff8
0808
0000
0002
7fff
0000
0000
ENDCHAR
STARTCHAR a5ba
ENCODING 42426
SWIDTH 96 0
DWIDTH 16 0
BBX 16 16 0 -2
BITMAP
0080
0088
0084
0082
7fff
0080
0888
0888
0888
0888
1088
608f
0080
0080
0000
0000
ENDCHAR
STARTCHAR a5bb
ENCODING 42427
SWIDTH 96 0
DWIDTH 16 0
BBX 16 16 0 -2
BITMAP
0080
0080
0084
3ffe
02a0
02a0
02a0
0490
0490
0888
17f7
6082
0080
0080
0000
0000
ENDCHAR
STARTCHAR a5bc
ENCODING 42428
SWIDTH 96 0
DWIDTH 16 0
BBX 16 16 0 -2
BITMAP
0080
0084
3ffe
0080
0082
7fff
01c0
02a0
0490
0888
1087
2082
0080
0080
0000
0000
ENDCHAR
STARTCHAR a5bd
ENCODING 42429
SWIDTH 96 0
DWIDTH 16 0
BBX 16 16 0 -2
BITMAP
0080
0082
7fff
0080
0084
3ffe
01c0
02a0
0490
088c
1087
6082
0080
0080
0000
0000
ENDCHAR
STARTCHAR a5be
ENCODING 42430
SWIDTH 96 0
DWIDTH 16 0
BBX 16 16 0 -2
BITMAP
0420
0420
0420
7fa0
0420
0c20
0e20
1520
1520
2420
0421
0421
041f
0400
0000
0000
ENDCHAR
STARTCHAR a5bf
ENCODING 42431
SWIDTH 96 0
DWIDTH 16 0
BBX 16 16 0 -2
BITMAP
0004
3ffe
0080
0080
0080
0080
0888
08fc
0880
0880
0880
0880
0882
7fff
0000
0000
ENDCHAR
STARTCHAR a5c0
ENCODING 42432
SWIDTH 96 0
DWIDTH 16 0
BBX 16 16 0 -2
BITMAP
0008
0ffc
0908
08c8
0848
0808
7fff
0908
08c8
1048
1ffe
0008
0050
0020
0000
0000
ENDCHAR
STARTCHAR a5c1
ENCODING 42433
SWIDTH 96 0
DWIDTH 16 0
BBX 16 16 0 -2
BITMAP
3ffc
2008
2008
3ff8
2100
2104
3ffe
2100
2080
2080
2440
2821
3019
2007
0000
0000
ENDCHAR
STARTCHAR a5c2
ENCODING 42434
SWIDTH 96 0
DWIDTH 16 0
BBX 16 16 0 -2
BITMAP
0008
007c
1fc0
1040
1042
1fff
1040
1020
1120
1210
1410
1809
13e5
0003
0000
0000
ENDCHAR
STARTCHAR a5c3
ENCODING 42435
SWIDTH 96 0
DWIDTH 16 0
BBX 16 16 0 -2
BITMAP
0100
0080
0f80
0084
008c
3ed0
02e0
02a0
0490
0888
1087
2082
0280
0100
0000
0000
ENDCHAR
STARTCHAR a5c4
ENCODING 42436
SWIDTH 96 0
DWIDTH 16 0
BBX 16 16 0 -2
BITMAP
2020
1820
0820
4020
3022
13ff
0420
0820
1020
7020
1020
1020
1020
1020
0000
0000
ENDCHAR
STARTCHAR a5c5
ENCODING 42437
SWIDTH 96 0
DWIDTH 16 0
BBX 16 16 0 -2
BITMAP
2000
1802
0bff
4020
3020
1020
0420
0820
1020
7020
1020
1020
10a0
1040
0000
0000
ENDCHAR
STARTCHAR a5c6
ENCODING 42438
SWIDTH 96 0
DWIDTH 16 0
BBX 16 16 0 -2
BITMAP
2000
13fe
0902
0102
4102
2102
1114
0108
0500
0900
1100
6102
2102
20ff
0000
0000
ENDCHAR
STARTCHAR a5c7
ENCODING 42439
SWIDTH 96 0
DWIDTH 16 0
BBX 16 16 0 -2
BITMAP
2204
14fe
0884
1484
2484
4484
0ca4
1498
2480
4480
0481
0481
287f
1000
0000
0000
ENDCHAR
STARTCHAR a5c8
ENCODING 42440
SWIDTH 96 0
DWIDTH 16 0
BBX 16 16 0 -2
BITMAP
0100
0082
7fff
0100
0210
0420
1840
0480
0300
0210
0408
0804
3ffe
0002
0000
0000
ENDCHAR
STARTCHAR a5c9
ENCODING 42441
SWIDTH 96 0
DWIDTH 16 0
BBX 16 16 0 -2
BITMAP
0004
3ffe
0080
0080
0080
0088
1ffc
0080
00a0
0098
0088
0082
7fff
0000
0000
0000
ENDCHAR
STARTCHAR a5ca
ENCODING 42442
SWIDTH 96 0
DWIDTH 16 0
BBX 16 16 0 -2
BITMAP
001c
00e0
0f20
0920
0920
0920
0920
0910
1110
1148
1124
2153
2192
4000
0000
0000
ENDCHAR
STARTCHAR a5cb
ENCODING 42443
SWIDTH 96 0
DWIDTH 16 0
BBX 16 16 0 -2
BITMAP
0004
3ffe
0400
0400
0410
07f8
0410
0910
0890
0890
1010
1011
1711
780f
0000
0000
ENDCHAR
STARTCHAR a5cc
ENCODING 42444
SWIDTH 96 0
DWIDTH 16 0
BBX 16 16 0 -2
BITMAP
0410
0410
0412
7fff
0410
0410
0410
07f0
0410
0410
0410
0410
07f0
0410
0000
0000
ENDCHAR
STARTCHAR a5cd
ENCODING 42445
SWIDTH 96 0
DWIDTH 16 0
BBX 16 16 0 -2
BITMAP
0080
0880
0884
1ffe
1080
2080
4080
0088
1ffc
0080
0080
0080
0082
7fff
0000
0000
ENDCHAR
STARTCHAR a5ce
ENCODING 42446
SWIDTH 96 0
DWIDTH 16 0
BBX 16 16 0 -2
BITMAP
0004
1ffe
1084
1084
1ffc
1084
1084
1ffc
1084
1084
1084
2084
2094
4008
0000
0000
ENDCHAR
STARTCHAR a5cf
ENCODING 42447
SWIDTH 96 0
DWIDTH 16 0
BBX 16 16 0 -2
BITMAP
0004
1ffe
1084
1084
1ffc
1084
1084
1ffc
1084
1084
1094
1089
2081
407f
0000
0000
ENDCHAR
STARTCHAR a5d0
ENCODING 42448
SWIDTH 96 0
DWIDTH 16 0
BBX 16 16 0 -2
BITMAP
0000
0000
3ffe
2082
2082
2082
2082
3ffe
2082
2082
2082
2082
3ffe
2002
0000
0000
ENDCHAR
STARTCHAR a5d1
ENCODING 42449
SWIDTH 96 0
DWIDTH 16 0
BBX 16 16 0 -2
BITMAP
0080
0080
0080
0082
3fff
2082
2082
2082
3ffe
2082
2082
2082
3ffe
2002
0000
0000
ENDCHAR
STARTCHAR a5d2
ENCODING 42450
SWIDTH 96 0
DWIDTH 16 0
BBX 16 16 0 -2
BITMAP
0002
3fff
2082
2082
3ffe
2082
2082
3ffe
2082
0080
0080
0080
0080
0080
0000
0000
ENDCHAR
STARTCHAR a5d3
ENCODING 42451
SWIDTH 96 0
DWIDTH 16 0
BBX 16 16 0 -2
BITMAP
0080
0080
0084
1ffe
1084
1084
1ffc
1084
1084
1ffc
1084
0080
0080
0080
0000
0000
ENDCHAR
STARTCHAR a5d4
ENCODING 42452
SWIDTH 96 0
DWIDTH 16 0
BBX 16 16 0 -2
BITMAP
0004
3ffe
0084
0088
0480
0488
04fc
0880
0c80
1280
1180
2080
4040
003f
0000
0000
ENDCHAR
STARTCHAR a5d5
ENCODING 42453
SWIDTH 96 0
DWIDTH 16 0
BBX 16 16 0 -2
BITMAP
0100
0200
0404
1ffe
1004
1004
1004
1ffc
1004
1004
1004
1004
1ffc
1004
0000
0000
ENDCHAR
STARTCHAR a5d6
ENCODING 42454
SWIDTH 96 0
DWIDTH 16 0
BBX 16 16 0 -2
BITMAP
0040
0040
1ffe
1042
1044
17fc
1004
1208
1110
10a0
1040
20b0
230f
4c02
0000
0000
ENDCHAR
STARTCHAR a5d7
ENCODING 42455
SWIDTH 96 0
DWIDTH 16 0
BBX 16 16 0 -2
BITMAP
0000
0004
1ffe
1224
1224
1224
1224
1224
1224
1224
1224
1224
7fff
0000
0000
0000
ENDCHAR
STARTCHAR a5d8
ENCODING 42456
SWIDTH 96 0
DWIDTH 16 0
BBX 16 16 0 -2
BITMAP
0008
1ffc
1008
1008
1008
1ff8
1008
1008
1ff8
1008
1008
1008
1ff8
1008
0000
0000
ENDCHAR
STARTCHAR a5d9
ENCODING 42457
SWIDTH 96 0
DWIDTH 16 0
BBX 16 16 0 -2
BITMAP
0ff8
0010
0120
00c0
0042
7fff
00c2
0144
0240
0440
0840
1040
0140
0080
0000
0000
ENDCHAR
STARTCHAR a5da
ENCODING 42458
SWIDTH 96 0
DWIDTH 16 0
BBX 16 16 0 -2
BITMAP
0800
0808
0ffc
0880
1080
2080
0082
7fff
0080
0140
0220
0410
080e
3004
0000
0000
ENDCHAR
STARTCHAR a5db
ENCODING 42459
SWIDTH 96 0
DWIDTH 16 0
BBX 16 16 0 -2
BITMAP
0002
7fff
0100
0200
0200
0404
0ffe
1404
2404
4404
0404
0404
07fc
0404
0000
0000
ENDCHAR
STARTCHAR a5dc
ENCODING 42460
SWIDTH 96 0
DWIDTH 16 0
BBX 16 16 0 -2
BITMAP
0008
1ffc
0000
0000
0002
7fff
0080
0890
1888
2086
4082
0080
0080
0080
0000
0000
ENDCHAR
STARTCHAR a5dd
ENCODING 42461
SWIDTH 96 0
DWIDTH 16 0
BBX 16 16 0 -2
BITMAP
0008
001c
1fe0
0080
0082
7fff
0080
01c0
02a0
0490
088c
1087
2082
0080
0000
0000
ENDCHAR
STARTCHAR a5de
ENCODING 42462
SWIDTH 96 0
DWIDTH 16 0
BBX 16 16 0 -2
BITMAP
0100
0080
0082
3fff
2002
4044
0240
0220
0420
0810
0808
1007
2002
0000
0000
0000
ENDCHAR
STARTCHAR a5df
ENCODING 42463
SWIDTH 96 0
DWIDTH 16 0
BBX 16 16 0 -2
BITMAP
0100
0080
0004
3ffe
0000
0008
0808
0410
0220
0220
0240
0002
7fff
0000
0000
0000
ENDCHAR
STARTCHAR a5e0
ENCODING 42464
SWIDTH 96 0
DWIDTH 16 0
BBX 16 16 0 -2
BITMAP
0010
1ff8
0020
0040
0084
3e8c
02f0
0490
0888
0887
1082
2280
0102
7fff
0000
0000
ENDCHAR
STARTCHAR a5e1
ENCODING 42465
SWIDTH 96 0
DWIDTH 16 0
BBX 16 16 0 -2
BITMAP
0078
1f80
0080
0088
1ffc
0080
0102
7fff
0400
0800
1008
2004
7ffe
2002
0000
0000
ENDCHAR
STARTCHAR a5e2
ENCODING 42466
SWIDTH 96 0
DWIDTH 16 0
BBX 16 16 0 -2
BITMAP
0018
07e0
0400
0404
07fe
0410
0410
0412
7fff
0000
0100
0300
0400
0800
0000
0000
ENDCHAR
STARTCHAR a5e3
ENCODING 42467
SWIDTH 96 0
DWIDTH 16 0
BBX 16 16 0 -2
BITMAP
0018
07e0
0400
0404
07fe
0410
0410
0412
7fff
0000
0020
0018
000c
0004
0000
0000
ENDCHAR
STARTCHAR a5e4
ENCODING 42468
SWIDTH 96 0
DWIDTH 16 0
BBX 16 16 0 -2
BITMAP
0820
0820
0920
0fa0
0820
0820
0920
3fa0
2120
2120
2121
2121
3f21
211f
0000
0000
ENDCHAR
STARTCHAR a5e5
ENCODING 42469
SWIDTH 96 0
DWIDTH 16 0
BBX 16 16 0 -2
BITMAP
0004
3ffe
0200
0200
03fc
0508
0488
0448
0508
0488
0448
0810
0022
7fff
0000
0000
ENDCHAR
STARTCHAR a5e6
ENCODING 42470
SWIDTH 96 0
DWIDTH 16 0
BBX 16 16 0 -2
BITMAP
0080
0082
7fff
0408
0806
1412
2220
0140
0080
0140
0220
0418
1807
6002
0000
0000
ENDCHAR
STARTCHAR a5e7
ENCODING 42471
SWIDTH 96 0
DWIDTH 16 0
BBX 16 16 0 -2
BITMAP
0100
0080
0082
7fff
0220
0220
0a28
0a24
1222
2222
0220
0420
08a0
0040
0000
0000
ENDCHAR
STARTCHAR a5e8
ENCODING 42472
SWIDTH 96 0
DWIDTH 16 0
BBX 16 16 0 -2
BITMAP
0100
0082
7fff
0100
0230
0440
0f88
0118
0220
0460
1890
0308
0c06
3002
0000
0000
ENDCHAR
STARTCHAR a5e9
ENCODING 42473
SWIDTH 96 0
DWIDTH 16 0
BBX 16 16 0 -2
BITMAP
0440
0420
0802
0bff
1840
2844
487e
0844
0844
0844
0884
0884
0928
0a10
0000
0000
ENDCHAR
STARTCHAR a5ea
ENCODING 42474
SWIDTH 96 0
DWIDTH 16 0
BBX 16 16 0 -2
BITMAP
0440
0422
0bff
0800
1808
28fc
4888
0888
0888
0888
0909
0909
0a09
0c07
0000
0000
ENDCHAR
STARTCHAR a5eb
ENCODING 42475
SWIDTH 96 0
DWIDTH 16 0
BBX 16 16 0 -2
BITMAP
0420
0420
0820
0922
1926
2928
4a30
0820
0850
0888
0888
0904
0a07
0c02
0000
0000
ENDCHAR
STARTCHAR a5ec
ENCODING 42476
SWIDTH 96 0
DWIDTH 16 0
BBX 16 16 0 -2
BITMAP
0404
05fe
0444
0844
1fff
2844
4844
09fc
0844
0840
0880
0880
0900
0a00
0000
0000
ENDCHAR
STARTCHAR a5ed
ENCODING 42477
SWIDTH 96 0
DWIDTH 16 0
BBX 16 16 0 -2
BITMAP
0420
0420
0820
11fc
3020
5020
1020
13fe
1020
1020
1050
1088
1104
1202
0000
0000
ENDCHAR
STARTCHAR a5ee
ENCODING 42478
SWIDTH 96 0
DWIDTH 16 0
BBX 16 16 0 -2
BITMAP
0800
0804
0bfe
1040
3040
5044
13fe
1084
1084
1104
1104
1104
1fff
1000
0000
0000
ENDCHAR
STARTCHAR a5ef
ENCODING 42479
SWIDTH 96 0
DWIDTH 16 0
BBX 16 16 0 -2
BITMAP
0440
0450
0448
0848
187e
2bc0
4844
0828
0830
0820
0850
0889
0b05
0803
0000
0000
ENDCHAR
STARTCHAR a5f0
ENCODING 42480
SWIDTH 96 0
DWIDTH 16 0
BBX 16 16 0 -2
BITMAP
0420
0420
0822
0bff
1820
2870
4870
08a8
08a8
0924
0a23
0c22
0820
0820
0000
0000
ENDCHAR
STARTCHAR a5f1
ENCODING 42481
SWIDTH 96 0
DWIDTH 16 0
BBX 16 16 0 -2
BITMAP
0428
0424
0824
0820
1fff
2820
4820
0850
0850
0888
0888
0904
0a07
0c02
0000
0000
ENDCHAR
STARTCHAR a5f2
ENCODING 42482
SWIDTH 96 0
DWIDTH 16 0
BBX 16 16 0 -2
BITMAP
0420
0420
0822
0bff
1a22
2a22
4a22
0a22
0bfe
0a22
0820
0820
0820
0820
0000
0000
ENDCHAR
STARTCHAR a5f3
ENCODING 42483
SWIDTH 96 0
DWIDTH 16 0
BBX 16 16 0 -2
BITMAP
0820
0920
1124
11fe
3220
5220
1420
1022
1fff
1020
1020
1020
1020
1020
0000
0000
ENDCHAR
STARTCHAR a5f4
ENCODING 42484
SWIDTH 96 0
DWIDTH 16 0
BBX 16 16 0 -2
BITMAP
0400
040c
05f0
0820
1820
2822
4fff
0820
0820
0820
0824
0bfe
0800
0800
0000
0000
ENDCHAR
STARTCHAR a5f5
ENCODING 42485
SWIDTH 96 0
DWIDTH 16 0
BBX 16 16 0 -2
BITMAP
0440
0482
093f
0a22
1222
3222
5222
1222
12a2
132a
1224
1020
1020
1020
0000
0000
ENDCHAR
STARTCHAR a5f6
ENCODING 42486
SWIDTH 96 0
DWIDTH 16 0
BBX 16 16 0 -2
BITMAP
0410
0510
0910
0911
1912
29dc
4910
0910
0910
0930
0951
0991
090f
0800
0000
0000
ENDCHAR
STARTCHAR a5f7
ENCODING 42487
SWIDTH 96 0
DWIDTH 16 0
BBX 16 16 0 -2
BITMAP
0410
0490
0888
0908
1907
2a02
4df8
0888
0888
0888
0908
0908
0a50
0820
0000
0000
ENDCHAR
STARTCHAR a5f8
ENCODING 42488
SWIDTH 96 0
DWIDTH 16 0
BBX 16 16 0 -2
BITMAP
0080
0140
0220
0410
0888
1087
6082
0480
04f8
0480
0480
0480
0482
7fff
0000
0000
ENDCHAR
STARTCHAR a5f9
ENCODING 42489
SWIDTH 96 0
DWIDTH 16 0
BBX 16 16 0 -2
BITMAP
0800
13fe
2104
5108
1110
1120
117f
1141
1122
1114
1108
1214
1462
1181
0000
0000
ENDCHAR
STARTCHAR a5fa
ENCODING 42490
SWIDTH 96 0
DWIDTH 16 0
BBX 16 16 0 -2
BITMAP
0080
0886
0488
0490
0082
7fff
0220
0220
0220
0420
0421
0821
101f
2000
0000
0000
ENDCHAR
STARTCHAR a5fb
ENCODING 42491
SWIDTH 96 0
DWIDTH 16 0
BBX 16 16 0 -2
BITMAP
2008
2448
2288
2108
2288
2448
2008
3ff8
2448
0440
0440
0841
1041
607f
0000
0000
ENDCHAR
STARTCHAR a5fc
ENCODING 42492
SWIDTH 96 0
DWIDTH 16 0
BBX 16 16 0 -2
BITMAP
0240
0240
324c
0a50
0a60
0240
0260
0e50
324c
0440
0441
0841
1041
603f
0000
0000
ENDCHAR
STARTCHAR a5fd
ENCODING 42493
SWIDTH 96 0
DWIDTH 16 0
BBX 16 16 0 -2
BITMAP
0080
0888
0ffc
0880
1080
0082
7fff
0240
0240
0440
0441
0841
1041
603f
0000
0000
ENDCHAR
STARTCHAR a5fe
ENCODING 42494
SWIDTH 96 0
DWIDTH 16 0
BBX 16 16 0 -2
BITMAP
0080
0140
0220
0410
0808
17f7
6082
0080
0080
07f0
0080
0080
0084
3ffe
0000
0000
ENDCHAR
STARTCHAR a640
ENCODING 42560
SWIDTH 96 0
DWIDTH 16 0
BBX 16 16 0 -2
BITMAP
0220
0220
0224
3ffe
0220
0220
0220
0222
7fff
0000
0220
0618
080c
1004
0000
0000
ENDCHAR
STARTCHAR a641
ENCODING 42561
SWIDTH 96 0
DWIDTH 16 0
BBX 16 16 0 -2
BITMAP
3ffe
0080
0088
0ffc
0888
0888
0ff8
0888
0888
7fff
0808
0808
0828
0810
0000
0000
ENDCHAR
STARTCHAR a642
ENCODING 42562
SWIDTH 96 0
DWIDTH 16 0
BBX 16 16 0 -2
BITMAP
2040
1840
0842
0046
07c8
08f0
0960
1150
7248
1244
1447
1842
1140
1080
0000
0000
ENDCHAR
STARTCHAR a643
ENCODING 42563
SWIDTH 96 0
DWIDTH 16 0
BBX 16 16 0 -2
BITMAP
0082
3fc2
0802
0812
0f92
1092
1092
2912
4512
0212
0402
0802
100a
2004
0000
0000
ENDCHAR
STARTCHAR a644
ENCODING 42564
SWIDTH 96 0
DWIDTH 16 0
BBX 16 16 0 -2
BITMAP
0042
3fe2
0882
0892
0892
0892
7ff2
0892
0892
0892
1082
1082
208a
0084
0000
0000
ENDCHAR
STARTCHAR a645
ENCODING 42565
SWIDTH 96 0
DWIDTH 16 0
BBX 16 16 0 -2
BITMAP
0a02
0902
0812
09d2
7e12
0812
0892
0912
0612
0412
0a02
1242
214a
00c4
0000
0000
ENDCHAR
STARTCHAR a646
ENCODING 42566
SWIDTH 96 0
DWIDTH 16 0
BBX 16 16 0 -2
BITMAP
0802
0802
1fd2
1552
2552
4552
0952
0a52
1252
2252
0442
0842
128a
0104
0000
0000
ENDCHAR
STARTCHAR a647
ENCODING 42567
SWIDTH 96 0
DWIDTH 16 0
BBX 16 16 0 -2
BITMAP
0081
1fc1
1089
1089
1f89
1089
1089
1f89
1089
1089
1081
2081
2285
4102
0000
0000
ENDCHAR
STARTCHAR a648
ENCODING 42568
SWIDTH 96 0
DWIDTH 16 0
BBX 16 16 0 -2
BITMAP
0080
088c
0886
119a
0060
0380
0c80
7084
0ffe
0084
0104
0204
0428
1810
0000
0000
ENDCHAR
STARTCHAR a649
ENCODING 42569
SWIDTH 96 0
DWIDTH 16 0
BBX 16 16 0 -2
BITMAP
0400
0802
0fff
1002
2022
4822
1452
1292
1112
1292
1452
1ff2
1002
000c
0000
0000
ENDCHAR
STARTCHAR a64a
ENCODING 42570
SWIDTH 96 0
DWIDTH 16 0
BBX 16 16 0 -2
BITMAP
0004
3ffe
2000
2ff8
2080
2080
2080
27f0
2080
2080
2080
2ff8
2000
3fff
0000
0000
ENDCHAR
STARTCHAR a64b
ENCODING 42571
SWIDTH 96 0
DWIDTH 16 0
BBX 16 16 0 -2
BITMAP
0004
7ffe
4038
47c0
4400
4408
47fc
4420
4420
4420
4820
5020
4022
7fff
0000
0000
ENDCHAR
STARTCHAR a64c
ENCODING 42572
SWIDTH 96 0
DWIDTH 16 0
BBX 16 16 0 -2
BITMAP
0302
7c7f
4042
4042
4242
7f42
4042
4042
4042
4754
7848
0040
0040
0040
0000
0000
ENDCHAR
STARTCHAR a64d
ENCODING 42573
SWIDTH 96 0
DWIDTH 16 0
BBX 16 16 0 -2
BITMAP
0400
07f0
0820
1044
2ffe
0800
09fc
0908
0908
0928
1111
1101
2101
40ff
0000
0000
ENDCHAR
STARTCHAR a64e
ENCODING 42574
SWIDTH 96 0
DWIDTH 16 0
BBX 16 16 0 -2
BITMAP
0080
0082
7fff
0080
0088
1ffc
0000
0008
0ffc
0808
0808
0808
0ff8
0808
0000
0000
ENDCHAR
STARTCHAR a64f
ENCODING 42575
SWIDTH 96 0
DWIDTH 16 0
BBX 16 16 0 -2
BITMAP
0080
0082
7fff
0080
0084
1ffe
1084
1084
1ffc
0480
0300
02c0
0c38
7007
0000
0000
ENDCHAR
STARTCHAR a650
ENCODING 42576
SWIDTH 96 0
DWIDTH 16 0
BBX 16 16 0 -2
BITMAP
0002
3fff
2002
2012
2ffa
2002
27f2
2412
2412
27f2
2412
2002
200a
2004
0000
0000
ENDCHAR
STARTCHAR a651
ENCODING 42577
SWIDTH 96 0
DWIDTH 16 0
BBX 16 16 0 -2
BITMAP
0008
0ffc
0808
0808
0ff8
0080
0082
3fff
2082
2082
208a
2084
0080
0080
0000
0000
ENDCHAR
STARTCHAR a652
ENCODING 42578
SWIDTH 96 0
DWIDTH 16 0
BBX 16 16 0 -2
BITMAP
0020
0420
7e20
4420
4424
47fe
4420
4420
4420
7c20
4420
0020
0022
07ff
0000
0000
ENDCHAR
STARTCHAR a653
ENCODING 42579
SWIDTH 96 0
DWIDTH 16 0
BBX 16 16 0 -2
BITMAP
0004
01fe
7c20
4420
4422
47ff
4420
4420
7c20
4420
0020
0020
00a0
0040
0000
0000
ENDCHAR
STARTCHAR a654
ENCODING 42580
SWIDTH 96 0
DWIDTH 16 0
BBX 16 16 0 -2
BITMAP
0008
0008
7c08
47ff
4408
4408
4488
4448
4448
7c08
4408
0048
0028
0010
0000
0000
ENDCHAR
STARTCHAR a655
ENCODING 42581
SWIDTH 96 0
DWIDTH 16 0
BBX 16 16 0 -2
BITMAP
0200
03f8
0408
0a10
1120
00c0
0330
0c0f
7002
07f8
0408
0408
07f8
0408
0000
0000
ENDCHAR
STARTCHAR a656
ENCODING 42582
SWIDTH 96 0
DWIDTH 16 0
BBX 16 16 0 -2
BITMAP
0100
0200
0402
3fff
2002
2022
23f2
2222
2222
23e2
2222
2002
200a
2004
0000
0000
ENDCHAR
STARTCHAR a657
ENCODING 42583
SWIDTH 96 0
DWIDTH 16 0
BBX 16 16 0 -2
BITMAP
0100
03fc
0208
0610
0920
00c0
0300
0c04
77fe
0404
0404
0404
07fc
0404
0000
0000
ENDCHAR
STARTCHAR a658
ENCODING 42584
SWIDTH 96 0
DWIDTH 16 0
BBX 16 16 0 -2
BITMAP
0080
0140
0220
0410
180c
67f3
0000
0010
07f8
0410
0410
0410
07f0
0410
0000
0000
ENDCHAR
STARTCHAR a659
ENCODING 42585
SWIDTH 96 0
DWIDTH 16 0
BBX 16 16 0 -2
BITMAP
0040
0082
7cff
4500
4608
45fc
4408
4410
4420
7c40
4480
0101
0101
00ff
0000
0000
ENDCHAR
STARTCHAR a65a
ENCODING 42586
SWIDTH 96 0
DWIDTH 16 0
BBX 16 16 0 -2
BITMAP
0008
003c
1fc0
1000
1002
1fff
1000
1004
13fe
1204
1204
2204
43fc
0204
0000
0000
ENDCHAR
STARTCHAR a65b
ENCODING 42587
SWIDTH 96 0
DWIDTH 16 0
BBX 16 16 0 -2
BITMAP
0020
0420
7e20
4442
4582
4444
4428
4410
4420
7c40
4484
0102
03ff
0001
0000
0000
ENDCHAR
STARTCHAR a65c
ENCODING 42588
SWIDTH 96 0
DWIDTH 16 0
BBX 16 16 0 -2
BITMAP
0004
040e
7ef0
4420
4420
4422
47ff
4420
4420
7c20
4420
0021
0021
001f
0000
0000
ENDCHAR
STARTCHAR a65d
ENCODING 42589
SWIDTH 96 0
DWIDTH 16 0
BBX 16 16 0 -2
BITMAP
0002
3fff
2082
2082
2ffa
2082
2142
2122
2212
240a
280a
2002
3ffe
2002
0000
0000
ENDCHAR
STARTCHAR a65e
ENCODING 42590
SWIDTH 96 0
DWIDTH 16 0
BBX 16 16 0 -2
BITMAP
0002
7fff
4002
4002
4ff2
4812
4812
4812
4812
4ff2
4812
4002
7ffe
4002
0000
0000
ENDCHAR
STARTCHAR a65f
ENCODING 42591
SWIDTH 96 0
DWIDTH 16 0
BBX 16 16 0 -2
BITMAP
0002
7fff
4002
47f2
4022
4042
4082
5ffa
4082
4082
4082
4182
7ffe
4002
0000
0000
ENDCHAR
STARTCHAR a660
ENCODING 42592
SWIDTH 96 0
DWIDTH 16 0
BBX 16 16 0 -2
BITMAP
0802
0882
0892
0892
7e92
0892
0892
0892
0e92
7892
2112
0102
0202
0002
0000
0000
ENDCHAR
STARTCHAR a661
ENCODING 42593
SWIDTH 96 0
DWIDTH 16 0
BBX 16 16 0 -2
BITMAP
0020
1020
1120
1124
113e
7de4
1324
1124
1134
1128
1121
1d01
7101
20ff
0000
0000
ENDCHAR
STARTCHAR a662
ENCODING 42594
SWIDTH 96 0
DWIDTH 16 0
BBX 16 16 0 -2
BITMAP
0100
0102
7fff
0200
0220
0420
0424
09fe
1820
2820
4820
0822
0bff
0800
0000
0000
ENDCHAR
STARTCHAR a663
ENCODING 42595
SWIDTH 96 0
DWIDTH 16 0
BBX 16 16 0 -2
BITMAP
0080
0088
1ffc
0080
0080
0082
7fff
0080
0088
1ffc
0080
0080
0082
7fff
0000
0000
ENDCHAR
STARTCHAR a664
ENCODING 42596
SWIDTH 96 0
DWIDTH 16 0
BBX 16 16 0 -2
BITMAP
0804
08fe
0800
7f02
09ff
0840
0840
08fe
0f02
7802
2002
0022
0014
0008
0000
0000
ENDCHAR
STARTCHAR a665
ENCODING 42597
SWIDTH 96 0
DWIDTH 16 0
BBX 16 16 0 -2
BITMAP
0800
0804
09fe
0904
0904
7f04
0904
09fc
0904
0f00
7900
2101
0101
00ff
0000
0000
ENDCHAR
STARTCHAR a666
ENCODING 42598
SWIDTH 96 0
DWIDTH 16 0
BBX 16 16 0 -2
BITMAP
0800
0804
08fe
0810
7f10
0812
09ff
0810
0f10
7810
2010
0010
0050
0020
0000
0000
ENDCHAR
STARTCHAR a667
ENCODING 42599
SWIDTH 96 0
DWIDTH 16 0
BBX 16 16 0 -2
BITMAP
0008
1ffc
1008
17e8
1108
13e8
1228
1628
1948
1088
1109
2209
2405
4002
0000
0000
ENDCHAR
STARTCHAR a668
ENCODING 42600
SWIDTH 96 0
DWIDTH 16 0
BBX 16 16 0 -2
BITMAP
0100
03f8
0410
0c20
12c0
0140
0644
38fe
0104
0608
1910
00e0
0700
3800
0000
0000
ENDCHAR
STARTCHAR a669
ENCODING 42601
SWIDTH 96 0
DWIDTH 16 0
BBX 16 16 0 -2
BITMAP
0080
0082
7fff
0080
1ff8
0088
1ff8
1080
1ffe
0082
014c
0620
1818
6007
0000
0000
ENDCHAR
STARTCHAR a66a
ENCODING 42602
SWIDTH 96 0
DWIDTH 16 0
BBX 16 16 0 -2
BITMAP
0080
0084
3ffe
0140
0220
0dd8
7007
1ffc
0200
07f0
0010
0210
0120
00c0
0000
0000
ENDCHAR
STARTCHAR a66b
ENCODING 42603
SWIDTH 96 0
DWIDTH 16 0
BBX 16 16 0 -2
BITMAP
0100
0084
3ffe
0800
0810
0ff8
0100
7fff
0210
0410
0220
01c0
0230
1c0c
0000
0000
ENDCHAR
STARTCHAR a66c
ENCODING 42604
SWIDTH 96 0
DWIDTH 16 0
BBX 16 16 0 -2
BITMAP
0804
08fe
0810
7e10
1212
13ff
1210
2210
1410
0810
1410
2210
4210
0010
0000
0000
ENDCHAR
STARTCHAR a66d
ENCODING 42605
SWIDTH 96 0
DWIDTH 16 0
BBX 16 16 0 -2
BITMAP
1000
1004
10fe
1004
7e04
1204
12fc
1284
2280
1480
0880
1481
2281
427f
0000
0000
ENDCHAR
STARTCHAR a66e
ENCODING 42606
SWIDTH 96 0
DWIDTH 16 0
BBX 16 16 0 -2
BITMAP
08fe
0802
0804
7e08
1210
1212
13ff
2210
1410
0810
1410
2210
4250
0020
0000
0000
ENDCHAR
STARTCHAR a66f
ENCODING 42607
SWIDTH 96 0
DWIDTH 16 0
BBX 16 16 0 -2
BITMAP
0810
0810
0810
7e92
129f
12f2
1392
2292
1494
0890
0890
1491
2281
427f
0000
0000
ENDCHAR
STARTCHAR a670
ENCODING 42608
SWIDTH 96 0
DWIDTH 16 0
BBX 16 16 0 -2
BITMAP
0800
0800
0802
7f7f
1142
1142
1142
2142
1242
0a42
0442
0a7e
1142
2000
0000
0000
ENDCHAR
STARTCHAR a671
ENCODING 42609
SWIDTH 96 0
DWIDTH 16 0
BBX 16 16 0 -2
BITMAP
0840
0842
087f
7e82
1302
1242
1222
2222
1402
0802
1402
2222
4214
0008
0000
0000
ENDCHAR
STARTCHAR a672
ENCODING 42610
SWIDTH 96 0
DWIDTH 16 0
BBX 16 16 0 -2
BITMAP
0100
0080
1ffe
1002
2024
0ff0
0040
0082
7fff
0080
0080
0080
0280
0100
0000
0000
ENDCHAR
STARTCHAR a673
ENCODING 42611
SWIDTH 96 0
DWIDTH 16 0
BBX 16 16 0 -2
BITMAP
0100
0102
7fff
0200
05fc
0808
0810
1822
2fff
4820
0820
0820
08a0
0840
0000
0000
ENDCHAR
STARTCHAR a674
ENCODING 42612
SWIDTH 96 0
DWIDTH 16 0
BBX 16 16 0 -2
BITMAP
0100
0080
3fff
2001
4012
0ff8
0080
0084
3ffe
0080
0080
0080
0280
0100
0000
0000
ENDCHAR
STARTCHAR a675
ENCODING 42613
SWIDTH 96 0
DWIDTH 16 0
BBX 16 16 0 -2
BITMAP
0100
0080
3fff
2001
4012
0012
3fff
0010
0410
0210
0210
0010
0050
0020
0000
0000
ENDCHAR
STARTCHAR a676
ENCODING 42614
SWIDTH 96 0
DWIDTH 16 0
BBX 16 16 0 -2
BITMAP
0100
3fff
2002
4034
00c0
1f00
0100
0104
7ffe
0100
0100
0101
0101
00ff
0000
0000
ENDCHAR
STARTCHAR a677
ENCODING 42615
SWIDTH 96 0
DWIDTH 16 0
BBX 16 16 0 -2
BITMAP
0080
1ffe
1002
2104
0100
7fff
0210
0410
0c20
0320
00c0
0120
0610
180c
0000
0000
ENDCHAR
STARTCHAR a678
ENCODING 42616
SWIDTH 96 0
DWIDTH 16 0
BBX 16 16 0 -2
BITMAP
0080
0084
3ffe
0080
0088
1ffc
0010
3ffe
0410
0210
0210
0010
0050
0020
0000
0000
ENDCHAR
STARTCHAR a679
ENCODING 42617
SWIDTH 96 0
DWIDTH 16 0
BBX 16 16 0 -2
BITMAP
0080
0490
0688
088c
1084
0000
0082
7fff
0080
0120
0210
040c
1806
6002
0000
0000
ENDCHAR
STARTCHAR a67a
ENCODING 42618
SWIDTH 96 0
DWIDTH 16 0
BBX 16 16 0 -2
BITMAP
1040
1042
107f
5480
5500
54fc
5404
5408
5410
5420
5441
7c81
4481
007f
0000
0000
ENDCHAR
STARTCHAR a67b
ENCODING 42619
SWIDTH 96 0
DWIDTH 16 0
BBX 16 16 0 -2
BITMAP
0802
0842
0842
0842
0842
7bde
0842
0842
0842
0842
1042
1042
2002
0002
0000
0000
ENDCHAR
STARTCHAR a67c
ENCODING 42620
SWIDTH 96 0
DWIDTH 16 0
BBX 16 16 0 -2
BITMAP
1004
107e
7c44
5444
5464
5454
5454
5444
5c44
5444
1085
1085
1105
1203
0000
0000
ENDCHAR
STARTCHAR a67d
ENCODING 42621
SWIDTH 96 0
DWIDTH 16 0
BBX 16 16 0 -2
BITMAP
0808
0618
0220
1ffe
0210
0210
0212
7fff
0210
0210
0410
0410
0810
1010
0000
0000
ENDCHAR
STARTCHAR a67e
ENCODING 42622
SWIDTH 96 0
DWIDTH 16 0
BBX 16 16 0 -2
BITMAP
0400
0404
07fe
0880
1088
2ffc
0880
0880
0882
7fff
0080
0080
0080
0080
0000
0000
ENDCHAR
STARTCHAR a6a1
ENCODING 42657
SWIDTH 96 0
DWIDTH 16 0
BBX 16 16 0 -2
BITMAP
0040
0050
0048
0042
7fff
0040
1f40
0440
0420
0410
0791
3809
1005
0002
0000
0000
ENDCHAR
STARTCHAR a6a2
ENCODING 42658
SWIDTH 96 0
DWIDTH 16 0
BBX 16 16 0 -2
BITMAP
3e10
0490
0490
0492
3c9f
20f2
2392
2092
3c92
049a
0491
0481
287f
1000
0000
0000
ENDCHAR
STARTCHAR a6a3
ENCODING 42659
SWIDTH 96 0
DWIDTH 16 0
BBX 16 16 0 -2
BITMAP
0840
0830
0810
0802
2fff
2d00
2900
4900
0900
0900
0900
0902
08ff
0800
0000
0000
ENDCHAR
STARTCHAR a6a4
ENCODING 42660
SWIDTH 96 0
DWIDTH 16 0
BBX 16 16 0 -2
BITMAP
0808
0808
080a
2dff
2a08
2808
4888
0848
0848
0808
0808
0808
0828
0810
0000
0000
ENDCHAR
STARTCHAR a6a5
ENCODING 42661
SWIDTH 96 0
DWIDTH 16 0
BBX 16 16 0 -2
BITMAP
0040
0050
0048
7ffe
0040
0840
0844
3f48
0848
0830
1050
1189
2605
0003
0000
0000
ENDCHAR
STARTCHAR a6a6
ENCODING 42662
SWIDTH 96 0
DWIDTH 16 0
BBX 16 16 0 -2
BITMAP
0040
0048
0044
1fff
1040
1042
1222
1f24
1024
1018
2030
2049
4185
0003
0000
0000
ENDCHAR
STARTCHAR a6a7
ENCODING 42663
SWIDTH 96 0
DWIDTH 16 0
BBX 16 16 0 -2
BITMAP
0040
0050
0048
1ffe
1040
1044
1424
1328
1128
1030
1048
1189
2605
4003
0000
0000
ENDCHAR
STARTCHAR a6a8
ENCODING 42664
SWIDTH 96 0
DWIDTH 16 0
BBX 16 16 0 -2
BITMAP
0040
0050
0048
1ffe
1040
1042
1f22
1124
1118
1510
1231
2049
4085
0003
0000
0000
ENDCHAR
STARTCHAR a6a9
ENCODING 42665
SWIDTH 96 0
DWIDTH 16 0
BBX 16 16 0 -2
BITMAP
0400
0400
0402
7f7f
0442
0542
0642
0c42
7442
0442
047e
0442
1400
0800
0000
0000
ENDCHAR
STARTCHAR a6aa
ENCODING 42666
SWIDTH 96 0
DWIDTH 16 0
BBX 16 16 0 -2
BITMAP
0800
0804
09fe
7e20
0820
0a20
0c20
1820
6820
0820
0822
0fff
2800
1000
0000
0000
ENDCHAR
STARTCHAR a6ab
ENCODING 42667
SWIDTH 96 0
DWIDTH 16 0
BBX 16 16 0 -2
BITMAP
0808
081c
0be0
0820
7e20
0a20
0c22
1bff
6820
0820
0820
0821
2821
101f
0000
0000
ENDCHAR
STARTCHAR a6ac
ENCODING 42668
SWIDTH 96 0
DWIDTH 16 0
BBX 16 16 0 -2
BITMAP
0440
0440
4442
447f
4484
44c4
4544
4c28
5428
6410
0428
0444
0487
0702
0000
0000
ENDCHAR
STARTCHAR a6ad
ENCODING 42669
SWIDTH 96 0
DWIDTH 16 0
BBX 16 16 0 -2
BITMAP
0008
0ffc
0808
0ff8
0808
0ff8
0888
0082
7fff
0080
0080
0080
0080
0080
0000
0000
ENDCHAR
STARTCHAR a6ae
ENCODING 42670
SWIDTH 96 0
DWIDTH 16 0
BBX 16 16 0 -2
BITMAP
1000
1000
1ffc
1000
1000
0ffe
0000
0ff8
0808
0808
0ff8
0808
0808
0ff8
0000
0000
ENDCHAR
STARTCHAR a6af
ENCODING 42671
SWIDTH 96 0
DWIDTH 16 0
BBX 16 16 0 -2
BITMAP
0400
0402
07ff
0802
0822
17f2
4422
07e2
0422
0422
07e2
0002
0014
0008
0000
0000
ENDCHAR
STARTCHAR a6b0
ENCODING 42672
SWIDTH 96 0
DWIDTH 16 0
BBX 16 16 0 -2
BITMAP
0800
0804
087e
7f44
0944
0944
097c
0944
0944
0944
117d
1101
2101
40ff
0000
0000
ENDCHAR
STARTCHAR a6b1
ENCODING 42673
SWIDTH 96 0
DWIDTH 16 0
BBX 16 16 0 -2
BITMAP
0220
0220
0222
3fff
2222
2222
2222
3ffe
2222
2222
2222
2222
3ffe
2002
0000
0000
ENDCHAR
STARTCHAR a6b2
ENCODING 42674
SWIDTH 96 0
DWIDTH 16 0
BBX 16 16 0 -2
BITMAP
0100
0108
1ffc
1108
1ff8
1108
1ff8
1108
0090
00e0
0341
0c21
7019
0007
0000
0000
ENDCHAR
STARTCHAR a6b3
ENCODING 42675
SWIDTH 96 0
DWIDTH 16 0
BBX 16 16 0 -2
BITMAP
0100
0102
7fff
0200
0208
07fc
0c08
17f8
2408
07f8
0408
0408
0428
0410
0000
0000
ENDCHAR
STARTCHAR a6b4
ENCODING 42676
SWIDTH 96 0
DWIDTH 16 0
BBX 16 16 0 -2
BITMAP
0800
0802
0bff
0840
7e40
1884
1cfe
2a04
2804
4804
0804
0844
0828
0810
0000
0000
ENDCHAR
STARTCHAR a6b5
ENCODING 42677
SWIDTH 96 0
DWIDTH 16 0
BBX 16 16 0 -2
BITMAP
0810
0810
0810
7f10
0818
1816
1c13
2a11
2910
4810
0810
0810
0810
0810
0000
0000
ENDCHAR
STARTCHAR a6b6
ENCODING 42678
SWIDTH 96 0
DWIDTH 16 0
BBX 16 16 0 -2
BITMAP
0880
0888
0ffc
1080
0082
7fff
0180
02c0
04a0
0898
1087
6082
0080
0080
0000
0000
ENDCHAR
STARTCHAR a6b7
ENCODING 42679
SWIDTH 96 0
DWIDTH 16 0
BBX 16 16 0 -2
BITMAP
0ff0
0410
0410
0810
309f
0080
0082
7fff
02a0
0490
088c
3084
0080
0080
0000
0000
ENDCHAR
STARTCHAR a6b8
ENCODING 42680
SWIDTH 96 0
DWIDTH 16 0
BBX 16 16 0 -2
BITMAP
2040
1840
0882
00ff
0502
0924
1220
7020
1050
1050
1088
1084
1107
1202
0000
0000
ENDCHAR
STARTCHAR a6b9
ENCODING 42681
SWIDTH 96 0
DWIDTH 16 0
BBX 16 16 0 -2
BITMAP
0220
0220
1222
1226
1228
13b0
1220
1220
1220
1220
1220
13a1
7c21
201f
0000
0000
ENDCHAR
STARTCHAR a6ba
ENCODING 42682
SWIDTH 96 0
DWIDTH 16 0
BBX 16 16 0 -2
BITMAP
0002
7fff
0420
0820
0fa2
10a6
10a8
3130
4920
0620
0421
0821
101f
2000
0000
0000
ENDCHAR
STARTCHAR a6bb
ENCODING 42683
SWIDTH 96 0
DWIDTH 16 0
BBX 16 16 0 -2
BITMAP
0800
0ffe
0800
17fc
2000
4ffc
3fc4
0444
0484
04f4
0815
0815
10a5
2042
0000
0000
ENDCHAR
STARTCHAR a6bc
ENCODING 42684
SWIDTH 96 0
DWIDTH 16 0
BBX 16 16 0 -2
BITMAP
4040
3040
1040
0040
47ff
3084
1104
0208
0908
1090
6060
2090
210c
2604
0000
0000
ENDCHAR
STARTCHAR a6bd
ENCODING 42685
SWIDTH 96 0
DWIDTH 16 0
BBX 16 16 0 -2
BITMAP
4004
33fe
1020
0020
4020
3020
1422
07ff
0820
7020
1020
1020
1020
1020
0000
0000
ENDCHAR
STARTCHAR a6be
ENCODING 42686
SWIDTH 96 0
DWIDTH 16 0
BBX 16 16 0 -2
BITMAP
4004
33fe
1020
0020
4022
37ff
1020
0420
0820
7020
1020
1120
10a0
1040
0000
0000
ENDCHAR
STARTCHAR a6bf
ENCODING 42687
SWIDTH 96 0
DWIDTH 16 0
BBX 16 16 0 -2
BITMAP
2000
1804
0bfe
4020
3020
1420
0420
0820
7020
1020
1022
17ff
1000
1000
0000
0000
ENDCHAR
STARTCHAR a6c0
ENCODING 42688
SWIDTH 96 0
DWIDTH 16 0
BBX 16 16 0 -2
BITMAP
2020
1920
0924
413e
31e4
1724
0928
1120
7120
1120
1121
1101
10ff
1000
0000
0000
ENDCHAR
STARTCHAR a6c1
ENCODING 42689
SWIDTH 96 0
DWIDTH 16 0
BBX 16 16 0 -2
BITMAP
0c40
0442
007f
4082
3082
1102
0584
0a64
1028
7010
1020
1040
1080
1100
0000
0000
ENDCHAR
STARTCHAR a6c2
ENCODING 42690
SWIDTH 96 0
DWIDTH 16 0
BBX 16 16 0 -2
BITMAP
0020
2020
1820
0820
4222
3222
1222
0a22
1222
7222
1222
1222
13fe
1202
0000
0000
ENDCHAR
STARTCHAR a6c3
ENCODING 42691
SWIDTH 96 0
DWIDTH 16 0
BBX 16 16 0 -2
BITMAP
21fe
1800
0800
4002
37ff
1080
0480
0884
11fe
7004
1004
1044
1028
1010
0000
0000
ENDCHAR
STARTCHAR a6c4
ENCODING 42692
SWIDTH 96 0
DWIDTH 16 0
BBX 16 16 0 -2
BITMAP
23fc
1808
0888
4088
3088
1088
05f8
0888
1088
7089
1089
1109
1105
1203
0000
0000
ENDCHAR
STARTCHAR a6c5
ENCODING 42693
SWIDTH 96 0
DWIDTH 16 0
BBX 16 16 0 -2
BITMAP
4080
3080
1088
07fc
0088
4088
3088
10c8
00a8
08a8
1089
6109
2209
2c0f
0000
0000
ENDCHAR
STARTCHAR a6c6
ENCODING 42694
SWIDTH 96 0
DWIDTH 16 0
BBX 16 16 0 -2
BITMAP
21f8
1908
0908
0108
4108
3188
1148
0128
0508
0908
1109
6109
2209
2c0f
0000
0000
ENDCHAR
STARTCHAR a6c7
ENCODING 42695
SWIDTH 96 0
DWIDTH 16 0
BBX 16 16 0 -2
BITMAP
0200
0202
7fff
0240
0444
064c
0950
0840
10a0
20a0
4110
0208
0407
1802
0000
0000
ENDCHAR
STARTCHAR a6c8
ENCODING 42696
SWIDTH 96 0
DWIDTH 16 0
BBX 16 16 0 -2
BITMAP
0100
0210
0408
1ffc
0084
0888
0ffc
1080
2080
0082
7fff
0080
0080
0080
0000
0000
ENDCHAR
STARTCHAR a6c9
ENCODING 42697
SWIDTH 96 0
DWIDTH 16 0
BBX 16 16 0 -2
BITMAP
0440
1440
1442
1f46
2448
2450
4460
0740
0c40
3440
0441
0441
043f
0400
0000
0000
ENDCHAR
STARTCHAR a6ca
ENCODING 42698
SWIDTH 96 0
DWIDTH 16 0
BBX 16 16 0 -2
BITMAP
0002
7fff
0080
0100
0204
1ffe
1004
1004
1ffc
1004
1004
1004
1ffc
1004
0000
0000
ENDCHAR
STARTCHAR a6cb
ENCODING 42699
SWIDTH 96 0
DWIDTH 16 0
BBX 16 16 0 -2
BITMAP
0820
0820
0922
0fbf
1448
2488
4508
0408
0408
0408
0408
0408
0428
0410
0000
0000
ENDCHAR
STARTCHAR a6cc
ENCODING 42700
SWIDTH 96 0
DWIDTH 16 0
BBX 16 16 0 -2
BITMAP
1084
0c8c
0690
02a0
0082
7fff
01c0
02a0
0490
0888
1087
6082
0080
0080
0000
0000
ENDCHAR
STARTCHAR a6cd
ENCODING 42701
SWIDTH 96 0
DWIDTH 16 0
BBX 16 16 0 -2
BITMAP
0180
0208
0418
0820
1fc0
0080
0110
0208
1ffc
0084
0c8c
1086
2082
0080
0000
0000
ENDCHAR
STARTCHAR a6ce
ENCODING 42702
SWIDTH 96 0
DWIDTH 16 0
BBX 16 16 0 -2
BITMAP
0400
0408
0ffc
0880
1080
2080
0082
7fff
0080
1084
1084
1084
1ffc
1004
0000
0000
ENDCHAR
STARTCHAR a6cf
ENCODING 42703
SWIDTH 96 0
DWIDTH 16 0
BBX 16 16 0 -2
BITMAP
0410
0220
0144
3ffe
0080
0088
1ffc
0080
0080
0082
7fff
0080
0080
0080
0000
0000
ENDCHAR
STARTCHAR a6d0
ENCODING 42704
SWIDTH 96 0
DWIDTH 16 0
BBX 16 16 0 -2
BITMAP
0002
3f7f
0102
1122
0912
0912
0102
050a
0912
3162
1122
0102
0a14
0408
0000
0000
ENDCHAR
STARTCHAR a6d1
ENCODING 42705
SWIDTH 96 0
DWIDTH 16 0
BBX 16 16 0 -2
BITMAP
0100
0104
1fec
0110
0122
7fff
0080
0300
0600
0a08
13fc
2200
4200
01fe
0000
0000
ENDCHAR
STARTCHAR a6d2
ENCODING 42706
SWIDTH 96 0
DWIDTH 16 0
BBX 16 16 0 -2
BITMAP
0108
1ff0
0120
0142
7fff
0200
07fc
0900
13f8
2008
4008
0110
0090
0060
0000
0000
ENDCHAR
STARTCHAR a6d3
ENCODING 42707
SWIDTH 96 0
DWIDTH 16 0
BBX 16 16 0 -2
BITMAP
0002
7fff
0100
0202
3fff
2222
2222
2222
2222
2222
2222
2222
222a
2004
0000
0000
ENDCHAR
STARTCHAR a6d4
ENCODING 42708
SWIDTH 96 0
DWIDTH 16 0
BBX 16 16 0 -2
BITMAP
0088
00f0
3f80
0080
1ffc
0080
0082
7fff
02a0
0490
0888
1087
2082
0080
0000
0000
ENDCHAR
STARTCHAR a6d5
ENCODING 42709
SWIDTH 96 0
DWIDTH 16 0
BBX 16 16 0 -2
BITMAP
3ffe
0410
0410
07f0
0410
0410
07f0
0410
0412
041f
07f0
7810
0010
0010
0000
0000
ENDCHAR
STARTCHAR a6d6
ENCODING 42710
SWIDTH 96 0
DWIDTH 16 0
BBX 16 16 0 -2
BITMAP
0080
1ffe
0084
7fff
0084
1ffc
0080
3ffe
0080
0082
7fff
0080
0080
0080
0000
0000
ENDCHAR
STARTCHAR a6d7
ENCODING 42711
SWIDTH 96 0
DWIDTH 16 0
BBX 16 16 0 -2
BITMAP
0080
0082
3fff
2082
2082
2142
2232
2492
2082
2142
2232
2412
200a
2004
0000
0000
ENDCHAR
STARTCHAR a6d8
ENCODING 42712
SWIDTH 96 0
DWIDTH 16 0
BBX 16 16 0 -2
BITMAP
0110
1f90
1110
1112
1f7f
1112
1112
1f12
1112
1122
1122
1142
2594
4208
0000
0000
ENDCHAR
STARTCHAR a6d9
ENCODING 42713
SWIDTH 96 0
DWIDTH 16 0
BBX 16 16 0 -2
BITMAP
0200
1f04
127e
1244
1e44
1244
1244
1e44
1244
1244
1245
1245
2685
4303
0000
0000
ENDCHAR
STARTCHAR a6da
ENCODING 42714
SWIDTH 96 0
DWIDTH 16 0
BBX 16 16 0 -2
BITMAP
0004
7ffe
2080
2080
2084
3ffe
2004
2004
3ffc
2084
2080
2080
2084
3ffe
0000
0000
ENDCHAR
STARTCHAR a6db
ENCODING 42715
SWIDTH 96 0
DWIDTH 16 0
BBX 16 16 0 -2
BITMAP
0100
0200
0404
1ffe
1004
1004
1ffc
1004
1004
1ffc
1004
1004
1ffc
1004
0000
0000
ENDCHAR
STARTCHAR a6dc
ENCODING 42716
SWIDTH 96 0
DWIDTH 16 0
BBX 16 16 0 -2
BITMAP
3ffe
0100
0200
0410
0808
1ffc
0084
0080
0088
1ffc
0080
0080
0082
7fff
0000
0000
ENDCHAR
STARTCHAR a6dd
ENCODING 42717
SWIDTH 96 0
DWIDTH 16 0
BBX 16 16 0 -2
BITMAP
0100
0380
2c02
307f
2002
2002
2202
3f7e
2002
2002
2002
2002
3ffe
2002
0000
0000
ENDCHAR
STARTCHAR a6de
ENCODING 42718
SWIDTH 96 0
DWIDTH 16 0
BBX 16 16 0 -2
BITMAP
0078
0f80
0080
0082
7fff
0080
0084
1ffe
1004
1004
1004
1004
1ffc
1004
0000
0000
ENDCHAR
STARTCHAR a6df
ENCODING 42719
SWIDTH 96 0
DWIDTH 16 0
BBX 16 16 0 -2
BITMAP
0008
0808
0808
0fff
1108
1148
1148
2a48
4648
047f
0808
1008
6008
0008
0000
0000
ENDCHAR
STARTCHAR a6e0
ENCODING 42720
SWIDTH 96 0
DWIDTH 16 0
BBX 16 16 0 -2
BITMAP
0100
0208
0ffc
0808
0908
0888
7fff
0808
0908
0888
0888
0808
2028
0010
0000
0000
ENDCHAR
STARTCHAR a6e1
ENCODING 42721
SWIDTH 96 0
DWIDTH 16 0
BBX 16 16 0 -2
BITMAP
0010
1ff8
1010
1ff0
1010
1ff0
1200
1210
1120
10c0
1020
1411
180e
1002
0000
0000
ENDCHAR
STARTCHAR a6e2
ENCODING 42722
SWIDTH 96 0
DWIDTH 16 0
BBX 16 16 0 -2
BITMAP
0400
07f8
0810
1024
2ffe
4844
0844
0844
0ffc
0804
0800
0801
0801
07ff
0000
0000
ENDCHAR
STARTCHAR a6e3
ENCODING 42723
SWIDTH 96 0
DWIDTH 16 0
BBX 16 16 0 -2
BITMAP
0220
0222
7fff
0220
0010
0410
0220
0220
0140
0080
0140
0638
1807
6002
0000
0000
ENDCHAR
STARTCHAR a6e4
ENCODING 42724
SWIDTH 96 0
DWIDTH 16 0
BBX 16 16 0 -2
BITMAP
0080
0080
0084
1ffe
1084
1084
1084
1ffc
1084
0088
0084
00fe
3f02
1002
0000
0000
ENDCHAR
STARTCHAR a6e5
ENCODING 42725
SWIDTH 96 0
DWIDTH 16 0
BBX 16 16 0 -2
BITMAP
0080
0100
0200
0404
1ffe
1224
1224
1224
1224
1224
1224
1224
7fff
0000
0000
0000
ENDCHAR
STARTCHAR a6e6
ENCODING 42726
SWIDTH 96 0
DWIDTH 16 0
BBX 16 16 0 -2
BITMAP
0804
09fe
1000
2400
0402
0bff
1808
2808
4808
0808
0808
0808
0828
0810
0000
0000
ENDCHAR
STARTCHAR a6e7
ENCODING 42727
SWIDTH 96 0
DWIDTH 16 0
BBX 16 16 0 -2
BITMAP
0100
0082
7fff
0100
0288
0490
0c60
1440
2420
4410
0488
0507
0602
1c00
0000
0000
ENDCHAR
STARTCHAR a6e8
ENCODING 42728
SWIDTH 96 0
DWIDTH 16 0
BBX 16 16 0 -2
BITMAP
0002
7fff
0220
0220
0222
3fff
2222
2222
2222
241e
2802
2002
3ffe
2002
0000
0000
ENDCHAR
STARTCHAR a6e9
ENCODING 42729
SWIDTH 96 0
DWIDTH 16 0
BBX 16 16 0 -2
BITMAP
0004
7e0e
42f0
4410
5810
4812
45ff
4410
4410
6410
5810
4010
4010
4010
0000
0000
ENDCHAR
STARTCHAR a6ea
ENCODING 42730
SWIDTH 96 0
DWIDTH 16 0
BBX 16 16 0 -2
BITMAP
0080
0084
1ffe
1084
1084
1ffc
0080
3fff
2082
2082
3ffe
0080
0080
0080
0000
0000
ENDCHAR
STARTCHAR a6eb
ENCODING 42731
SWIDTH 96 0
DWIDTH 16 0
BBX 16 16 0 -2
BITMAP
0100
0084
7ffe
0000
0ff8
0808
0ff8
0000
3ffc
0030
0040
0440
0240
0180
0000
0000
ENDCHAR
STARTCHAR a6ec
ENCODING 42732
SWIDTH 96 0
DWIDTH 16 0
BBX 16 16 0 -2
BITMAP
0440
0420
0804
0bfe
1800
2904
4904
0888
0888
0850
0812
0fff
0800
0800
0000
0000
ENDCHAR
STARTCHAR a6ed
ENCODING 42733
SWIDTH 96 0
DWIDTH 16 0
BBX 16 16 0 -2
BITMAP
0440
0420
0422
0bff
1820
2820
4824
0bfe
0820
0820
0820
0822
0fff
0800
0000
0000
ENDCHAR
STARTCHAR a6ee
ENCODING 42734
SWIDTH 96 0
DWIDTH 16 0
BBX 16 16 0 -2
BITMAP
0840
0820
13ff
6401
1401
13fe
1020
1020
1020
1020
1020
1120
10a0
1040
0000
0000
ENDCHAR
STARTCHAR a6ef
ENCODING 42735
SWIDTH 96 0
DWIDTH 16 0
BBX 16 16 0 -2
BITMAP
0420
0422
0bff
0a02
1c84
2880
4884
088c
0890
08a0
08c1
0881
0881
087f
0000
0000
ENDCHAR
STARTCHAR a6f0
ENCODING 42736
SWIDTH 96 0
DWIDTH 16 0
BBX 16 16 0 -2
BITMAP
05fc
0400
0804
0bfe
1840
2842
4fff
0888
0908
08d0
0820
0850
088c
0b02
0000
0000
ENDCHAR
STARTCHAR a6f1
ENCODING 42737
SWIDTH 96 0
DWIDTH 16 0
BBX 16 16 0 -2
BITMAP
0420
0522
04a4
0820
13fe
1820
2820
4822
0fff
0820
0820
0820
0820
0820
0000
0000
ENDCHAR
STARTCHAR a6f2
ENCODING 42738
SWIDTH 96 0
DWIDTH 16 0
BBX 16 16 0 -2
BITMAP
0810
0890
17fc
1094
3094
53fc
1290
1292
13ff
1092
111a
1114
1610
1010
0000
0000
ENDCHAR
STARTCHAR a6f3
ENCODING 42739
SWIDTH 96 0
DWIDTH 16 0
BBX 16 16 0 -2
BITMAP
0400
0402
07ff
0804
0804
19e4
2924
4924
0924
09e4
0924
0804
0814
0808
0000
0000
ENDCHAR
STARTCHAR a6f4
ENCODING 42740
SWIDTH 96 0
DWIDTH 16 0
BBX 16 16 0 -2
BITMAP
0420
0420
0822
0fff
1820
2820
4824
09fe
0904
0904
0904
0904
09fc
0904
0000
0000
ENDCHAR
STARTCHAR a6f5
ENCODING 42741
SWIDTH 96 0
DWIDTH 16 0
BBX 16 16 0 -2
BITMAP
0440
0442
0bff
0840
1840
2880
4884
08fe
0910
0a10
0c10
0812
0bff
0800
0000
0000
ENDCHAR
STARTCHAR a6f6
ENCODING 42742
SWIDTH 96 0
DWIDTH 16 0
BBX 16 16 0 -2
BITMAP
0440
0440
0842
0fff
1880
2880
4904
09fe
0a84
0c84
0884
0884
08fc
0884
0000
0000
ENDCHAR
STARTCHAR a6f7
ENCODING 42743
SWIDTH 96 0
DWIDTH 16 0
BBX 16 16 0 -2
BITMAP
0a00
0a02
121f
1fd2
3252
5252
1252
1252
1252
1252
1452
145e
1952
1080
0000
0000
ENDCHAR
STARTCHAR a6f8
ENCODING 42744
SWIDTH 96 0
DWIDTH 16 0
BBX 16 16 0 -2
BITMAP
0402
05ff
0402
0812
1bfa
2802
49f2
0912
0912
0912
09f2
0902
080a
0804
0000
0000
ENDCHAR
STARTCHAR a6f9
ENCODING 42745
SWIDTH 96 0
DWIDTH 16 0
BBX 16 16 0 -2
BITMAP
0420
0420
0422
0bff
1a22
2a22
4bfe
0a22
0a22
0bfe
0a22
0820
0820
0820
0000
0000
ENDCHAR
STARTCHAR a6fa
ENCODING 42746
SWIDTH 96 0
DWIDTH 16 0
BBX 16 16 0 -2
BITMAP
0802
0bff
0a22
1222
1222
3222
53fe
1222
1222
1222
1222
13fe
1202
1000
0000
0000
ENDCHAR
STARTCHAR a6fb
ENCODING 42747
SWIDTH 96 0
DWIDTH 16 0
BBX 16 16 0 -2
BITMAP
0820
0820
1020
203e
5020
1020
1022
11ff
1102
1102
1102
1102
11fe
1102
0000
0000
ENDCHAR
STARTCHAR a6fc
ENCODING 42748
SWIDTH 96 0
DWIDTH 16 0
BBX 16 16 0 -2
BITMAP
0800
0804
0a04
1284
1244
3224
5224
1204
1248
1290
1314
1223
1441
1080
0000
0000
ENDCHAR
STARTCHAR a6fd
ENCODING 42749
SWIDTH 96 0
DWIDTH 16 0
BBX 16 16 0 -2
BITMAP
0800
0804
0bfe
1204
3204
53fc
1204
1204
13fc
1204
1000
1002
1fff
1000
0000
0000
ENDCHAR
STARTCHAR a6fe
ENCODING 42750
SWIDTH 96 0
DWIDTH 16 0
BBX 16 16 0 -2
BITMAP
0802
0bff
0a22
1222
33fe
5222
1222
1222
13fe
1222
1222
1222
142a
1804
0000
0000
ENDCHAR
STARTCHAR a740
ENCODING 42816
SWIDTH 96 0
DWIDTH 16 0
BBX 16 16 0 -2
BITMAP
0480
0482
08ff
0940
1940
2a44
4c7e
0840
0840
0842
087f
0840
0840
0840
0000
0000
ENDCHAR
STARTCHAR a741
ENCODING 42817
SWIDTH 96 0
DWIDTH 16 0
BBX 16 16 0 -2
BITMAP
0880
0882
11ff
1102
3204
5420
1020
10a8
10a4
1126
1222
1020
10a0
1040
0000
0000
ENDCHAR
STARTCHAR a742
ENCODING 42818
SWIDTH 96 0
DWIDTH 16 0
BBX 16 16 0 -2
BITMAP
0420
0442
08ff
0882
1882
2882
4882
08fe
0882
0882
0882
0882
08fe
0882
0000
0000
ENDCHAR
STARTCHAR a743
ENCODING 42819
SWIDTH 96 0
DWIDTH 16 0
BBX 16 16 0 -2
BITMAP
0804
081e
0be0
1220
3220
5222
13ff
1210
1210
1208
1289
1305
1605
12f3
0000
0000
ENDCHAR
STARTCHAR a744
ENCODING 42820
SWIDTH 96 0
DWIDTH 16 0
BBX 16 16 0 -2
BITMAP
0420
0450
0850
0888
1904
2af7
4c02
0800
09fc
0804
0808
0850
0820
0810
0000
0000
ENDCHAR
STARTCHAR a745
ENCODING 42821
SWIDTH 96 0
DWIDTH 16 0
BBX 16 16 0 -2
BITMAP
0080
0140
0220
0410
0808
17f7
6082
0088
1ffc
0490
0c8c
1086
2282
0100
0000
0000
ENDCHAR
STARTCHAR a746
ENCODING 42822
SWIDTH 96 0
DWIDTH 16 0
BBX 16 16 0 -2
BITMAP
0480
0482
09ff
0902
1a12
2dfa
4912
0912
0912
09f2
0912
0802
0814
0808
0000
0000
ENDCHAR
STARTCHAR a747
ENCODING 42823
SWIDTH 96 0
DWIDTH 16 0
BBX 16 16 0 -2
BITMAP
1040
1040
17ff
2040
40a0
2120
23fe
2622
2a22
2222
222a
2224
2020
2020
0000
0000
ENDCHAR
STARTCHAR a748
ENCODING 42824
SWIDTH 96 0
DWIDTH 16 0
BBX 16 16 0 -2
BITMAP
0420
04a0
08a4
08fe
1920
2a20
4822
0fff
0820
0850
0888
0888
0907
0a02
0000
0000
ENDCHAR
STARTCHAR a749
ENCODING 42825
SWIDTH 96 0
DWIDTH 16 0
BBX 16 16 0 -2
BITMAP
0c70
1818
700e
1ffc
1008
1008
1008
1ff8
1228
0220
0421
0421
0821
701f
0000
0000
ENDCHAR
STARTCHAR a74a
ENCODING 42826
SWIDTH 96 0
DWIDTH 16 0
BBX 16 16 0 -2
BITMAP
0080
0082
7fff
0080
0080
1ffc
1004
1004
1ffc
0220
0220
0421
0821
701f
0000
0000
ENDCHAR
STARTCHAR a74b
ENCODING 42827
SWIDTH 96 0
DWIDTH 16 0
BBX 16 16 0 -2
BITMAP
0400
0ff0
0820
1044
3ffe
5084
1084
1ffc
10c4
0140
0240
0441
1841
603f
0000
0000
ENDCHAR
STARTCHAR a74c
ENCODING 42828
SWIDTH 96 0
DWIDTH 16 0
BBX 16 16 0 -2
BITMAP
0010
0078
0780
0400
0400
07fe
0420
0420
0422
7fff
0220
0618
080c
1004
0000
0000
ENDCHAR
STARTCHAR a74d
ENCODING 42829
SWIDTH 96 0
DWIDTH 16 0
BBX 16 16 0 -2
BITMAP
2020
1840
0840
0088
0104
07fe
0802
1000
73fc
1204
1204
1204
13fc
1204
0000
0000
ENDCHAR
STARTCHAR a74e
ENCODING 42830
SWIDTH 96 0
DWIDTH 16 0
BBX 16 16 0 -2
BITMAP
2040
18a0
0910
0208
05f4
0803
03f8
1008
6010
2020
2140
2080
2060
0020
0000
0000
ENDCHAR
STARTCHAR a74f
ENCODING 42831
SWIDTH 96 0
DWIDTH 16 0
BBX 16 16 0 -2
BITMAP
0082
1fc2
1092
1092
1f92
1412
0492
0fd2
0892
0892
1092
2082
450a
0204
0000
0000
ENDCHAR
STARTCHAR a750
ENCODING 42832
SWIDTH 96 0
DWIDTH 16 0
BBX 16 16 0 -2
BITMAP
0202
2222
1a62
0a92
0212
3fd2
0212
0212
7fd2
0212
0412
0802
100a
2004
0000
0000
ENDCHAR
STARTCHAR a751
ENCODING 42833
SWIDTH 96 0
DWIDTH 16 0
BBX 16 16 0 -2
BITMAP
0082
03c2
3e02
0212
0212
7fd2
0612
0712
0ad2
0a52
1212
2202
020a
0204
0000
0000
ENDCHAR
STARTCHAR a752
ENCODING 42834
SWIDTH 96 0
DWIDTH 16 0
BBX 16 16 0 -2
BITMAP
3fe2
2522
2522
252a
252a
252a
7ffa
252a
252a
252a
2522
2522
252a
4064
0000
0000
ENDCHAR
STARTCHAR a753
ENCODING 42835
SWIDTH 96 0
DWIDTH 16 0
BBX 16 16 0 -2
BITMAP
1001
1041
1fe9
2049
5e49
1249
1249
1e49
1149
1089
1021
1021
1025
0fe2
0000
0000
ENDCHAR
STARTCHAR a754
ENCODING 42836
SWIDTH 96 0
DWIDTH 16 0
BBX 16 16 0 -2
BITMAP
0410
0410
3f90
0412
047f
0412
7fd2
0812
0a22
1122
3f42
1142
0094
0108
0000
0000
ENDCHAR
STARTCHAR a755
ENCODING 42837
SWIDTH 96 0
DWIDTH 16 0
BBX 16 16 0 -2
BITMAP
0110
1f90
1112
11ff
1f12
1112
1112
1f12
1122
1122
17a2
7842
2094
0108
0000
0000
ENDCHAR
STARTCHAR a756
ENCODING 42838
SWIDTH 96 0
DWIDTH 16 0
BBX 16 16 0 -2
BITMAP
0800
7f7e
1142
1224
3218
0c10
0a28
3147
0102
1ffc
0104
0204
0c28
3010
0000
0000
ENDCHAR
STARTCHAR a757
ENCODING 42839
SWIDTH 96 0
DWIDTH 16 0
BBX 16 16 0 -2
BITMAP
1010
1110
3f90
4112
217f
3d12
2512
2512
2512
3d22
2122
0142
0a54
0488
0000
0000
ENDCHAR
STARTCHAR a758
ENCODING 42840
SWIDTH 96 0
DWIDTH 16 0
BBX 16 16 0 -2
BITMAP
0004
7ffe
4000
4ff8
4888
4888
4ff8
4888
4888
4ff8
4080
4080
4082
7fff
0000
0000
ENDCHAR
STARTCHAR a759
ENCODING 42841
SWIDTH 96 0
DWIDTH 16 0
BBX 16 16 0 -2
BITMAP
0100
7f82
417f
7f42
4142
7f42
4042
4252
424a
4544
5940
6040
0040
0040
0000
0000
ENDCHAR
STARTCHAR a75a
ENCODING 42842
SWIDTH 96 0
DWIDTH 16 0
BBX 16 16 0 -2
BITMAP
0602
387f
2242
3252
2a4a
2a4a
2242
2e62
7254
0248
0440
0840
3040
0040
0000
0000
ENDCHAR
STARTCHAR a75b
ENCODING 42843
SWIDTH 96 0
DWIDTH 16 0
BBX 16 16 0 -2
BITMAP
0100
3ffe
0220
0140
0080
0160
0618
1807
6002
0ff8
0808
0808
0ff8
0808
0000
0000
ENDCHAR
STARTCHAR a75c
ENCODING 42844
SWIDTH 96 0
DWIDTH 16 0
BBX 16 16 0 -2
BITMAP
0040
7c22
47ff
4400
4408
44fc
4488
4488
7c88
4488
0088
0109
0209
0407
0000
0000
ENDCHAR
STARTCHAR a75d
ENCODING 42845
SWIDTH 96 0
DWIDTH 16 0
BBX 16 16 0 -2
BITMAP
0008
1ffc
0100
0102
7fff
0220
0410
0808
17f7
2412
4410
0410
07f0
0410
0000
0000
ENDCHAR
STARTCHAR a75e
ENCODING 42846
SWIDTH 96 0
DWIDTH 16 0
BBX 16 16 0 -2
BITMAP
0004
3ffe
0200
0210
1ff8
0410
0812
7fff
0000
0ff8
0808
0808
0ff8
0808
0000
0000
ENDCHAR
STARTCHAR a75f
ENCODING 42847
SWIDTH 96 0
DWIDTH 16 0
BBX 16 16 0 -2
BITMAP
0002
7fff
0040
0180
02b0
048c
1883
6081
0ff8
0808
0808
0808
0ff8
0808
0000
0000
ENDCHAR
STARTCHAR a760
ENCODING 42848
SWIDTH 96 0
DWIDTH 16 0
BBX 16 16 0 -2
BITMAP
0002
79ff
4902
4902
4902
49fe
4902
4980
7940
4920
0110
0208
0404
1803
0000
0000
ENDCHAR
STARTCHAR a761
ENCODING 42849
SWIDTH 96 0
DWIDTH 16 0
BBX 16 16 0 -2
BITMAP
0004
7dfe
4524
4524
4524
4524
4524
45fc
4504
7d00
4500
0101
0101
00ff
0000
0000
ENDCHAR
STARTCHAR a762
ENCODING 42850
SWIDTH 96 0
DWIDTH 16 0
BBX 16 16 0 -2
BITMAP
0008
0ffc
0808
0808
0ff8
0888
0082
7fff
01c0
02a0
0498
1887
6082
0080
0000
0000
ENDCHAR
STARTCHAR a763
ENCODING 42851
SWIDTH 96 0
DWIDTH 16 0
BBX 16 16 0 -2
BITMAP
0002
01ff
7d00
457e
4542
4542
4542
4542
7d54
4148
0241
0241
0441
083f
0000
0000
ENDCHAR
STARTCHAR a764
ENCODING 42852
SWIDTH 96 0
DWIDTH 16 0
BBX 16 16 0 -2
BITMAP
0ffc
0804
0804
2ffc
2000
2000
3ffe
0084
0084
7fff
0140
0220
0410
780f
0000
0000
ENDCHAR
STARTCHAR a765
ENCODING 42853
SWIDTH 96 0
DWIDTH 16 0
BBX 16 16 0 -2
BITMAP
0008
0ffc
0808
0808
0808
0ff8
000c
0070
0f80
0088
1ffc
0080
0082
7fff
0000
0000
ENDCHAR
STARTCHAR a766
ENCODING 42854
SWIDTH 96 0
DWIDTH 16 0
BBX 16 16 0 -2
BITMAP
0008
1ffc
1008
1008
1ff8
1088
0300
0c04
3ffe
2004
2004
2004
3ffc
2004
0000
0000
ENDCHAR
STARTCHAR a767
ENCODING 42855
SWIDTH 96 0
DWIDTH 16 0
BBX 16 16 0 -2
BITMAP
0008
1ffc
0208
0208
7fff
0208
0208
1ff8
0400
0ffc
1404
2404
47fc
0404
0000
0000
ENDCHAR
STARTCHAR a768
ENCODING 42856
SWIDTH 96 0
DWIDTH 16 0
BBX 16 16 0 -2
BITMAP
0010
0450
7e50
4448
4484
4487
4502
46fc
4444
7c44
4484
0084
0114
0208
0000
0000
ENDCHAR
STARTCHAR a769
ENCODING 42857
SWIDTH 96 0
DWIDTH 16 0
BBX 16 16 0 -2
BITMAP
0880
0888
0ffc
0880
1080
0082
7fff
0008
0ffc
0808
0808
0808
0ff8
0808
0000
0000
ENDCHAR
STARTCHAR a76a
ENCODING 42858
SWIDTH 96 0
DWIDTH 16 0
BBX 16 16 0 -2
BITMAP
0040
0440
7e42
44ff
4482
4524
4528
4620
4420
7c50
4448
0084
0307
0c02
0000
0000
ENDCHAR
STARTCHAR a76b
ENCODING 42859
SWIDTH 96 0
DWIDTH 16 0
BBX 16 16 0 -2
BITMAP
0080
7c82
44ff
4552
4652
4452
4492
4492
7d22
4222
0042
0082
0114
0008
0000
0000
ENDCHAR
STARTCHAR a76c
ENCODING 42860
SWIDTH 96 0
DWIDTH 16 0
BBX 16 16 0 -2
BITMAP
0004
03fe
7c84
4488
4490
449e
44c2
4524
7d28
4610
0228
0444
0887
0102
0000
0000
ENDCHAR
STARTCHAR a76d
ENCODING 42861
SWIDTH 96 0
DWIDTH 16 0
BBX 16 16 0 -2
BITMAP
0410
7e20
4440
4484
4502
47ff
4449
4448
7c88
4488
0109
0109
0209
0407
0000
0000
ENDCHAR
STARTCHAR a76e
ENCODING 42862
SWIDTH 96 0
DWIDTH 16 0
BBX 16 16 0 -2
BITMAP
0020
7820
4820
48a8
48a4
48a2
4921
4924
4a24
7824
4808
0010
0060
0380
0000
0000
ENDCHAR
STARTCHAR a76f
ENCODING 42863
SWIDTH 96 0
DWIDTH 16 0
BBX 16 16 0 -2
BITMAP
0020
0020
7822
4bff
4a22
4a22
4a22
4a52
4a4a
4a8a
7a02
4a02
020a
0204
0000
0000
ENDCHAR
STARTCHAR a770
ENCODING 42864
SWIDTH 96 0
DWIDTH 16 0
BBX 16 16 0 -2
BITMAP
0020
0428
7e24
4420
4422
47ff
4450
4450
4488
7c88
4504
0104
0202
0401
0000
0000
ENDCHAR
STARTCHAR a771
ENCODING 42865
SWIDTH 96 0
DWIDTH 16 0
BBX 16 16 0 -2
BITMAP
03e8
7c28
4448
4488
4488
44a8
44c8
4788
7c88
4488
0089
0089
0287
0100
0000
0000
ENDCHAR
STARTCHAR a772
ENCODING 42866
SWIDTH 96 0
DWIDTH 16 0
BBX 16 16 0 -2
BITMAP
0000
01fe
7c88
4488
4488
4488
45ff
4408
4418
7c28
44c8
0308
0028
0010
0000
0000
ENDCHAR
STARTCHAR a773
ENCODING 42867
SWIDTH 96 0
DWIDTH 16 0
BBX 16 16 0 -2
BITMAP
0010
0012
7dff
4410
4410
44fe
4482
4444
7c28
4410
0028
0044
0087
0302
0000
0000
ENDCHAR
STARTCHAR a774
ENCODING 42868
SWIDTH 96 0
DWIDTH 16 0
BBX 16 16 0 -2
BITMAP
01c0
0220
0410
0be8
1004
27f2
4011
0020
0040
0ff8
0808
0808
0ff8
0808
0000
0000
ENDCHAR
STARTCHAR a775
ENCODING 42869
SWIDTH 96 0
DWIDTH 16 0
BBX 16 16 0 -2
BITMAP
0020
0420
7e50
4450
4488
4577
4602
45fc
4404
7c08
4408
0010
0020
0040
0000
0000
ENDCHAR
STARTCHAR a776
ENCODING 42870
SWIDTH 96 0
DWIDTH 16 0
BBX 16 16 0 -2
BITMAP
0008
001c
7ce0
4480
4482
44ff
4488
4488
7c88
4508
0108
0208
0408
0008
0000
0000
ENDCHAR
STARTCHAR a777
ENCODING 42871
SWIDTH 96 0
DWIDTH 16 0
BBX 16 16 0 -2
BITMAP
0200
0400
0802
1fff
3042
5282
1112
12a2
1442
18a2
111a
1002
1ffe
1002
0000
0000
ENDCHAR
STARTCHAR a778
ENCODING 42872
SWIDTH 96 0
DWIDTH 16 0
BBX 16 16 0 -2
BITMAP
0002
3fff
2082
2082
2ffa
2082
2182
21c2
22a2
249a
288a
2082
3ffe
2002
0000
0000
ENDCHAR
STARTCHAR a779
ENCODING 42873
SWIDTH 96 0
DWIDTH 16 0
BBX 16 16 0 -2
BITMAP
3fff
2082
2ffa
2082
2492
2492
2492
27f2
2082
208a
207a
2002
3ffe
2002
0000
0000
ENDCHAR
STARTCHAR a77a
ENCODING 42874
SWIDTH 96 0
DWIDTH 16 0
BBX 16 16 0 -2
BITMAP
0002
3fff
2402
27fa
2a4a
2a4a
324a
244a
248a
288a
312a
2212
3ffe
2002
0000
0000
ENDCHAR
STARTCHAR a77b
ENCODING 42875
SWIDTH 96 0
DWIDTH 16 0
BBX 16 16 0 -2
BITMAP
0840
0820
0802
09ff
7e40
0844
087e
0844
0e44
7844
2084
0084
0128
0210
0000
0000
ENDCHAR
STARTCHAR a77c
ENCODING 42876
SWIDTH 96 0
DWIDTH 16 0
BBX 16 16 0 -2
BITMAP
0840
0822
0bff
7e00
0808
08fc
0888
0888
0e88
7888
2088
0109
0109
0207
0000
0000
ENDCHAR
STARTCHAR a77d
ENCODING 42877
SWIDTH 96 0
DWIDTH 16 0
BBX 16 16 0 -2
BITMAP
0810
0810
0810
0890
7f92
089f
0890
0890
0890
0990
0e90
7890
2092
03ff
0000
0000
ENDCHAR
STARTCHAR a77e
ENCODING 42878
SWIDTH 96 0
DWIDTH 16 0
BBX 16 16 0 -2
BITMAP
1004
11fe
1104
1144
7d24
1124
1104
17ff
1104
1d04
7104
2204
0214
0408
0000
0000
ENDCHAR
STARTCHAR a7a1
ENCODING 42913
SWIDTH 96 0
DWIDTH 16 0
BBX 16 16 0 -2
BITMAP
0840
0842
087f
0882
7e82
0912
087a
0802
0812
0e7a
7802
2002
0014
0008
0000
0000
ENDCHAR
STARTCHAR a7a2
ENCODING 42914
SWIDTH 96 0
DWIDTH 16 0
BBX 16 16 0 -2
BITMAP
0840
0840
087e
7e82
0884
0920
0820
0820
0850
0e50
7088
2104
0207
0402
0000
0000
ENDCHAR
STARTCHAR a7a3
ENCODING 42915
SWIDTH 96 0
DWIDTH 16 0
BBX 16 16 0 -2
BITMAP
0bfe
0884
0888
7e88
089e
08c2
08c4
08a4
0f28
7910
2228
0248
0487
0902
0000
0000
ENDCHAR
STARTCHAR a7a4
ENCODING 42916
SWIDTH 96 0
DWIDTH 16 0
BBX 16 16 0 -2
BITMAP
0080
0888
0888
0888
1494
1292
22a2
40c0
0088
1ffc
0080
0080
0082
7fff
0000
0000
ENDCHAR
STARTCHAR a7a5
ENCODING 42917
SWIDTH 96 0
DWIDTH 16 0
BBX 16 16 0 -2
BITMAP
0002
17ff
1010
1020
7c40
10a0
1124
1622
1021
1420
1820
6020
0020
0020
0000
0000
ENDCHAR
STARTCHAR a7a6
ENCODING 42918
SWIDTH 96 0
DWIDTH 16 0
BBX 16 16 0 -2
BITMAP
080e
08f0
0880
0880
7f82
08ff
0888
0888
0f88
7888
0108
0108
0208
0408
0000
0000
ENDCHAR
STARTCHAR a7a7
ENCODING 42919
SWIDTH 96 0
DWIDTH 16 0
BBX 16 16 0 -2
BITMAP
0420
2420
2420
2420
3c20
0422
07ff
7c20
2420
2420
2420
2424
45fe
0400
0000
0000
ENDCHAR
STARTCHAR a7a8
ENCODING 42920
SWIDTH 96 0
DWIDTH 16 0
BBX 16 16 0 -2
BITMAP
0080
0084
3ffe
0080
0888
0888
1494
62a3
0080
0140
0220
0418
1807
6002
0000
0000
ENDCHAR
STARTCHAR a7a9
ENCODING 42921
SWIDTH 96 0
DWIDTH 16 0
BBX 16 16 0 -2
BITMAP
0440
2440
2440
2442
27ff
3c44
0444
7c84
2488
2450
2420
2458
2486
4502
0000
0000
ENDCHAR
STARTCHAR a7aa
ENCODING 42922
SWIDTH 96 0
DWIDTH 16 0
BBX 16 16 0 -2
BITMAP
080c
0830
08c2
7eff
1282
1282
12fe
2282
1480
0880
1500
2300
4200
0400
0000
0000
ENDCHAR
STARTCHAR a7ab
ENCODING 42923
SWIDTH 96 0
DWIDTH 16 0
BBX 16 16 0 -2
BITMAP
0840
0820
0802
7fff
1240
1244
127e
2244
1444
0844
1484
2284
4128
0210
0000
0000
ENDCHAR
STARTCHAR a7ac
ENCODING 42924
SWIDTH 96 0
DWIDTH 16 0
BBX 16 16 0 -2
BITMAP
0804
09fe
0844
0844
7e44
1244
1244
13ff
2244
1444
0844
1444
2244
43ff
0000
0000
ENDCHAR
STARTCHAR a7ad
ENCODING 42925
SWIDTH 96 0
DWIDTH 16 0
BBX 16 16 0 -2
BITMAP
0890
0890
0890
0892
7e96
12f8
1290
1290
2290
1490
0890
14b1
22d1
428f
0000
0000
ENDCHAR
STARTCHAR a7ae
ENCODING 42926
SWIDTH 96 0
DWIDTH 16 0
BBX 16 16 0 -2
BITMAP
0810
0810
0810
7e54
1253
1251
1290
2212
1414
0808
1410
2220
4040
0180
0000
0000
ENDCHAR
STARTCHAR a7af
ENCODING 42927
SWIDTH 96 0
DWIDTH 16 0
BBX 16 16 0 -2
BITMAP
0804
080e
08f0
7e10
1210
1212
13ff
2210
1428
0828
1444
2284
4103
0202
0000
0000
ENDCHAR
STARTCHAR a7b0
ENCODING 42928
SWIDTH 96 0
DWIDTH 16 0
BBX 16 16 0 -2
BITMAP
0802
09ff
0844
7e44
1244
1244
13ff
2244
1444
0844
1444
2244
4084
0104
0000
0000
ENDCHAR
STARTCHAR a7b1
ENCODING 42929
SWIDTH 96 0
DWIDTH 16 0
BBX 16 16 0 -2
BITMAP
0800
08fc
0804
0828
7e10
13ff
1211
1212
2210
1410
0810
1410
4250
0020
0000
0000
ENDCHAR
STARTCHAR a7b2
ENCODING 42930
SWIDTH 96 0
DWIDTH 16 0
BBX 16 16 0 -2
BITMAP
0810
0812
09ff
7e10
1210
12fe
1282
2244
1444
0828
1410
2228
4247
0182
0000
0000
ENDCHAR
STARTCHAR a7b3
ENCODING 42931
SWIDTH 96 0
DWIDTH 16 0
BBX 16 16 0 -2
BITMAP
0804
081e
08f0
7e10
1210
1212
12ff
2210
1410
0810
1410
2214
42fe
0000
0000
0000
ENDCHAR
STARTCHAR a7b4
ENCODING 42932
SWIDTH 96 0
DWIDTH 16 0
BBX 16 16 0 -2
BITMAP
003c
1fc0
0104
088c
0690
0220
0104
7fff
0408
0c10
0320
00c0
0330
0c08
0000
0000
ENDCHAR
STARTCHAR a7b5
ENCODING 42933
SWIDTH 96 0
DWIDTH 16 0
BBX 16 16 0 -2
BITMAP
0100
0108
1ff0
0120
0142
7fff
0100
1ff0
0840
1084
2ffe
4080
0280
0100
0000
0000
ENDCHAR
STARTCHAR a7b6
ENCODING 42934
SWIDTH 96 0
DWIDTH 16 0
BBX 16 16 0 -2
BITMAP
0240
7f40
0242
047f
0884
0ac4
0d44
7844
2828
0810
0828
0844
2887
1302
0000
0000
ENDCHAR
STARTCHAR a7b7
ENCODING 42935
SWIDTH 96 0
DWIDTH 16 0
BBX 16 16 0 -2
BITMAP
003c
1fc0
0008
0888
0490
1ff8
0020
0040
0082
7fff
0080
0080
0280
0100
0000
0000
ENDCHAR
STARTCHAR a7b8
ENCODING 42936
SWIDTH 96 0
DWIDTH 16 0
BBX 16 16 0 -2
BITMAP
0080
0084
3ffe
0080
3fff
2002
4ff4
0020
00c0
0082
7fff
0080
0280
0100
0000
0000
ENDCHAR
STARTCHAR a7b9
ENCODING 42937
SWIDTH 96 0
DWIDTH 16 0
BBX 16 16 0 -2
BITMAP
0100
0082
3fff
2002
4024
0ff0
0000
3ffe
0240
0240
0442
0442
0842
303e
0000
0000
ENDCHAR
STARTCHAR a7ba
ENCODING 42938
SWIDTH 96 0
DWIDTH 16 0
BBX 16 16 0 -2
BITMAP
0100
0082
3fff
2002
4084
0080
7fff
02a0
0490
0888
1087
2082
0080
0080
0000
0000
ENDCHAR
STARTCHAR a7bb
ENCODING 42939
SWIDTH 96 0
DWIDTH 16 0
BBX 16 16 0 -2
BITMAP
0080
3ffe
2002
4104
0100
7fff
0200
0240
0440
0880
0910
1208
27fc
0004
0000
0000
ENDCHAR
STARTCHAR a7bc
ENCODING 42940
SWIDTH 96 0
DWIDTH 16 0
BBX 16 16 0 -2
BITMAP
1010
1030
1028
7f44
1482
1549
1648
1448
1448
1488
1489
2501
23ff
4000
0000
0000
ENDCHAR
STARTCHAR a7bd
ENCODING 42941
SWIDTH 96 0
DWIDTH 16 0
BBX 16 16 0 -2
BITMAP
0004
1ffe
1004
1ffc
1000
1002
1fff
1002
13f2
1212
13f2
1202
200a
4004
0000
0000
ENDCHAR
STARTCHAR a7be
ENCODING 42942
SWIDTH 96 0
DWIDTH 16 0
BBX 16 16 0 -2
BITMAP
0004
1ffe
1004
1ffc
1024
1420
1526
17b8
1420
1420
14a1
2721
241f
4000
0000
0000
ENDCHAR
STARTCHAR a7bf
ENCODING 42943
SWIDTH 96 0
DWIDTH 16 0
BBX 16 16 0 -2
BITMAP
0004
1ffe
1004
1ffc
1044
1040
1762
1164
1158
1248
2447
2842
4140
0080
0000
0000
ENDCHAR
STARTCHAR a7c0
ENCODING 42944
SWIDTH 96 0
DWIDTH 16 0
BBX 16 16 0 -2
BITMAP
0004
1ffe
1004
1ffc
1010
17e0
1080
10fc
1780
1080
10fe
2f80
4081
007f
0000
0000
ENDCHAR
STARTCHAR a7c1
ENCODING 42945
SWIDTH 96 0
DWIDTH 16 0
BBX 16 16 0 -2
BITMAP
1010
1010
1012
11ff
5410
5410
54fe
5442
5444
5428
7c10
4428
00c6
0303
0000
0000
ENDCHAR
STARTCHAR a7c2
ENCODING 42946
SWIDTH 96 0
DWIDTH 16 0
BBX 16 16 0 -2
BITMAP
0080
1084
1084
1ffc
1084
0360
0418
1bc7
6002
0ff0
0010
0020
0020
0040
0000
0000
ENDCHAR
STARTCHAR a7c3
ENCODING 42947
SWIDTH 96 0
DWIDTH 16 0
BBX 16 16 0 -2
BITMAP
0360
0410
0808
17f7
6212
0210
0450
1820
0080
1084
1084
1084
1ffc
1004
0000
0000
ENDCHAR
STARTCHAR a7c4
ENCODING 42948
SWIDTH 96 0
DWIDTH 16 0
BBX 16 16 0 -2
BITMAP
0080
1084
1ffc
0000
1ff0
0420
0440
0bf8
0910
10a0
1040
20a0
4318
0c07
0000
0000
ENDCHAR
STARTCHAR a7c5
ENCODING 42949
SWIDTH 96 0
DWIDTH 16 0
BBX 16 16 0 -2
BITMAP
0004
3ffe
0080
0888
0888
0888
1494
1494
22a2
42c2
0080
0082
7fff
0000
0000
0000
ENDCHAR
STARTCHAR a7c6
ENCODING 42950
SWIDTH 96 0
DWIDTH 16 0
BBX 16 16 0 -2
BITMAP
0720
00c0
0338
1d04
0100
7fff
0240
0444
0ffe
1444
6444
0454
0448
0040
0000
0000
ENDCHAR
STARTCHAR a7c7
ENCODING 42951
SWIDTH 96 0
DWIDTH 16 0
BBX 16 16 0 -2
BITMAP
0040
3ffe
2000
2000
27f8
2010
20a0
2042
2ffe
2044
2048
2040
2140
4080
0000
0000
ENDCHAR
STARTCHAR a7c8
ENCODING 42952
SWIDTH 96 0
DWIDTH 16 0
BBX 16 16 0 -2
BITMAP
0080
0042
1fff
1000
1220
1220
1222
1226
13a8
1230
1220
12a1
2721
421f
0000
0000
ENDCHAR
STARTCHAR a7c9
ENCODING 42953
SWIDTH 96 0
DWIDTH 16 0
BBX 16 16 0 -2
BITMAP
0080
0042
1fff
1040
1044
1ffe
10e0
10d0
1148
1244
2447
2842
4040
0040
0000
0000
ENDCHAR
STARTCHAR a7ca
ENCODING 42954
SWIDTH 96 0
DWIDTH 16 0
BBX 16 16 0 -2
BITMAP
0008
001c
7de0
0820
1024
23fe
3c20
0420
2420
15fc
0800
1400
23ff
4000
0000
0000
ENDCHAR
STARTCHAR a7cb
ENCODING 42955
SWIDTH 96 0
DWIDTH 16 0
BBX 16 16 0 -2
BITMAP
3ffe
0080
0080
1ffc
0080
0084
3ffe
0220
0222
7fff
0220
0420
0820
3020
0000
0000
ENDCHAR
STARTCHAR a7cc
ENCODING 42956
SWIDTH 96 0
DWIDTH 16 0
BBX 16 16 0 -2
BITMAP
0330
0140
3ffc
0084
1ffc
1080
1082
1fff
0182
0282
0c92
308c
0080
0080
0000
0000
ENDCHAR
STARTCHAR a7cd
ENCODING 42957
SWIDTH 96 0
DWIDTH 16 0
BBX 16 16 0 -2
BITMAP
1f86
1108
1110
1920
1542
1506
1108
7fd0
1103
1104
1108
2110
2520
42c0
0000
0000
ENDCHAR
STARTCHAR a7ce
ENCODING 42958
SWIDTH 96 0
DWIDTH 16 0
BBX 16 16 0 -2
BITMAP
3fe4
0884
0888
0890
0882
7fe4
0888
0891
08a1
0882
1084
1088
2090
00a0
0000
0000
ENDCHAR
STARTCHAR a7cf
ENCODING 42959
SWIDTH 96 0
DWIDTH 16 0
BBX 16 16 0 -2
BITMAP
0420
0822
13ff
2040
0444
087e
1044
2844
4844
0884
0904
0a04
0c28
0810
0000
0000
ENDCHAR
STARTCHAR a7d0
ENCODING 42960
SWIDTH 96 0
DWIDTH 16 0
BBX 16 16 0 -2
BITMAP
04fc
0888
1088
2088
0507
0a00
19fc
2884
4888
0850
0820
0858
0987
0e02
0000
0000
ENDCHAR
STARTCHAR a7d1
ENCODING 42961
SWIDTH 96 0
DWIDTH 16 0
BBX 16 16 0 -2
BITMAP
0100
0082
7fff
0800
0800
0808
0ffc
0100
0880
2842
2841
4809
0808
07f8
0000
0000
ENDCHAR
STARTCHAR a7d2
ENCODING 42962
SWIDTH 96 0
DWIDTH 16 0
BBX 16 16 0 -2
BITMAP
0008
3ffc
0008
1ff8
1008
1002
1002
0ffe
0000
2902
28c1
2849
4809
07f8
0000
0000
ENDCHAR
STARTCHAR a7d3
ENCODING 42963
SWIDTH 96 0
DWIDTH 16 0
BBX 16 16 0 -2
BITMAP
0080
0082
7fff
0080
0080
0080
3ffe
0000
0100
28c0
2842
2809
4809
07f8
0000
0000
ENDCHAR
STARTCHAR a7d4
ENCODING 42964
SWIDTH 96 0
DWIDTH 16 0
BBX 16 16 0 -2
BITMAP
0008
3ffc
0108
0908
0d08
0208
0228
0410
0900
04c4
2452
2411
2411
43f0
0000
0000
ENDCHAR
STARTCHAR a7d5
ENCODING 42965
SWIDTH 96 0
DWIDTH 16 0
BBX 16 16 0 -2
BITMAP
0820
0820
0820
29fe
2d22
2a24
4820
0820
0850
0890
0891
0911
0a0f
0c00
0000
0000
ENDCHAR
STARTCHAR a7d6
ENCODING 42966
SWIDTH 96 0
DWIDTH 16 0
BBX 16 16 0 -2
BITMAP
0840
0840
0844
2dfe
2a44
2844
4844
0fff
0840
0890
0888
0904
0a06
0c02
0000
0000
ENDCHAR
STARTCHAR a7d7
ENCODING 42967
SWIDTH 96 0
DWIDTH 16 0
BBX 16 16 0 -2
BITMAP
0800
0804
09fe
2c44
2a44
2844
49ff
0844
0844
0844
0844
0844
0bff
0800
0000
0000
ENDCHAR
STARTCHAR a7d8
ENCODING 42968
SWIDTH 96 0
DWIDTH 16 0
BBX 16 16 0 -2
BITMAP
0810
0850
0848
2c88
2a84
2907
4a22
0820
0840
0888
0904
0bfe
0802
0800
0000
0000
ENDCHAR
STARTCHAR a7d9
ENCODING 42969
SWIDTH 96 0
DWIDTH 16 0
BBX 16 16 0 -2
BITMAP
0020
0028
0024
7fff
0020
0920
0922
3fa4
0928
0910
0931
1149
2085
0103
0000
0000
ENDCHAR
STARTCHAR a7da
ENCODING 42970
SWIDTH 96 0
DWIDTH 16 0
BBX 16 16 0 -2
BITMAP
0240
0750
3c48
0442
7fff
0448
0548
0630
0c20
3450
0490
050a
140a
0806
0000
0000
ENDCHAR
STARTCHAR a7db
ENCODING 42971
SWIDTH 96 0
DWIDTH 16 0
BBX 16 16 0 -2
BITMAP
0820
0820
0820
7ea8
08a4
0aa3
0d21
1924
6a24
0864
0828
0810
2860
1380
0000
0000
ENDCHAR
STARTCHAR a7dc
ENCODING 42972
SWIDTH 96 0
DWIDTH 16 0
BBX 16 16 0 -2
BITMAP
0820
0822
0bff
7e00
0808
0afc
0c88
1888
6888
0888
0889
0909
2909
1207
0000
0000
ENDCHAR
STARTCHAR a7dd
ENCODING 42973
SWIDTH 96 0
DWIDTH 16 0
BBX 16 16 0 -2
BITMAP
0888
0868
0828
7e08
0888
0a68
0c28
1808
680f
0bf8
0808
0808
2808
1008
0000
0000
ENDCHAR
STARTCHAR a7de
ENCODING 42974
SWIDTH 96 0
DWIDTH 16 0
BBX 16 16 0 -2
BITMAP
0820
0824
09fe
7e20
0820
09fc
0d04
1888
6888
0850
0820
0858
2887
1302
0000
0000
ENDCHAR
STARTCHAR a7df
ENCODING 42975
SWIDTH 96 0
DWIDTH 16 0
BBX 16 16 0 -2
BITMAP
0810
0810
08fe
7e10
0810
0a12
0dff
1810
6810
0828
0844
0844
2883
1302
0000
0000
ENDCHAR
STARTCHAR a7e0
ENCODING 42976
SWIDTH 96 0
DWIDTH 16 0
BBX 16 16 0 -2
BITMAP
0840
0840
0844
7ffe
0844
0a44
0c44
1844
6bff
08a0
0890
0908
2a07
1402
0000
0000
ENDCHAR
STARTCHAR a7e1
ENCODING 42977
SWIDTH 96 0
DWIDTH 16 0
BBX 16 16 0 -2
BITMAP
0804
09fe
0844
7e44
0844
0a44
0dff
1844
6844
0844
0844
0844
2bff
1000
0000
0000
ENDCHAR
STARTCHAR a7e2
ENCODING 42978
SWIDTH 96 0
DWIDTH 16 0
BBX 16 16 0 -2
BITMAP
0800
08ff
0892
7e92
0892
0a92
0cfe
1882
6880
0880
0881
0881
2881
107f
0000
0000
ENDCHAR
STARTCHAR a7e3
ENCODING 42979
SWIDTH 96 0
DWIDTH 16 0
BBX 16 16 0 -2
BITMAP
0802
09ff
0900
7f04
097e
0b44
0d44
1944
6954
0948
0941
0a41
2c41
103f
0000
0000
ENDCHAR
STARTCHAR a7e4
ENCODING 42980
SWIDTH 96 0
DWIDTH 16 0
BBX 16 16 0 -2
BITMAP
0850
0848
0840
7e4f
09f0
0e44
1828
6830
0820
0860
0890
0909
2a05
1003
0000
0000
ENDCHAR
STARTCHAR a7e5
ENCODING 42981
SWIDTH 96 0
DWIDTH 16 0
BBX 16 16 0 -2
BITMAP
0910
0910
0910
7f12
0916
09d8
0d10
1910
6910
0910
0951
0991
290f
1000
0000
0000
ENDCHAR
STARTCHAR a7e6
ENCODING 42982
SWIDTH 96 0
DWIDTH 16 0
BBX 16 16 0 -2
BITMAP
080e
08f0
0880
7e80
08fe
0882
0ac2
0ca4
18a4
68a8
0910
0a28
2c47
1182
0000
0000
ENDCHAR
STARTCHAR a7e7
ENCODING 42983
SWIDTH 96 0
DWIDTH 16 0
BBX 16 16 0 -2
BITMAP
0800
09fc
0808
0850
7e20
0bff
0c21
1822
6820
0820
0820
0820
28a0
1040
0000
0000
ENDCHAR
STARTCHAR a7e8
ENCODING 42984
SWIDTH 96 0
DWIDTH 16 0
BBX 16 16 0 -2
BITMAP
0810
0810
0810
7e10
0890
0a9e
0c90
1890
6890
0890
0890
0892
2bff
1000
0000
0000
ENDCHAR
STARTCHAR a7e9
ENCODING 42985
SWIDTH 96 0
DWIDTH 16 0
BBX 16 16 0 -2
BITMAP
0804
081e
08e0
7e80
0882
0aff
0c88
1888
6888
0888
0908
0908
2a08
1008
0000
0000
ENDCHAR
STARTCHAR a7ea
ENCODING 42986
SWIDTH 96 0
DWIDTH 16 0
BBX 16 16 0 -2
BITMAP
0810
0858
0850
7e88
0887
0902
0e00
19fc
6844
0844
0884
0884
2914
1208
0000
0000
ENDCHAR
STARTCHAR a7eb
ENCODING 42987
SWIDTH 96 0
DWIDTH 16 0
BBX 16 16 0 -2
BITMAP
0808
08fc
0888
7e88
0a87
0d00
19fc
6804
0888
0850
0820
0858
2887
1302
0000
0000
ENDCHAR
STARTCHAR a7ec
ENCODING 42988
SWIDTH 96 0
DWIDTH 16 0
BBX 16 16 0 -2
BITMAP
0804
080e
09f0
0928
7f28
0b28
0d28
1928
6924
0924
0a22
0a22
2c21
1020
0000
0000
ENDCHAR
STARTCHAR a7ed
ENCODING 42989
SWIDTH 96 0
DWIDTH 16 0
BBX 16 16 0 -2
BITMAP
0800
0820
0828
7e4f
0889
0a89
0c89
0889
1899
28a9
49cb
0808
2808
1008
0000
0000
ENDCHAR
STARTCHAR a7ee
ENCODING 42990
SWIDTH 96 0
DWIDTH 16 0
BBX 16 16 0 -2
BITMAP
0810
0810
09ff
7e44
0844
0c44
0844
1828
2828
4810
0828
0844
2882
1301
0000
0000
ENDCHAR
STARTCHAR a7ef
ENCODING 42991
SWIDTH 96 0
DWIDTH 16 0
BBX 16 16 0 -2
BITMAP
0040
7e40
0240
0242
027f
7ec4
4144
4244
4028
4010
4428
5844
6087
0302
0000
0000
ENDCHAR
STARTCHAR a7f0
ENCODING 42992
SWIDTH 96 0
DWIDTH 16 0
BBX 16 16 0 -2
BITMAP
0040
0440
7e84
08fe
0908
0a08
0888
0890
0860
0e20
7850
2088
0107
0602
0000
0000
ENDCHAR
STARTCHAR a7f1
ENCODING 42993
SWIDTH 96 0
DWIDTH 16 0
BBX 16 16 0 -2
BITMAP
0440
0440
0842
0a7f
1a84
2ac4
4b44
0a44
0a28
0a10
0a28
0848
0887
0b02
0000
0000
ENDCHAR
STARTCHAR a7f2
ENCODING 42994
SWIDTH 96 0
DWIDTH 16 0
BBX 16 16 0 -2
BITMAP
0ff8
0808
0ff8
0808
0ff8
0000
1ffc
0080
0082
7fff
0080
0080
0080
0080
0000
0000
ENDCHAR
STARTCHAR a7f3
ENCODING 42995
SWIDTH 96 0
DWIDTH 16 0
BBX 16 16 0 -2
BITMAP
0002
7fff
0080
0084
1ffe
1084
1ffc
1084
1ffc
1484
0300
02c0
0c38
7007
0000
0000
ENDCHAR
STARTCHAR a7f4
ENCODING 42996
SWIDTH 96 0
DWIDTH 16 0
BBX 16 16 0 -2
BITMAP
0080
7fff
0080
0084
1ffe
1084
1084
1ffc
11c4
02a0
0498
1887
6082
0080
0000
0000
ENDCHAR
STARTCHAR a7f5
ENCODING 42997
SWIDTH 96 0
DWIDTH 16 0
BBX 16 16 0 -2
BITMAP
0080
3ffe
02a0
0498
1887
6082
07f0
0020
00c4
3ffe
0080
0080
0280
0100
0000
0000
ENDCHAR
STARTCHAR a7f6
ENCODING 42998
SWIDTH 96 0
DWIDTH 16 0
BBX 16 16 0 -2
BITMAP
0080
0082
7fff
01c0
02a0
0498
1887
6082
0ff8
0808
0808
0808
0ff8
0808
0000
0000
ENDCHAR
STARTCHAR a7f7
ENCODING 42999
SWIDTH 96 0
DWIDTH 16 0
BBX 16 16 0 -2
BITMAP
0408
0408
0408
7f7f
0408
0c08
0e28
1528
1448
2448
4488
0508
0428
0410
0000
0000
ENDCHAR
STARTCHAR a7f8
ENCODING 43000
SWIDTH 96 0
DWIDTH 16 0
BBX 16 16 0 -2
BITMAP
0808
0808
0808
7e08
09ff
1808
1c08
2a88
2a48
4848
0808
0808
0828
0810
0000
0000
ENDCHAR
STARTCHAR a7f9
ENCODING 43001
SWIDTH 96 0
DWIDTH 16 0
BBX 16 16 0 -2
BITMAP
0810
0810
0810
7f10
0810
18fe
1c10
2a10
2a10
4810
0810
0812
0bff
0800
0000
0000
ENDCHAR
STARTCHAR a7fa
ENCODING 43002
SWIDTH 96 0
DWIDTH 16 0
BBX 16 16 0 -2
BITMAP
0810
0810
0812
7eff
0810
1890
1c90
2a50
4850
0820
0830
0848
0887
0b02
0000
0000
ENDCHAR
STARTCHAR a7fb
ENCODING 43003
SWIDTH 96 0
DWIDTH 16 0
BBX 16 16 0 -2
BITMAP
0800
0804
09fe
7e04
0804
1804
1dfc
2b04
2900
4900
0901
0901
0901
08ff
0000
0000
ENDCHAR
STARTCHAR a7fc
ENCODING 43004
SWIDTH 96 0
DWIDTH 16 0
BBX 16 16 0 -2
BITMAP
0404
0408
0410
7f60
0c04
0e08
1510
1560
2401
4402
0404
0408
0430
04c0
0000
0000
ENDCHAR
STARTCHAR a7fd
ENCODING 43005
SWIDTH 96 0
DWIDTH 16 0
BBX 16 16 0 -2
BITMAP
0800
0804
08fe
7e10
0810
1812
1dff
2a10
2810
4810
0810
0810
0810
0810
0000
0000
ENDCHAR
STARTCHAR a7fe
ENCODING 43006
SWIDTH 96 0
DWIDTH 16 0
BBX 16 16 0 -2
BITMAP
0800
0804
08fe
7e10
0810
1810
1c10
2a10
2a10
4810
0812
09ff
0800
0800
0000
0000
ENDCHAR
STARTCHAR a840
ENCODING 43072
SWIDTH 96 0
DWIDTH 16 0
BBX 16 16 0 -2
BITMAP
0840
0840
0842
7eff
0902
1802
1c42
2a22
2a22
4802
0802
0822
0814
0808
0000
0000
ENDCHAR
STARTCHAR a841
ENCODING 43073
SWIDTH 96 0
DWIDTH 16 0
BBX 16 16 0 -2
BITMAP
0080
3ffe
0800
0800
0808
0ffc
0080
0084
3ffe
0290
0488
0884
7086
0082
0000
0000
ENDCHAR
STARTCHAR a842
ENCODING 43074
SWIDTH 96 0
DWIDTH 16 0
BBX 16 16 0 -2
BITMAP
0080
0488
04fc
0480
0482
7fff
0080
0488
068c
0890
1090
0060
0380
3c00
0000
0000
ENDCHAR
STARTCHAR a843
ENCODING 43075
SWIDTH 96 0
DWIDTH 16 0
BBX 16 16 0 -2
BITMAP
0800
0ffe
1000
2008
0ffc
0908
0888
7fff
0908
0888
1008
1ffc
0010
00e0
0000
0000
ENDCHAR
STARTCHAR a844
ENCODING 43076
SWIDTH 96 0
DWIDTH 16 0
BBX 16 16 0 -2
BITMAP
0090
0088
3ffe
1084
0c8c
04d0
00a0
0290
0488
0887
3082
0080
0280
0100
0000
0000
ENDCHAR
STARTCHAR a845
ENCODING 43077
SWIDTH 96 0
DWIDTH 16 0
BBX 16 16 0 -2
BITMAP
1ffc
0080
0082
7fff
0084
008c
3ed0
02a0
0490
0888
1087
6082
0280
0100
0000
0000
ENDCHAR
STARTCHAR a846
ENCODING 43078
SWIDTH 96 0
DWIDTH 16 0
BBX 16 16 0 -2
BITMAP
0020
1020
0c20
40a8
30a4
1123
0521
0a24
1064
7028
1010
1060
1180
1600
0000
0000
ENDCHAR
STARTCHAR a847
ENCODING 43079
SWIDTH 96 0
DWIDTH 16 0
BBX 16 16 0 -2
BITMAP
1000
0c40
4030
3090
1090
0080
0a84
0a82
1283
7481
1484
1084
107c
1000
0000
0000
ENDCHAR
STARTCHAR a848
ENCODING 43080
SWIDTH 96 0
DWIDTH 16 0
BBX 16 16 0 -2
BITMAP
2040
1844
0bfe
4244
3448
1060
04a0
08a0
10a0
70a0
1121
1221
141f
1800
0000
0000
ENDCHAR
STARTCHAR a849
ENCODING 43081
SWIDTH 96 0
DWIDTH 16 0
BBX 16 16 0 -2
BITMAP
2002
1bff
0a02
4204
2000
1090
0890
1090
7090
1090
1111
1111
1211
140f
0000
0000
ENDCHAR
STARTCHAR a84a
ENCODING 43082
SWIDTH 96 0
DWIDTH 16 0
BBX 16 16 0 -2
BITMAP
4004
33fe
1000
0000
4002
37ff
1090
0090
0490
0890
7111
1211
1411
180f
0000
0000
ENDCHAR
STARTCHAR a84b
ENCODING 43083
SWIDTH 96 0
DWIDTH 16 0
BBX 16 16 0 -2
BITMAP
0020
2020
17ff
4020
3020
13fe
0622
0a22
1222
7222
122a
1224
1020
1020
0000
0000
ENDCHAR
STARTCHAR a84c
ENCODING 43084
SWIDTH 96 0
DWIDTH 16 0
BBX 16 16 0 -2
BITMAP
2004
1bfe
0820
4020
3020
1024
05fe
0820
1020
7020
1020
1022
17ff
1000
0000
0000
ENDCHAR
STARTCHAR a84d
ENCODING 43085
SWIDTH 96 0
DWIDTH 16 0
BBX 16 16 0 -2
BITMAP
2040
1840
0844
43fe
3044
1044
0044
07ff
0440
08a0
7090
1108
1207
1402
0000
0000
ENDCHAR
STARTCHAR a84e
ENCODING 43086
SWIDTH 96 0
DWIDTH 16 0
BBX 16 16 0 -2
BITMAP
2020
1820
0822
43ff
2420
2470
08a8
08a8
1124
7124
1222
1423
1020
1020
0000
0000
ENDCHAR
STARTCHAR a84f
ENCODING 43087
SWIDTH 96 0
DWIDTH 16 0
BBX 16 16 0 -2
BITMAP
2020
1820
0822
43ff
3020
1020
0420
0850
7088
10c8
1124
1227
1402
1000
0000
0000
ENDCHAR
STARTCHAR a850
ENCODING 43088
SWIDTH 96 0
DWIDTH 16 0
BBX 16 16 0 -2
BITMAP
2020
1022
17ff
4020
2222
2622
0a22
13fe
7022
1020
1020
1021
1021
101f
0000
0000
ENDCHAR
STARTCHAR a851
ENCODING 43089
SWIDTH 96 0
DWIDTH 16 0
BBX 16 16 0 -2
BITMAP
2004
19fe
0904
4104
2504
0904
09fc
1104
7104
1104
1104
1104
11fc
1104
0000
0000
ENDCHAR
STARTCHAR a852
ENCODING 43090
SWIDTH 96 0
DWIDTH 16 0
BBX 16 16 0 -2
BITMAP
0020
2020
1020
1022
03ff
4222
3222
1222
03fe
0a22
1020
7020
1020
1020
0000
0000
ENDCHAR
STARTCHAR a853
ENCODING 43091
SWIDTH 96 0
DWIDTH 16 0
BBX 16 16 0 -2
BITMAP
40fe
3084
1084
0104
4208
31fc
1104
0088
0488
0850
7020
1050
118f
1604
0000
0000
ENDCHAR
STARTCHAR a854
ENCODING 43092
SWIDTH 96 0
DWIDTH 16 0
BBX 16 16 0 -2
BITMAP
0100
2104
19fe
0a00
43fc
3400
13f8
0008
1008
7008
1008
1005
1005
1003
0000
0000
ENDCHAR
STARTCHAR a855
ENCODING 43093
SWIDTH 96 0
DWIDTH 16 0
BBX 16 16 0 -2
BITMAP
201e
1be0
0820
4020
3022
17ff
0420
0820
1020
7050
1088
1104
1207
1402
0000
0000
ENDCHAR
STARTCHAR a856
ENCODING 43094
SWIDTH 96 0
DWIDTH 16 0
BBX 16 16 0 -2
BITMAP
2004
1bfe
0884
4088
3088
149e
04c2
08a4
3128
1110
1228
1244
1487
1102
0000
0000
ENDCHAR
STARTCHAR a857
ENCODING 43095
SWIDTH 96 0
DWIDTH 16 0
BBX 16 16 0 -2
BITMAP
2090
1890
0888
4108
3207
1402
03f8
0888
1088
7088
1088
1108
1250
1420
0000
0000
ENDCHAR
STARTCHAR a858
ENCODING 43096
SWIDTH 96 0
DWIDTH 16 0
BBX 16 16 0 -2
BITMAP
2080
1860
0802
47ff
2040
2440
0850
0848
1046
7042
1040
1040
1040
1040
0000
0000
ENDCHAR
STARTCHAR a859
ENCODING 43097
SWIDTH 96 0
DWIDTH 16 0
BBX 16 16 0 -2
BITMAP
2020
1822
0bff
4000
2408
24fc
0888
0888
1088
7088
1109
1109
1209
1407
0000
0000
ENDCHAR
STARTCHAR a85a
ENCODING 43098
SWIDTH 96 0
DWIDTH 16 0
BBX 16 16 0 -2
BITMAP
0040
2020
1822
0bff
4104
2504
0888
0888
1050
7020
1050
1088
1307
1c02
0000
0000
ENDCHAR
STARTCHAR a85b
ENCODING 43099
SWIDTH 96 0
DWIDTH 16 0
BBX 16 16 0 -2
BITMAP
4002
37ff
1080
0080
40fe
3084
1084
0484
0884
11fc
6004
2008
2008
27ff
0000
0000
ENDCHAR
STARTCHAR a85c
ENCODING 43100
SWIDTH 96 0
DWIDTH 16 0
BBX 16 16 0 -2
BITMAP
27ff
1820
0820
4122
253f
2522
0922
0922
11fe
7002
1002
1002
1014
1008
0000
0000
ENDCHAR
STARTCHAR a85d
ENCODING 43101
SWIDTH 96 0
DWIDTH 16 0
BBX 16 16 0 -2
BITMAP
4210
3210
1210
0210
4210
33df
1210
0210
0a10
1210
6210
2211
22d1
271f
0000
0000
ENDCHAR
STARTCHAR a85e
ENCODING 43102
SWIDTH 96 0
DWIDTH 16 0
BBX 16 16 0 -2
BITMAP
201e
19e0
0900
4100
3102
15ff
0508
0908
0908
7108
1108
1208
1408
1008
0000
0000
ENDCHAR
STARTCHAR a85f
ENCODING 43103
SWIDTH 96 0
DWIDTH 16 0
BBX 16 16 0 -2
BITMAP
0820
0820
0920
2a20
2c24
29fe
4820
0820
0820
0820
1420
1220
2222
43ff
0000
0000
ENDCHAR
STARTCHAR a860
ENCODING 43104
SWIDTH 96 0
DWIDTH 16 0
BBX 16 16 0 -2
BITMAP
0820
0820
0922
2a7f
2c82
2902
4842
0822
0822
1402
1202
2222
4014
0008
0000
0000
ENDCHAR
STARTCHAR a861
ENCODING 43105
SWIDTH 96 0
DWIDTH 16 0
BBX 16 16 0 -2
BITMAP
0842
1084
2108
1084
0842
0080
2082
1084
0c98
0080
0140
0220
0c18
7007
0000
0000
ENDCHAR
STARTCHAR a862
ENCODING 43106
SWIDTH 96 0
DWIDTH 16 0
BBX 16 16 0 -2
BITMAP
0210
03f8
0410
0860
0190
0608
0887
3492
0498
0490
08a0
0360
0c18
7007
0000
0000
ENDCHAR
STARTCHAR a863
ENCODING 43107
SWIDTH 96 0
DWIDTH 16 0
BBX 16 16 0 -2
BITMAP
0080
3fff
2081
4882
0890
0ff8
0880
1080
0082
7fff
0080
0080
0080
0080
0000
0000
ENDCHAR
STARTCHAR a864
ENCODING 43108
SWIDTH 96 0
DWIDTH 16 0
BBX 16 16 0 -2
BITMAP
0410
2410
2410
3f90
2410
44fe
0410
0710
0c10
7410
0410
0412
05ff
0400
0000
0000
ENDCHAR
STARTCHAR a865
ENCODING 43109
SWIDTH 96 0
DWIDTH 16 0
BBX 16 16 0 -2
BITMAP
0810
2890
2890
3c91
4bff
0891
0892
0c94
0890
1890
6890
0881
0881
18ff
0000
0000
ENDCHAR
STARTCHAR a866
ENCODING 43110
SWIDTH 96 0
DWIDTH 16 0
BBX 16 16 0 -2
BITMAP
0220
2220
1420
0822
14a6
24a8
44b0
0c20
1420
2450
4450
0488
2907
1202
0000
0000
ENDCHAR
STARTCHAR a867
ENCODING 43111
SWIDTH 96 0
DWIDTH 16 0
BBX 16 16 0 -2
BITMAP
4002
22ff
1410
0810
1410
2410
04fe
0c10
1410
2410
4410
0412
29ff
1000
0000
0000
ENDCHAR
STARTCHAR a868
ENCODING 43112
SWIDTH 96 0
DWIDTH 16 0
BBX 16 16 0 -2
BITMAP
0220
7f24
087e
0844
0844
3e88
0908
0810
0f28
7828
2044
0084
0103
0600
0000
0000
ENDCHAR
STARTCHAR a869
ENCODING 43113
SWIDTH 96 0
DWIDTH 16 0
BBX 16 16 0 -2
BITMAP
3ff8
0220
0140
0084
3ffe
2084
2084
3ffc
2084
2084
3ffc
2084
2094
2008
0000
0000
ENDCHAR
STARTCHAR a86a
ENCODING 43114
SWIDTH 96 0
DWIDTH 16 0
BBX 16 16 0 -2
BITMAP
0090
0088
7fff
0080
0084
1ffe
1084
1ffc
1084
1ffc
1084
1084
1094
1008
0000
0000
ENDCHAR
STARTCHAR a86b
ENCODING 43115
SWIDTH 96 0
DWIDTH 16 0
BBX 16 16 0 -2
BITMAP
0004
1ffe
1084
1ffc
1084
1ffc
0080
0082
3fff
0102
0102
0202
0c14
3008
0000
0000
ENDCHAR
STARTCHAR a86c
ENCODING 43116
SWIDTH 96 0
DWIDTH 16 0
BBX 16 16 0 -2
BITMAP
0400
0402
0fff
0802
1022
2ff2
4922
0fe2
0922
0fe2
0822
0002
000a
0004
0000
0000
ENDCHAR
STARTCHAR a86d
ENCODING 43117
SWIDTH 96 0
DWIDTH 16 0
BBX 16 16 0 -2
BITMAP
0100
0ff8
0808
0808
0ff8
0808
0808
0ff8
0200
0202
7fff
0200
0200
01fe
0000
0000
ENDCHAR
STARTCHAR a86e
ENCODING 43118
SWIDTH 96 0
DWIDTH 16 0
BBX 16 16 0 -2
BITMAP
0000
7c02
47ff
4410
7c10
4410
4410
7c10
4410
4410
4410
7c10
4450
0020
0000
0000
ENDCHAR
STARTCHAR a86f
ENCODING 43119
SWIDTH 96 0
DWIDTH 16 0
BBX 16 16 0 -2
BITMAP
0200
0410
0808
1ffc
0404
0408
0ffc
1080
0082
7fff
0220
0418
080e
3004
0000
0000
ENDCHAR
STARTCHAR a870
ENCODING 43120
SWIDTH 96 0
DWIDTH 16 0
BBX 16 16 0 -2
BITMAP
0210
0710
7c10
0410
7f90
0e20
0d20
1444
2442
4481
05ff
0481
0401
0400
0000
0000
ENDCHAR
STARTCHAR a871
ENCODING 43121
SWIDTH 96 0
DWIDTH 16 0
BBX 16 16 0 -2
BITMAP
0ff0
0080
0084
3ffe
02a0
0498
1887
67f2
0210
0238
0408
0408
0850
1020
0000
0000
ENDCHAR
STARTCHAR a872
ENCODING 43122
SWIDTH 96 0
DWIDTH 16 0
BBX 16 16 0 -2
BITMAP
0078
1f80
0080
0082
7fff
0490
0888
1087
2222
0220
0421
0421
081f
3000
0000
0000
ENDCHAR
STARTCHAR a873
ENCODING 43123
SWIDTH 96 0
DWIDTH 16 0
BBX 16 16 0 -2
BITMAP
0100
0082
3fff
2002
4414
0a08
1206
0220
1ff0
0220
0421
0421
0821
301f
0000
0000
ENDCHAR
STARTCHAR a874
ENCODING 43124
SWIDTH 96 0
DWIDTH 16 0
BBX 16 16 0 -2
BITMAP
001c
3fe0
0200
0420
1fc0
0080
0310
0c08
1ffc
0080
0888
1084
2084
0080
0000
0000
ENDCHAR
STARTCHAR a875
ENCODING 43125
SWIDTH 96 0
DWIDTH 16 0
BBX 16 16 0 -2
BITMAP
3fff
2221
4412
0808
0000
1ffc
0080
0080
0082
7fff
0080
0080
0080
0080
0000
0000
ENDCHAR
STARTCHAR a876
ENCODING 43126
SWIDTH 96 0
DWIDTH 16 0
BBX 16 16 0 -2
BITMAP
1084
0888
0490
0084
1ffe
1004
1e04
13f4
1004
10e4
1784
1004
1014
1008
0000
0000
ENDCHAR
STARTCHAR a877
ENCODING 43127
SWIDTH 96 0
DWIDTH 16 0
BBX 16 16 0 -2
BITMAP
0100
7fff
0800
0ffc
0000
0ff8
0808
0f88
08e8
0808
0868
0b88
0828
0810
0000
0000
ENDCHAR
STARTCHAR a878
ENCODING 43128
SWIDTH 96 0
DWIDTH 16 0
BBX 16 16 0 -2
BITMAP
1e04
12fe
1210
1210
1e10
1212
13ff
1210
1e10
1210
1210
2210
2a10
4410
0000
0000
ENDCHAR
STARTCHAR a879
ENCODING 43129
SWIDTH 96 0
DWIDTH 16 0
BBX 16 16 0 -2
BITMAP
0204
1f04
1204
1204
1eff
1204
1244
1e24
1224
1204
1204
2204
4a14
0408
0000
0000
ENDCHAR
STARTCHAR a87a
ENCODING 43130
SWIDTH 96 0
DWIDTH 16 0
BBX 16 16 0 -2
BITMAP
0000
1e04
12fe
1210
1e10
1210
1210
1e10
1210
1210
1212
23ff
2a00
4400
0000
0000
ENDCHAR
STARTCHAR a87b
ENCODING 43131
SWIDTH 96 0
DWIDTH 16 0
BBX 16 16 0 -2
BITMAP
0210
1f10
1210
1210
1e10
12fe
1210
1e10
1210
1210
1212
23ff
2a00
4400
0000
0000
ENDCHAR
STARTCHAR a87c
ENCODING 43132
SWIDTH 96 0
DWIDTH 16 0
BBX 16 16 0 -2
BITMAP
0100
7fff
0200
0408
1ffc
0004
0ff8
0808
0f08
08f8
0868
0b88
0828
0810
0000
0000
ENDCHAR
STARTCHAR a87d
ENCODING 43133
SWIDTH 96 0
DWIDTH 16 0
BBX 16 16 0 -2
BITMAP
0200
0110
1ff8
1010
1ff0
1010
1ff0
1208
1210
1120
10c0
1238
1c07
3002
0000
0000
ENDCHAR
STARTCHAR a87e
ENCODING 43134
SWIDTH 96 0
DWIDTH 16 0
BBX 16 16 0 -2
BITMAP
0410
0412
7fff
0410
0100
0082
7fff
0800
0800
0800
0800
0800
0804
0ffe
0000
0000
ENDCHAR
STARTCHAR a8a1
ENCODING 43169
SWIDTH 96 0
DWIDTH 16 0
BBX 16 16 0 -2
BITMAP
0410
0412
7fff
0410
1ffc
0080
0082
7fff
0080
0080
0080
0080
0280
0100
0000
0000
ENDCHAR
STARTCHAR a8a2
ENCODING 43170
SWIDTH 96 0
DWIDTH 16 0
BBX 16 16 0 -2
BITMAP
0220
0222
7fff
0220
0804
0ffe
0804
1204
2184
4084
0004
0004
0028
0010
0000
0000
ENDCHAR
STARTCHAR a8a3
ENCODING 43171
SWIDTH 96 0
DWIDTH 16 0
BBX 16 16 0 -2
BITMAP
0ff8
0808
0808
0ff8
0808
0ff8
0808
0808
0ff8
0948
0240
0441
0841
307f
0000
0000
ENDCHAR
STARTCHAR a8a4
ENCODING 43172
SWIDTH 96 0
DWIDTH 16 0
BBX 16 16 0 -2
BITMAP
07f0
0820
1044
2ffe
4884
0884
0ffc
0884
0884
0ffc
0804
0804
1014
2008
0000
0000
ENDCHAR
STARTCHAR a8a5
ENCODING 43173
SWIDTH 96 0
DWIDTH 16 0
BBX 16 16 0 -2
BITMAP
0100
0082
7fff
0000
0ff8
0000
0ff8
0000
0ff8
0808
0808
0808
0ff8
0808
0000
0000
ENDCHAR
STARTCHAR a8a6
ENCODING 43174
SWIDTH 96 0
DWIDTH 16 0
BBX 16 16 0 -2
BITMAP
0420
0418
080c
1084
0140
0220
0418
1807
67f2
0410
0410
0410
07f0
0410
0000
0000
ENDCHAR
STARTCHAR a8a7
ENCODING 43175
SWIDTH 96 0
DWIDTH 16 0
BBX 16 16 0 -2
BITMAP
0004
3ffe
0000
0008
0ffc
0808
0808
0808
0ff8
0000
0410
0220
0242
7fff
0000
0000
ENDCHAR
STARTCHAR a8a8
ENCODING 43176
SWIDTH 96 0
DWIDTH 16 0
BBX 16 16 0 -2
BITMAP
0002
7fff
0304
048c
08d0
3160
0260
0450
18d0
0148
0247
1c42
0140
0080
0000
0000
ENDCHAR
STARTCHAR a8a9
ENCODING 43177
SWIDTH 96 0
DWIDTH 16 0
BBX 16 16 0 -2
BITMAP
0004
1ffe
1004
1004
1ffc
1004
1004
1ffc
1004
1004
1ffc
0408
0806
7003
0000
0000
ENDCHAR
STARTCHAR a8aa
ENCODING 43178
SWIDTH 96 0
DWIDTH 16 0
BBX 16 16 0 -2
BITMAP
0080
0088
1ffc
0080
0082
7fff
0220
0a28
0a24
1223
2421
4420
08a0
1040
0000
0000
ENDCHAR
STARTCHAR a8ab
ENCODING 43179
SWIDTH 96 0
DWIDTH 16 0
BBX 16 16 0 -2
BITMAP
0080
0088
1ffc
0080
0082
7fff
0080
0888
08fc
0880
0880
1480
2280
41ff
0000
0000
ENDCHAR
STARTCHAR a8ac
ENCODING 43180
SWIDTH 96 0
DWIDTH 16 0
BBX 16 16 0 -2
BITMAP
0008
0ffc
0808
0808
0808
0ff8
0888
0080
0880
08fc
0880
1480
2280
41ff
0000
0000
ENDCHAR
STARTCHAR a8ad
ENCODING 43181
SWIDTH 96 0
DWIDTH 16 0
BBX 16 16 0 -2
BITMAP
0080
07f8
0408
07f8
0408
07f9
040a
040c
3ff8
0048
0188
0e08
7028
0010
0000
0000
ENDCHAR
STARTCHAR a8ae
ENCODING 43182
SWIDTH 96 0
DWIDTH 16 0
BBX 16 16 0 -2
BITMAP
0080
0080
3ffe
0080
1ffc
1084
1ffc
1084
1ffc
0080
7fff
0080
0080
0080
0000
0000
ENDCHAR
STARTCHAR a8af
ENCODING 43183
SWIDTH 96 0
DWIDTH 16 0
BBX 16 16 0 -2
BITMAP
0100
0088
1ffc
0410
0210
0222
7fff
0080
0084
3ffe
0080
0080
0080
0080
0000
0000
ENDCHAR
STARTCHAR a8b0
ENCODING 43184
SWIDTH 96 0
DWIDTH 16 0
BBX 16 16 0 -2
BITMAP
0008
1ffc
1000
1ff8
1000
1ffe
1504
1488
1450
1420
2418
2487
4702
0400
0000
0000
ENDCHAR
STARTCHAR a8b1
ENCODING 43185
SWIDTH 96 0
DWIDTH 16 0
BBX 16 16 0 -2
BITMAP
21fc
1820
0820
0020
7824
0bfe
1020
3820
0820
0820
08a0
0840
1400
63ff
0000
0000
ENDCHAR
STARTCHAR a8b2
ENCODING 43186
SWIDTH 96 0
DWIDTH 16 0
BBX 16 16 0 -2
BITMAP
4020
2220
1221
77ff
1222
2222
4224
2220
1220
1201
1201
11ff
2800
47ff
0000
0000
ENDCHAR
STARTCHAR a8b3
ENCODING 43187
SWIDTH 96 0
DWIDTH 16 0
BBX 16 16 0 -2
BITMAP
0008
23fc
1888
0888
0088
7bf8
0888
1088
3089
0885
0883
0880
1800
67ff
0000
0000
ENDCHAR
STARTCHAR a8b4
ENCODING 43188
SWIDTH 96 0
DWIDTH 16 0
BBX 16 16 0 -2
BITMAP
0080
20ff
1900
0200
78fe
0804
1018
3060
0881
0901
0901
08ff
1800
67ff
0000
0000
ENDCHAR
STARTCHAR a8b5
ENCODING 43189
SWIDTH 96 0
DWIDTH 16 0
BBX 16 16 0 -2
BITMAP
2092
1892
0924
0124
7a48
0c90
1248
3124
0924
0892
0892
0800
1400
63ff
0000
0000
ENDCHAR
STARTCHAR a8b6
ENCODING 43190
SWIDTH 96 0
DWIDTH 16 0
BBX 16 16 0 -2
BITMAP
0ff8
0808
0808
0ff8
0000
3ffc
2084
2084
3ffc
2004
2000
2001
2001
1fff
0000
0000
ENDCHAR
STARTCHAR a8b7
ENCODING 43191
SWIDTH 96 0
DWIDTH 16 0
BBX 16 16 0 -2
BITMAP
3fbe
0922
0922
0924
0928
7fe4
0922
0921
0921
0931
112a
1124
2120
0120
0000
0000
ENDCHAR
STARTCHAR a8b8
ENCODING 43192
SWIDTH 96 0
DWIDTH 16 0
BBX 16 16 0 -2
BITMAP
0100
3fbe
1222
1224
1224
3fe8
0626
0a21
1221
2231
422a
0224
0a20
0420
0000
0000
ENDCHAR
STARTCHAR a8b9
ENCODING 43193
SWIDTH 96 0
DWIDTH 16 0
BBX 16 16 0 -2
BITMAP
043e
0422
7fa2
0424
0424
3f28
0424
0422
7fa1
0831
082a
1024
2020
0020
0000
0000
ENDCHAR
STARTCHAR a8ba
ENCODING 43194
SWIDTH 96 0
DWIDTH 16 0
BBX 16 16 0 -2
BITMAP
0002
7f3e
0922
0922
7f24
092c
0922
7f21
0921
1131
112a
2524
4220
0020
0000
0000
ENDCHAR
STARTCHAR a8bb
ENCODING 43195
SWIDTH 96 0
DWIDTH 16 0
BBX 16 16 0 -2
BITMAP
0002
7fff
0220
0222
3fff
2222
2222
2222
243e
2802
2ffa
2002
3ffe
2002
0000
0000
ENDCHAR
STARTCHAR a8bc
ENCODING 43196
SWIDTH 96 0
DWIDTH 16 0
BBX 16 16 0 -2
BITMAP
0004
1ff8
0080
2086
1c98
0080
7fff
01c0
02a0
0490
1888
6087
0080
0080
0000
0000
ENDCHAR
STARTCHAR a8bd
ENCODING 43197
SWIDTH 96 0
DWIDTH 16 0
BBX 16 16 0 -2
BITMAP
0004
1ffe
1084
1084
1ffc
1084
1084
1ffc
0080
0084
3ffe
0080
0082
7fff
0000
0000
ENDCHAR
STARTCHAR a8be
ENCODING 43198
SWIDTH 96 0
DWIDTH 16 0
BBX 16 16 0 -2
BITMAP
0040
7c20
4812
4bff
5080
4884
48fe
4484
4484
6884
5104
4204
4428
4010
0000
0000
ENDCHAR
STARTCHAR a8bf
ENCODING 43199
SWIDTH 96 0
DWIDTH 16 0
BBX 16 16 0 -2
BITMAP
0004
7cfe
4400
4802
53ff
4848
4848
4448
4448
6848
5049
4089
4109
4607
0000
0000
ENDCHAR
STARTCHAR a8c0
ENCODING 43200
SWIDTH 96 0
DWIDTH 16 0
BBX 16 16 0 -2
BITMAP
0088
7c88
4488
4bfe
5088
5088
4888
4888
4bff
6888
5088
4088
4108
4208
0000
0000
ENDCHAR
STARTCHAR a8c1
ENCODING 43201
SWIDTH 96 0
DWIDTH 16 0
BBX 16 16 0 -2
BITMAP
7801
4bfe
4900
5100
49ff
4901
4982
4944
4924
6918
5118
4224
4442
4981
0000
0000
ENDCHAR
STARTCHAR a8c2
ENCODING 43202
SWIDTH 96 0
DWIDTH 16 0
BBX 16 16 0 -2
BITMAP
0020
7c10
49ff
5000
4800
447c
4444
4444
4444
6444
5844
4045
4085
4307
0000
0000
ENDCHAR
STARTCHAR a8c3
ENCODING 43203
SWIDTH 96 0
DWIDTH 16 0
BBX 16 16 0 -2
BITMAP
0808
0410
0220
3ffe
0220
0220
0220
1224
0a28
0630
0220
0220
0220
7fff
0000
0000
ENDCHAR
STARTCHAR a8c4
ENCODING 43204
SWIDTH 96 0
DWIDTH 16 0
BBX 16 16 0 -2
BITMAP
0038
0fc0
0080
0082
7fff
0080
0492
0496
3c98
0491
1c91
648f
0080
0080
0000
0000
ENDCHAR
STARTCHAR a8c5
ENCODING 43205
SWIDTH 96 0
DWIDTH 16 0
BBX 16 16 0 -2
BITMAP
07a0
7820
24a0
14a0
1120
7fa0
0120
0620
05a0
0e20
7420
0421
1421
081f
0000
0000
ENDCHAR
STARTCHAR a8c6
ENCODING 43206
SWIDTH 96 0
DWIDTH 16 0
BBX 16 16 0 -2
BITMAP
0080
7fff
0080
1ffc
1084
1ffc
0080
1ffc
0084
7fff
0084
1ffc
0080
0380
0000
0000
ENDCHAR
STARTCHAR a8c7
ENCODING 43207
SWIDTH 96 0
DWIDTH 16 0
BBX 16 16 0 -2
BITMAP
0220
0220
1220
13a6
1238
1221
13a1
7e1f
2000
0010
0ff8
0000
0004
3ffe
0000
0000
ENDCHAR
STARTCHAR a8c8
ENCODING 43208
SWIDTH 96 0
DWIDTH 16 0
BBX 16 16 0 -2
BITMAP
0004
3ffe
0220
0220
0220
3e3e
2002
2002
2002
3e3e
0220
0220
0220
7fff
0000
0000
ENDCHAR
STARTCHAR a8c9
ENCODING 43209
SWIDTH 96 0
DWIDTH 16 0
BBX 16 16 0 -2
BITMAP
0080
3ffe
0000
0ff8
0808
0ff8
0000
0ff8
0020
0040
3fff
0040
0240
0180
0000
0000
ENDCHAR
STARTCHAR a8ca
ENCODING 43210
SWIDTH 96 0
DWIDTH 16 0
BBX 16 16 0 -2
BITMAP
0100
0082
7fff
0000
0ff8
0808
0808
0ff8
0080
0490
0c8c
1086
2282
0100
0000
0000
ENDCHAR
STARTCHAR a8cb
ENCODING 43211
SWIDTH 96 0
DWIDTH 16 0
BBX 16 16 0 -2
BITMAP
0904
0888
0850
13fe
3020
5020
11fc
1020
1022
17ff
1020
1020
1020
1020
0000
0000
ENDCHAR
STARTCHAR a8cc
ENCODING 43212
SWIDTH 96 0
DWIDTH 16 0
BBX 16 16 0 -2
BITMAP
0440
0420
0422
0bff
1840
28a0
48a4
09a8
0a90
0c90
0888
08a7
08c2
0880
0000
0000
ENDCHAR
STARTCHAR a8cd
ENCODING 43213
SWIDTH 96 0
DWIDTH 16 0
BBX 16 16 0 -2
BITMAP
0420
0424
0bfe
0820
1822
2fff
4808
0808
0bfe
0888
0848
0808
0828
0810
0000
0000
ENDCHAR
STARTCHAR a8ce
ENCODING 43214
SWIDTH 96 0
DWIDTH 16 0
BBX 16 16 0 -2
BITMAP
0420
0420
0bfe
0820
1822
2fff
4820
0820
0bfe
0820
0820
0822
0fff
0800
0000
0000
ENDCHAR
STARTCHAR a8cf
ENCODING 43215
SWIDTH 96 0
DWIDTH 16 0
BBX 16 16 0 -2
BITMAP
0820
0822
0fff
1020
33fe
5222
1222
13fe
1122
10c0
1060
1098
1307
1402
0000
0000
ENDCHAR
STARTCHAR a8d0
ENCODING 43216
SWIDTH 96 0
DWIDTH 16 0
BBX 16 16 0 -2
BITMAP
0440
0442
0bf6
0848
1850
2862
4fff
0880
0b80
0cfc
0880
0880
0880
087e
0000
0000
ENDCHAR
STARTCHAR a8d1
ENCODING 43217
SWIDTH 96 0
DWIDTH 16 0
BBX 16 16 0 -2
BITMAP
0908
0908
1108
17fe
3108
5108
1108
1fff
1000
1108
1104
1206
1402
1000
0000
0000
ENDCHAR
STARTCHAR a8d2
ENCODING 43218
SWIDTH 96 0
DWIDTH 16 0
BBX 16 16 0 -2
BITMAP
0802
0822
0ff2
1102
33ea
522a
142a
1a4a
114a
108a
1102
1202
140a
1004
0000
0000
ENDCHAR
STARTCHAR a8d3
ENCODING 43219
SWIDTH 96 0
DWIDTH 16 0
BBX 16 16 0 -2
BITMAP
0080
0082
7fff
0488
0890
14a8
62c6
0080
02a0
0490
0888
1084
6283
0100
0000
0000
ENDCHAR
STARTCHAR a8d4
ENCODING 43220
SWIDTH 96 0
DWIDTH 16 0
BBX 16 16 0 -2
BITMAP
0404
05fe
0504
0904
19fc
2800
4924
0924
0924
0924
0925
0a25
0c27
0800
0000
0000
ENDCHAR
STARTCHAR a8d5
ENCODING 43221
SWIDTH 96 0
DWIDTH 16 0
BBX 16 16 0 -2
BITMAP
0400
0402
07ff
0820
0820
1844
29fe
4904
0904
09fc
0904
0904
09fc
0904
0000
0000
ENDCHAR
ENDFONT
